<svg width="166" height="90" viewBox="0 0 166 90" fill="none" xmlns="http://www.w3.org/2000/svg">
<path d="M5.24194 84.4526V67.4854H3.51916C2.66087 67.4854 1.98169 67.7 1.48072 68.1283C0.978874 68.5574 0.727949 69.3137 0.727949 70.3981H0V68.3349C0 68.0112 0.0567463 67.7 0.170239 67.4003C0.282845 67.1015 0.489437 66.8586 0.789129 66.6724C1.08793 66.4862 1.51353 66.3931 2.06326 66.3931H14.3568V67.4854H8.39757V84.4517H5.24194V84.4526Z" fill="#282828"/>
<path d="M17.4142 84.6946C16.2811 84.6946 15.2942 84.4357 14.4528 83.9179C13.6113 83.4001 12.9641 82.6925 12.511 81.7943C12.0579 80.8961 11.8318 79.8809 11.8318 78.7477C11.8318 77.4532 12.0659 76.3653 12.5358 75.4831C13.0048 74.6017 13.6441 73.9341 14.4536 73.481C15.2623 73.0279 16.1684 72.8009 17.1721 72.8009C18.175 72.8009 19.0811 73.0031 19.8907 73.4074C20.6993 73.8117 21.3386 74.3783 21.8085 75.1062C22.2775 75.8342 22.5125 76.6836 22.5125 77.6545L22.415 79.184H15.1089C15.1089 80.7862 15.3554 81.9229 15.8493 82.5941C16.3422 83.2662 16.9859 83.6013 17.7786 83.6013C18.6201 83.6013 19.3037 83.4071 19.8295 83.0188C20.3553 82.6304 20.8287 82.1534 21.249 81.5868L22.0018 82.1454C21.7748 82.5019 21.4716 82.8778 21.0912 83.2741C20.7108 83.6705 20.2249 84.0065 19.6353 84.2814C19.0439 84.5571 18.3035 84.6946 17.4142 84.6946ZM15.108 78.0925H19.2345C19.2345 76.4903 19.0439 75.39 18.6644 74.7915C18.284 74.193 17.7866 73.8933 17.1713 73.8933C16.8148 73.8933 16.4797 74.0227 16.164 74.2816C15.8484 74.5405 15.5939 74.9732 15.3997 75.5806C15.2055 76.1871 15.108 77.025 15.108 78.0925Z" fill="#282828"/>
<path d="M57.415 84.6946C56.2171 84.6946 55.1824 84.4321 54.3081 83.9055C53.4347 83.3797 52.7627 82.6641 52.2936 81.7571C51.8237 80.8509 51.5896 79.8481 51.5896 78.7477C51.5896 77.6314 51.8237 76.6242 52.2936 75.726C52.7627 74.8278 53.4347 74.1158 54.3081 73.59C55.1815 73.0642 56.2171 72.8009 57.415 72.8009C58.6288 72.8009 59.668 73.0642 60.5342 73.59C61.3996 74.1158 62.0673 74.8278 62.5363 75.726C63.0054 76.6242 63.2403 77.6314 63.2403 78.7477C63.2403 79.8481 63.0054 80.8518 62.5363 81.7571C62.0664 82.6632 61.3996 83.3797 60.5342 83.9055C59.668 84.4321 58.6288 84.6946 57.415 84.6946ZM57.415 83.6022C57.9815 83.6022 58.4541 83.3921 58.8345 82.9709C59.2149 82.5506 59.4977 81.9716 59.6839 81.2357C59.8701 80.4998 59.9632 79.6699 59.9632 78.7477C59.9632 77.8097 59.8701 76.9762 59.6839 76.2474C59.4977 75.5194 59.214 74.9449 58.8345 74.5237C58.4541 74.1034 57.9807 73.8924 57.415 73.8924C56.8484 73.8924 56.3749 74.1025 55.9954 74.5237C55.615 74.9449 55.3313 75.5185 55.146 76.2474C54.9598 76.9753 54.8667 77.8088 54.8667 78.7477C54.8667 79.6699 54.9598 80.4998 55.146 81.2357C55.3322 81.9725 55.615 82.5506 55.9954 82.9709C56.3749 83.3921 56.8484 83.6022 57.415 83.6022Z" fill="#282828"/>
<path d="M65.5334 84.4525V69.8146C65.5334 69.0867 65.4323 68.5006 65.2302 68.0546C65.028 67.6095 64.5625 67.3869 63.8346 67.3869H60.9316V66.659H66.5043C67.0709 66.659 67.5116 66.7556 67.8272 66.9498C68.1429 67.144 68.3654 67.4676 68.4949 67.9207C68.6243 68.3738 68.689 69.0051 68.689 69.8137V81.296L75.7282 68.4314H78.64V84.4507H75.4844V71.588L68.4452 84.4525H65.5334Z" fill="#282828"/>
<path d="M84.7676 84.6946C83.6185 84.6946 82.6884 84.5084 81.9764 84.136C81.2644 83.7636 80.6979 83.3025 80.2776 82.7528L81.0055 82.1463C81.2316 82.4371 81.5836 82.7528 82.0616 83.0933C82.5386 83.4329 83.1983 83.6031 84.0397 83.6031C84.7676 83.6031 85.375 83.4373 85.86 83.1057C86.345 82.7741 86.588 82.2119 86.588 81.4184C86.588 80.6576 86.3858 80.083 85.9815 79.6947C85.5772 79.3063 84.8084 79.1122 83.6753 79.1122H82.4614V78.0198H83.6753C84.6462 78.0198 85.3138 77.8584 85.6774 77.5348C86.0418 77.2112 86.2235 76.6854 86.2235 75.9574C86.2235 75.2295 86.001 74.7037 85.5559 74.38C85.1108 74.0564 84.6054 73.895 84.0388 73.895C83.3109 73.895 82.6955 74.1415 82.1946 74.6354C81.6927 75.1293 81.4178 75.7721 81.3691 76.5648H80.6411C80.6411 75.8856 80.6651 75.3066 80.7138 74.8296C80.7626 74.3526 80.9399 73.9598 81.2476 73.6521C81.5544 73.3453 82.0163 73.1263 82.6308 72.9969C83.2452 72.8674 83.9173 72.8027 84.6453 72.8027C85.6162 72.8027 86.4656 72.9162 87.1935 73.1423C87.9215 73.3692 88.4881 73.7124 88.8924 74.1734C89.2967 74.6345 89.4989 75.2295 89.4989 75.9574C89.4989 76.6854 89.232 77.2803 88.6982 77.7414C88.1644 78.2024 87.4604 78.4977 86.5862 78.6272C87.589 78.7566 88.3861 79.0723 88.9766 79.5741C89.5671 80.076 89.8624 80.6904 89.8624 81.4184C89.8624 82.1951 89.6523 82.8264 89.2311 83.3114C88.8099 83.7964 88.2194 84.1484 87.4595 84.3674C86.7015 84.5855 85.8033 84.6946 84.7676 84.6946Z" fill="#282828"/>
<path d="M96.5265 84.6946C95.3287 84.6946 94.2939 84.4321 93.4197 83.9055C92.5463 83.3797 91.8742 82.6641 91.4052 81.7571C90.9352 80.8509 90.7012 79.8481 90.7012 78.7477C90.7012 77.6314 90.9352 76.6242 91.4052 75.726C91.8742 74.8278 92.5463 74.1158 93.4197 73.59C94.293 73.0642 95.3287 72.8009 96.5265 72.8009C97.7404 72.8009 98.7795 73.0642 99.6458 73.59C100.511 74.1158 101.179 74.8278 101.648 75.726C102.117 76.6242 102.352 77.6314 102.352 78.7477C102.352 79.8481 102.117 80.8518 101.648 81.7571C101.178 82.6632 100.511 83.3797 99.6458 83.9055C98.7795 84.4321 97.7404 84.6946 96.5265 84.6946ZM96.5265 83.6022C97.0931 83.6022 97.5657 83.3921 97.9461 82.9709C98.3265 82.5506 98.6093 81.9716 98.7955 81.2357C98.9817 80.4998 99.0748 79.6699 99.0748 78.7477C99.0748 77.8097 98.9817 76.9762 98.7955 76.2474C98.6093 75.5194 98.3256 74.9449 97.9461 74.5237C97.5657 74.1034 97.0922 73.8924 96.5265 73.8924C95.96 73.8924 95.4865 74.1025 95.107 74.5237C94.7266 74.9449 94.4429 75.5185 94.2576 76.2474C94.0714 76.9753 93.9783 77.8088 93.9783 78.7477C93.9783 79.6699 94.0714 80.4998 94.2576 81.2357C94.4438 81.9725 94.7266 82.5506 95.107 82.9709C95.4865 83.3921 95.96 83.6022 96.5265 83.6022Z" fill="#282828"/>
<path d="M112.134 84.9375C110.435 84.9375 108.986 84.5731 107.789 83.8452C106.591 83.1172 105.681 82.1304 105.058 80.8837C104.435 79.638 104.124 78.2379 104.124 76.6845C104.124 75.4547 104.321 74.31 104.718 73.2496C105.115 72.19 105.677 71.2634 106.406 70.4708C107.134 69.6781 107.983 69.0592 108.954 68.6141C109.925 68.169 110.985 67.9464 112.134 67.9464C113.654 67.9464 114.881 68.1451 115.811 68.5414C116.741 68.9377 117.432 69.3952 117.886 69.9131C118.21 70.3342 118.396 70.876 118.445 71.5392C118.494 72.2033 118.518 72.8905 118.518 73.6025H117.79C117.482 72.1306 116.92 71.0019 116.102 70.2163C115.285 69.4316 114.205 69.0388 112.862 69.0388C111.876 69.0388 110.977 69.2658 110.168 69.7189C109.358 70.172 108.716 70.9531 108.239 72.0614C107.761 73.1698 107.522 74.7117 107.522 76.6854C107.522 77.6075 107.62 78.4977 107.814 79.3551C108.008 80.2134 108.319 80.9813 108.748 81.6613C109.177 82.3405 109.727 82.8752 110.398 83.2635C111.07 83.6519 111.892 83.8461 112.862 83.8461C113.979 83.8461 115.014 83.5508 115.969 82.9603C116.924 82.3698 117.693 81.5079 118.276 80.3757L119.125 81.0309C118.364 82.3742 117.434 83.361 116.334 83.9924C115.232 84.6219 113.832 84.9375 112.134 84.9375Z" fill="#282828"/>
<path d="M122.994 84.4525V74.1362H122.266C121.538 74.1362 120.972 74.3304 120.568 74.7187C120.163 75.1071 119.961 75.7623 119.961 76.6845H119.233V74.9856C119.233 74.5006 119.355 74.0555 119.598 73.6503C119.841 73.246 120.326 73.0438 121.053 73.0438H129.815V74.1362H126.15V84.4516H122.994V84.4525Z" fill="#282828"/>
<path d="M131.088 89.064V76.1995C131.088 75.4715 131.08 75.2401 130.886 74.7941C130.692 74.349 130.142 74.1264 129.414 74.1264H129.171V73.0438H131.574C132.123 73.0438 132.557 73.1165 132.873 73.2619C133.188 73.4074 133.435 73.6742 133.613 74.0626C133.904 73.8037 134.317 73.5288 134.851 73.2371C135.385 72.9454 136.073 72.8 136.914 72.8C138.046 72.8 138.99 73.0633 139.742 73.5891C140.494 74.1149 141.06 74.8269 141.441 75.7251C141.821 76.6233 142.011 77.6305 142.011 78.7468C142.011 79.8472 141.82 80.8509 141.441 81.7562C141.06 82.6623 140.486 83.3787 139.717 83.9045C138.948 84.4303 137.973 84.6937 136.792 84.6937C136.258 84.6937 135.761 84.6165 135.299 84.4631C134.838 84.3097 134.486 84.1439 134.243 83.9657V89.0631H131.088V89.064ZM136.307 83.6022C136.921 83.6022 137.403 83.392 137.751 82.9709C138.099 82.5506 138.35 81.9716 138.504 81.2357C138.657 80.4998 138.734 79.6698 138.734 78.7477C138.734 77.8096 138.657 76.9762 138.504 76.2473C138.35 75.5194 138.108 74.9448 137.776 74.5237C137.444 74.1034 136.995 73.8924 136.429 73.8924C135.878 73.8924 135.434 73.9819 135.094 74.1592C134.754 74.3375 134.47 74.5237 134.244 74.7178V82.8733C134.439 83.0356 134.73 83.197 135.118 83.3584C135.505 83.5215 135.902 83.6022 136.307 83.6022Z" fill="#282828"/>
<path d="M148.721 84.6946C147.523 84.6946 146.488 84.4321 145.614 83.9055C144.74 83.3797 144.068 82.6641 143.599 81.7571C143.129 80.8509 142.895 79.8481 142.895 78.7477C142.895 77.6314 143.129 76.6242 143.599 75.726C144.068 74.8278 144.74 74.1158 145.614 73.59C146.487 73.0642 147.523 72.8009 148.721 72.8009C149.934 72.8009 150.974 73.0642 151.84 73.59C152.705 74.1158 153.373 74.8278 153.842 75.726C154.311 76.6242 154.546 77.6314 154.546 78.7477C154.546 79.8481 154.311 80.8518 153.842 81.7571C153.372 82.6632 152.705 83.3797 151.84 83.9055C150.974 84.4321 149.934 84.6946 148.721 84.6946ZM148.721 83.6022C149.287 83.6022 149.76 83.3921 150.14 82.9709C150.521 82.5506 150.803 81.9716 150.99 81.2357C151.176 80.4998 151.269 79.6699 151.269 78.7477C151.269 77.8097 151.176 76.9762 150.99 76.2474C150.803 75.5194 150.52 74.9449 150.14 74.5237C149.76 74.1034 149.286 73.8924 148.721 73.8924C148.154 73.8924 147.681 74.1025 147.301 74.5237C146.921 74.9449 146.637 75.5185 146.452 76.2474C146.265 76.9753 146.172 77.8088 146.172 78.7477C146.172 79.6699 146.265 80.4998 146.452 81.2357C146.638 81.9725 146.921 82.5506 147.301 82.9709C147.681 83.3921 148.154 83.6022 148.721 83.6022Z" fill="#282828"/>
<path d="M155.563 84.4525V76.2004C155.563 75.4724 155.462 74.8863 155.26 74.4403C155.058 73.9952 154.592 73.7727 153.864 73.7727H150.075V73.0447H156.534C157.101 73.0447 157.541 73.1414 157.857 73.3356C158.173 73.5297 158.395 73.8534 158.525 74.3064C158.654 74.7595 158.719 75.3908 158.719 76.1995V81.4184L163.087 73.0447H166V84.4525H162.844V76.0789L158.476 84.4525H155.563ZM160.564 72.0729C159.771 72.0729 159.079 71.8628 158.488 71.4416C157.898 71.0214 157.448 70.4708 157.141 69.7916L157.821 69.2817C158.064 69.5894 158.411 69.8687 158.864 70.1187C159.317 70.3697 159.884 70.4947 160.563 70.4947C161.243 70.4947 161.809 70.3697 162.262 70.1187C162.715 69.8678 163.063 69.5885 163.305 69.2817L163.985 69.7916C163.677 70.4708 163.228 71.0214 162.638 71.4416C162.048 71.8628 161.356 72.0729 160.564 72.0729Z" fill="#282828"/>
<path d="M34.9515 75.726C34.5711 74.8278 34.0045 74.1158 33.2527 73.59C32.4999 73.0642 31.5574 72.8009 30.4251 72.8009C29.5828 72.8009 28.8956 72.9472 28.3618 73.238C27.8281 73.5297 27.4149 73.8046 27.1241 74.0635C26.9458 73.6752 26.6993 73.4083 26.3837 73.2629C26.068 73.1166 25.6345 73.0438 25.0847 73.0438H22.6819V73.7718H22.9248C23.6528 73.7718 24.1138 73.9943 24.308 74.4395C24.5022 74.8846 24.5997 75.4715 24.5997 76.1995V89.0632H27.7545V83.9666C27.9974 84.1449 28.3494 84.3107 28.8105 84.464C29.2716 84.6174 29.7699 84.6946 30.3036 84.6946C31.4847 84.6946 32.4591 84.4321 33.2278 83.9055C33.9966 83.3797 34.5711 82.6641 34.9515 81.758C35.3319 80.8518 35.5216 79.8481 35.5216 78.7477C35.5216 77.6314 35.3319 76.6242 34.9515 75.726ZM32.0149 81.2357C31.8606 81.9725 31.6097 82.5506 31.2621 82.9709C30.9136 83.3921 30.4331 83.6022 29.8177 83.6022C29.4134 83.6022 29.0171 83.5215 28.6287 83.3593C28.2404 83.1979 27.9487 83.0365 27.7545 82.8743V74.7188C27.9815 74.5246 28.2643 74.3384 28.6048 74.1602C28.9444 73.9828 29.3895 73.8933 29.9392 73.8933C30.5058 73.8933 30.9544 74.1043 31.286 74.5246C31.6177 74.9457 31.8606 75.5194 32.0149 76.2482C32.1683 76.9762 32.2454 77.8097 32.2454 78.7477C32.2454 79.6699 32.1683 80.4998 32.0149 81.2357Z" fill="#282828"/>
<path d="M54.5405 85.497V86.225H48.9678C48.4021 86.225 47.9606 86.1283 47.6449 85.9341C47.3293 85.74 47.1076 85.4154 46.9773 84.9632C46.8487 84.5102 46.784 83.8789 46.784 83.0702V76.164L43.2276 84.4516H42.426L38.2029 75.8599V84.4277H36.989V73.0438H39.9505L43.5423 80.3499L46.784 72.8071L46.7866 72.8009H49.9387C49.9387 73.3444 49.9946 79.5094 50.1072 82.8007C50.1453 83.9267 50.1905 84.7159 50.2419 84.8294C50.265 84.8799 50.2907 84.9269 50.3217 84.9712C50.5532 85.3215 50.9912 85.497 51.6375 85.497H54.5405Z" fill="#282828"/>
<path d="M77.4244 0.088463C71.9085 0.966258 68.3255 8.57115 66.0965 16.0741C64.3604 21.9154 63.4462 27.6973 63.0809 30.1933C62.408 34.7924 59.8721 50.5271 53.7772 57.2719C52.3107 58.8927 50.6393 59.9966 48.7374 60.299C48.4484 60.3442 58.7611 60.3655 59.1778 60.299C64.6938 59.4212 68.2768 51.8163 70.5058 44.3134C72.2419 38.472 73.1561 32.6901 73.5214 30.1942C74.1943 25.5951 76.7275 9.86479 82.8251 3.11819C84.2899 1.49559 85.963 0.393475 87.8649 0.0893497C88.1539 0.04413 77.8421 0.0228501 77.4244 0.088463Z" fill="url(#paint0_radial_173_10074)"/>
<path d="M134.854 0.0884606C129.338 0.966255 125.755 8.57115 123.526 16.0741C121.79 21.9154 120.876 27.6973 120.511 30.1933C119.838 34.7924 117.302 50.5271 111.207 57.2719C109.74 58.8927 108.069 59.9966 106.167 60.299C105.878 60.3442 116.191 60.3655 116.608 60.299C122.123 59.4212 125.706 51.8163 127.936 44.3134C129.672 38.472 130.586 32.6901 130.951 30.1942C131.624 25.5951 134.157 9.86479 140.255 3.11818C140.975 2.32107 142.205 1.57539 143.269 1.02389C143.734 0.782717 143.563 0.0787074 143.038 0.0760474C140.057 0.0609742 135.143 0.0432409 134.854 0.0884606Z" fill="url(#paint1_radial_173_10074)"/>
<path d="M49.9706 0.00863906C41.6953 0.636395 36.676 21.6902 34.9 30.1941C34.4283 32.4587 33.726 35.6108 32.7924 39.0297C30.6493 46.898 27.2844 56.1822 22.7004 59.305C22.6233 59.3573 22.5461 59.4088 22.4681 59.4575C22.0407 59.728 22.2251 60.3867 22.7314 60.3867C24.1297 60.3894 25.5324 60.3885 25.6556 60.3796C33.9326 59.7519 38.952 38.6981 40.7262 30.1941C41.1997 27.9296 41.9019 24.7775 42.8356 21.3568C44.9787 13.4886 48.3418 4.20609 52.9267 1.08327C53.8355 0.46261 54.7913 0.084892 55.7968 0.00863906C55.7968 0.00863906 50.2224 -0.0108675 49.9706 0.00863906Z" fill="url(#paint2_radial_173_10074)"/>
<path d="M16.1223 18.0265V17.0813C16.1223 16.8038 16.3475 16.5786 16.6251 16.5786H58.4675C58.745 16.5786 58.9702 16.8038 58.9702 17.0813V18.0265C58.9702 18.304 58.745 18.5292 58.4675 18.5292H16.6242C16.3466 18.5292 16.1223 18.304 16.1223 18.0265Z" fill="#889696"/>
<path d="M16.1213 43.2165V42.2714C16.1213 41.9938 16.3466 41.7686 16.6241 41.7686H58.4665C58.744 41.7686 58.9693 41.9938 58.9693 42.2714V43.2165C58.9693 43.4941 58.744 43.7193 58.4665 43.7193H16.6241C16.3466 43.7193 16.1213 43.4941 16.1213 43.2165Z" fill="#889696"/>
<path d="M110.277 0.00863906C102.001 0.636396 96.9821 21.6902 95.2061 30.1941C94.7344 32.4587 94.0321 35.6108 93.0985 39.0297C90.9545 46.898 87.5897 56.1822 83.0056 59.305C82.0968 59.9257 81.141 60.3034 80.1355 60.3797C80.1355 60.3797 85.7099 60.3992 85.9618 60.3797C94.2387 59.7519 99.2581 38.6981 101.032 30.1941C101.506 27.9296 102.208 24.7775 103.142 21.3568C105.286 13.4886 108.649 4.2061 113.233 1.08327C114.142 0.46261 115.097 0.084892 116.103 0.00863906C116.102 0.00863906 110.528 -0.0108675 110.277 0.00863906Z" fill="url(#paint3_radial_173_10074)"/>
<path d="M106.731 18.0265V17.0813C106.731 16.8038 106.956 16.5786 107.234 16.5786H149.376C149.653 16.5786 149.879 16.8038 149.879 17.0813V18.0265C149.879 18.304 149.653 18.5292 149.376 18.5292H107.234C106.956 18.5292 106.731 18.304 106.731 18.0265Z" fill="#889696"/>
<path d="M106.731 43.2165V42.2714C106.731 41.9938 106.956 41.7686 107.234 41.7686H149.376C149.653 41.7686 149.879 41.9938 149.879 42.2714V43.2165C149.879 43.4941 149.653 43.7193 149.376 43.7193H107.234C106.956 43.7193 106.731 43.4941 106.731 43.2165Z" fill="#889696"/>
<path d="M124.657 13.4965H109.023C107.626 13.4965 106.25 13.1507 105.017 12.491L99.3673 9.46399C96.2294 7.78288 92.6898 6.89444 89.1308 6.89444H76.5792C72.8738 6.89444 69.2305 7.84405 65.9969 9.65373L61.0555 12.4183C59.7903 13.1259 58.3645 13.4983 56.9148 13.4983H41.3548C41.0773 13.4983 40.8521 13.2731 40.8521 12.9956V12.116C40.8521 11.8385 41.0773 11.6133 41.3548 11.6133H56.9148C58.04 11.6133 59.1536 11.3233 60.1352 10.7736L65.0765 8.00897C68.5913 6.04236 72.552 5.01028 76.5792 5.01028H89.1308C93.0002 5.01028 96.8474 5.97586 100.257 7.80327L105.908 10.8303C106.867 11.3437 107.937 11.6124 109.024 11.6124H124.658C124.935 11.6124 125.16 11.8376 125.16 12.1151V12.9947C125.159 13.2713 124.934 13.4965 124.657 13.4965Z" fill="#282828"/>
<path d="M89.1308 55.4215H76.5792C72.552 55.4215 68.5913 54.3894 65.0765 52.4228L60.1352 49.6582C59.1536 49.1084 58.04 48.8185 56.9148 48.8185H41.3548C41.0773 48.8185 40.8521 48.5933 40.8521 48.3157V47.4362C40.8521 47.1587 41.0773 46.9334 41.3548 46.9334H56.9148C58.3645 46.9334 59.7903 47.305 61.0555 48.0134L65.9969 50.778C69.2305 52.5868 72.8738 53.5373 76.5792 53.5373H89.1308C92.6907 53.5373 96.2303 52.6489 99.3673 50.9678L105.018 47.9398C106.246 47.2819 107.631 46.9343 109.024 46.9343H124.658C124.935 46.9343 125.16 47.1595 125.16 47.4371V48.3166C125.16 48.5942 124.935 48.8194 124.658 48.8194H109.024C107.94 48.8194 106.863 49.0898 105.908 49.6014L100.257 52.6294C96.8474 54.4559 92.9993 55.4215 89.1308 55.4215Z" fill="#282828"/>
<path d="M140.357 60.3797C132.082 59.7519 127.062 38.6981 125.286 30.1941C124.815 27.9296 124.112 24.7775 123.179 21.3586C121.035 13.4903 117.67 4.2061 113.086 1.08327C112.177 0.46261 111.221 0.084892 110.216 0.00863906C110.216 0.00863906 115.79 -0.0108675 116.042 0.00863906C124.319 0.636396 129.338 21.6902 131.113 30.1941C131.586 32.4587 132.288 35.6108 133.222 39.0315C135.366 46.8997 138.729 56.1822 143.313 59.305C143.39 59.3573 143.467 59.4088 143.545 59.4575C143.973 59.728 143.788 60.3868 143.282 60.3868C141.883 60.3894 140.48 60.3894 140.357 60.3797Z" fill="url(#paint4_radial_173_10074)"/>
<path d="M55.8332 0.00863906C64.1084 0.636396 69.1278 21.6902 70.9038 30.1941C71.3755 32.4587 72.0777 35.6108 73.0114 39.0297C75.1553 46.898 78.5202 56.1822 83.1042 59.305C84.0131 59.9257 84.9689 60.3034 85.9743 60.3797C85.9743 60.3797 80.3999 60.3992 80.1481 60.3797C71.8711 59.7519 66.8517 38.6981 65.0775 30.1941C64.604 27.9296 63.9018 24.7775 62.9681 21.3568C60.8251 13.4886 57.462 4.2061 52.8779 1.08327C51.9691 0.46261 51.0133 0.084892 50.0078 0.00863906C50.0069 0.00863906 55.5814 -0.0108675 55.8332 0.00863906Z" fill="url(#paint5_radial_173_10074)"/>
<path d="M87.8861 0.088463C93.402 0.966258 96.985 8.57116 99.2141 16.0741C100.95 21.9154 101.864 27.6973 102.23 30.1933C102.903 34.7924 105.438 50.5271 111.533 57.2719C113 58.8927 114.671 59.9966 116.573 60.299C116.862 60.3442 106.549 60.3655 106.133 60.299C100.617 59.4212 97.0338 51.8163 94.8047 44.3134C93.0686 38.472 92.1536 32.6901 91.7892 30.1942C91.1162 25.5951 88.583 9.86479 82.4854 3.11819C81.0207 1.49559 79.3476 0.393475 77.4457 0.0893497C77.1566 0.04413 87.4685 0.0228501 87.8861 0.088463Z" fill="url(#paint6_radial_173_10074)"/>
<path d="M30.2761 0.0884606C35.792 0.966255 39.375 8.57115 41.6041 16.0741C43.3402 21.9154 44.2543 27.6973 44.6196 30.1933C45.2926 34.7924 47.8285 50.5271 53.9234 57.2719C55.3899 58.8927 57.0613 59.9966 58.9632 60.299C59.2522 60.3442 48.9395 60.3655 48.5227 60.299C43.0068 59.4212 39.4238 51.8163 37.1947 44.3134C35.4587 38.472 34.5445 32.6901 34.1792 30.1942C33.5062 25.5951 30.973 9.86479 24.8755 3.11818C24.1555 2.32107 22.9257 1.57539 21.8617 1.02389C21.3962 0.782717 21.5673 0.0787074 22.0922 0.0760474C25.0741 0.0609742 29.9871 0.0432409 30.2761 0.0884606Z" fill="url(#paint7_radial_173_10074)"/>
<defs>
<radialGradient id="paint0_radial_173_10074" cx="0" cy="0" r="1" gradientUnits="userSpaceOnUse" gradientTransform="translate(68.3002 30.1959) rotate(-75.0007) scale(37.3924 7.61471)">
<stop stop-color="#EE7272"/>
<stop offset="0.1092" stop-color="#E06161"/>
<stop offset="0.3495" stop-color="#C54242"/>
<stop offset="0.5828" stop-color="#B22B2B"/>
<stop offset="0.804" stop-color="#A71E1E"/>
<stop offset="1" stop-color="#A31919"/>
</radialGradient>
<radialGradient id="paint1_radial_173_10074" cx="0" cy="0" r="1" gradientUnits="userSpaceOnUse" gradientTransform="translate(124.848 30.2037) rotate(-75.0007) scale(36.896 7.51364)">
<stop stop-color="#EE7272"/>
<stop offset="0.1092" stop-color="#E06161"/>
<stop offset="0.3495" stop-color="#C54242"/>
<stop offset="0.5828" stop-color="#B22B2B"/>
<stop offset="0.804" stop-color="#A71E1E"/>
<stop offset="1" stop-color="#A31919"/>
</radialGradient>
<radialGradient id="paint2_radial_173_10074" cx="0" cy="0" r="1" gradientUnits="userSpaceOnUse" gradientTransform="translate(39.0118 30.1962) rotate(-75.0007) scale(35.9387 4.95267)">
<stop stop-color="#29ABE2"/>
<stop offset="0.1775" stop-color="#1D9AD7"/>
<stop offset="0.4718" stop-color="#0D83C8"/>
<stop offset="0.7517" stop-color="#0376BF"/>
<stop offset="1" stop-color="#0071BC"/>
</radialGradient>
<radialGradient id="paint3_radial_173_10074" cx="0" cy="0" r="1" gradientUnits="userSpaceOnUse" gradientTransform="translate(98.1162 30.1978) rotate(-75.0007) scale(36.5616 5.0385)">
<stop stop-color="#29ABE2"/>
<stop offset="0.1775" stop-color="#1D9AD7"/>
<stop offset="0.4718" stop-color="#0D83C8"/>
<stop offset="0.7517" stop-color="#0376BF"/>
<stop offset="1" stop-color="#0071BC"/>
</radialGradient>
<radialGradient id="paint4_radial_173_10074" cx="0" cy="0" r="1" gradientUnits="userSpaceOnUse" gradientTransform="translate(126.997 30.1919) rotate(75.0007) scale(35.9387 4.95267)">
<stop stop-color="#29ABE2"/>
<stop offset="0.1775" stop-color="#1D9AD7"/>
<stop offset="0.4718" stop-color="#0D83C8"/>
<stop offset="0.7517" stop-color="#0376BF"/>
<stop offset="1" stop-color="#0071BC"/>
</radialGradient>
<radialGradient id="paint5_radial_173_10074" cx="0" cy="0" r="1" gradientUnits="userSpaceOnUse" gradientTransform="translate(67.99 30.1934) rotate(75.0007) scale(36.5616 5.0385)">
<stop stop-color="#29ABE2"/>
<stop offset="0.1775" stop-color="#1D9AD7"/>
<stop offset="0.4718" stop-color="#0D83C8"/>
<stop offset="0.7517" stop-color="#0376BF"/>
<stop offset="1" stop-color="#0071BC"/>
</radialGradient>
<radialGradient id="paint6_radial_173_10074" cx="0" cy="0" r="1" gradientUnits="userSpaceOnUse" gradientTransform="translate(97.0073 30.1917) rotate(75.0007) scale(37.3924 7.06504)">
<stop stop-color="#EE7272"/>
<stop offset="0.1092" stop-color="#E06161"/>
<stop offset="0.3495" stop-color="#C54242"/>
<stop offset="0.5828" stop-color="#B22B2B"/>
<stop offset="0.804" stop-color="#A71E1E"/>
<stop offset="1" stop-color="#A31919"/>
</radialGradient>
<radialGradient id="paint7_radial_173_10074" cx="0" cy="0" r="1" gradientUnits="userSpaceOnUse" gradientTransform="translate(40.2794 30.1995) rotate(75.0007) scale(36.896 6.97126)">
<stop stop-color="#EE7272"/>
<stop offset="0.1092" stop-color="#E06161"/>
<stop offset="0.3495" stop-color="#C54242"/>
<stop offset="0.5828" stop-color="#B22B2B"/>
<stop offset="0.804" stop-color="#A71E1E"/>
<stop offset="1" stop-color="#A31919"/>
</radialGradient>
</defs>
</svg>
