<svg width="24" height="24" viewBox="0 0 24 24" fill="none" xmlns="http://www.w3.org/2000/svg">
<circle cx="12" cy="12" r="12" fill="#7D51A0"/>
<path d="M17.1118 6.68535C16.7666 6.38375 15.3693 5.42223 12.2539 5.40934C12.2539 5.40934 8.58128 5.20054 6.79253 6.75753C5.79757 7.70101 5.44689 9.08529 5.40883 10.7995C5.37077 12.5138 5.32456 15.7257 8.58943 16.597H8.59215L8.58943 17.9271C8.58943 17.9271 8.56768 18.4659 8.94283 18.5742C9.3941 18.7082 9.66051 18.2983 10.0927 17.8575C10.3292 17.6152 10.6555 17.2595 10.9028 16.9888C13.1374 17.1667 14.8528 16.7594 15.0485 16.7001C15.4998 16.5609 18.0524 16.2516 18.4656 13.0396C18.8951 9.72458 18.259 7.63141 17.1118 6.68535ZM17.4897 12.7973C17.139 15.4782 15.0702 15.6484 14.6897 15.7644C14.5266 15.8133 13.0178 16.1691 11.123 16.0531C11.123 16.0531 9.70944 17.6694 9.26905 18.0895C9.12497 18.2262 8.9673 18.2133 8.97002 17.9426C8.97002 17.7647 8.98089 15.7334 8.98089 15.7334C8.97817 15.7334 8.97817 15.7334 8.98089 15.7334C6.21349 15.0065 6.3766 12.2714 6.4065 10.8408C6.43641 9.41009 6.72185 8.23719 7.56457 7.44838C9.07875 6.14659 12.1968 6.33993 12.1968 6.33993C14.831 6.35024 16.0924 7.10296 16.386 7.35558C17.3565 8.14439 17.8512 10.0313 17.4897 12.7973ZM13.711 10.7145C13.7219 10.9361 13.3712 10.9516 13.3603 10.7299C13.3304 10.1628 13.0504 9.88698 12.4741 9.85605C12.2403 9.84316 12.2621 9.51062 12.4931 9.52351C13.2516 9.56218 13.673 9.97463 13.711 10.7145ZM14.2629 11.0057C14.2901 9.91276 13.5697 9.05693 12.2023 8.96155C11.9712 8.94608 11.9957 8.61355 12.2267 8.62901C13.8034 8.73728 14.6435 9.76582 14.6135 11.0135C14.6108 11.2352 14.2574 11.2249 14.2629 11.0057ZM15.5405 11.3512C15.5433 11.5729 15.1899 11.5754 15.1899 11.3538C15.1736 9.25284 13.6974 8.1083 11.906 8.09541C11.6749 8.09283 11.6749 7.76287 11.906 7.76287C13.9095 7.77576 15.5215 9.08786 15.5405 11.3512ZM15.2334 13.88V13.8852C14.9398 14.3749 14.3906 14.9163 13.8252 14.7436L13.8198 14.7358C13.2462 14.5837 11.8951 13.9238 11.0415 13.2794C10.6011 12.9494 10.1988 12.5602 9.88886 12.1864C9.60885 11.8538 9.32613 11.4594 9.05157 10.9851C8.47254 9.99267 8.34477 9.54929 8.34477 9.54929C8.16263 9.01311 8.73079 8.49239 9.25002 8.21399H9.25545C9.50555 8.09025 9.74478 8.1315 9.90517 8.31452C9.90517 8.31452 10.2423 8.69604 10.3863 8.88422C10.5223 9.05951 10.7044 9.34049 10.7995 9.49773C10.9654 9.77871 10.8621 10.0648 10.699 10.1834L10.3727 10.4309C10.2069 10.5572 10.2287 10.7918 10.2287 10.7918C10.2287 10.7918 10.7126 12.5266 12.5203 12.9649C12.5203 12.9649 12.7677 12.9855 12.9009 12.8283L13.1619 12.5189C13.2869 12.3642 13.5887 12.2663 13.885 12.4235C14.2846 12.6375 14.793 12.97 15.1301 13.2716C15.3203 13.4186 15.3638 13.6428 15.2334 13.88Z" fill="white"/>
</svg>
