<svg width="24" height="24" viewBox="0 0 24 24" fill="none" xmlns="http://www.w3.org/2000/svg">
<circle cx="12" cy="12" r="12" fill="#2CA639"/>
<path d="M16.6233 7.31813C15.3888 6.08063 13.7447 5.4 11.9974 5.4C8.39102 5.4 5.45637 8.33464 5.45637 11.9411C5.45637 13.0931 5.75691 14.2187 6.32852 15.2116L5.40039 18.6L8.86834 17.6896C9.82298 18.2111 10.8984 18.4851 11.9945 18.4851H11.9974C15.6009 18.4851 18.6004 15.5504 18.6004 11.944C18.6004 10.1968 17.8579 8.55563 16.6233 7.31813ZM11.9974 17.3831C11.0192 17.3831 10.0616 17.1209 9.2278 16.6259L9.03039 16.508L6.97378 17.0472L7.52182 15.0407L7.39218 14.8345C6.84709 13.9682 6.56128 12.9694 6.56128 11.9411C6.56128 8.94455 9.00093 6.50491 12.0004 6.50491C13.453 6.50491 14.8172 7.07063 15.8425 8.09893C16.8679 9.12723 17.4984 10.4914 17.4955 11.944C17.4955 14.9435 14.994 17.3831 11.9974 17.3831ZM14.9792 13.3112C14.8172 13.2287 14.0128 12.8338 13.8625 12.7808C13.7123 12.7248 13.6032 12.6983 13.4942 12.8633C13.3852 13.0283 13.0729 13.3937 12.9757 13.5056C12.8814 13.6146 12.7841 13.6294 12.6221 13.5469C11.6616 13.0666 11.031 12.6895 10.3975 11.6022C10.2296 11.3135 10.5655 11.3341 10.8778 10.7095C10.9308 10.6004 10.9043 10.5062 10.8631 10.4237C10.8218 10.3412 10.4948 9.53679 10.3592 9.20973C10.2266 8.89152 10.0911 8.93572 9.99093 8.92982C9.89664 8.92393 9.78762 8.92393 9.6786 8.92393C9.56959 8.92393 9.3928 8.96518 9.24253 9.12723C9.09227 9.29223 8.67093 9.68706 8.67093 10.4914C8.67093 11.2958 9.25727 12.0737 9.33682 12.1827C9.41932 12.2917 10.4889 13.9417 12.13 14.6518C13.1672 15.0996 13.5738 15.1379 14.0924 15.0613C14.4076 15.0142 15.0588 14.6665 15.1943 14.2835C15.3299 13.9004 15.3299 13.5734 15.2886 13.5056C15.2503 13.432 15.1413 13.3907 14.9792 13.3112Z" fill="white"/>
</svg>
