<svg width="47" height="44" viewBox="0 0 47 44" fill="none" xmlns="http://www.w3.org/2000/svg">
<path d="M23.4759 41.9192C25.3509 41.9192 25.3509 39.3934 23.4759 39.3934C21.6009 39.3934 21.6009 41.9192 23.4759 41.9192ZM39.7884 32.4051H37.8196C35.9446 32.4051 34.4446 30.9737 34.4446 29.2898V24.0697H31.4446V35.1836L34.3509 37.7094C34.8196 37.541 35.3821 37.3727 35.9446 37.3727C39.2259 37.3727 40.8196 40.9089 38.5696 43.0138C37.0696 44.2767 34.8196 44.2767 33.4134 43.0138C32.1946 41.835 32.1009 40.3195 32.7571 39.1408L29.4759 36.2781C29.2884 36.1097 29.1946 35.8571 29.1946 35.5203V24.0697H24.6009V37.541C25.1634 37.7094 25.6321 37.962 26.1009 38.383C27.5071 39.6459 27.5071 41.6666 26.1009 43.0138C23.7571 45.0345 19.8196 43.6032 19.8196 40.6563C19.8196 39.1408 20.9446 37.962 22.3509 37.541V24.0697H17.7571V35.5203C17.7571 35.8571 17.6634 36.1097 17.4759 36.2781L14.1946 39.1408C14.4759 39.5617 14.6634 40.0669 14.6634 40.6563C14.6634 41.5825 14.1946 42.3402 13.5384 43.0138C12.8821 43.6032 11.9446 43.9399 11.0071 43.9399C7.72589 43.9399 6.13214 40.4037 8.38214 38.383C9.60089 37.2043 11.2884 37.1201 12.6009 37.7094L15.5071 35.1836V24.0697H12.5071V29.2898C12.5071 30.1318 12.1321 30.8895 11.5696 31.4789C11.0071 32.0683 10.0696 32.4051 9.13214 32.4051H7.16339C6.69464 33.668 5.28839 34.6784 3.69464 34.6784C0.225894 34.6784 -1.18036 30.8054 1.16339 28.953C3.41339 27.1849 6.41339 28.2795 7.16339 30.3844H9.13214C9.50714 30.3844 9.78839 30.216 9.97589 30.0476C10.1634 29.8792 10.2571 29.6266 10.2571 29.2898V24.0697H7.81964C7.16339 24.0697 6.69464 23.6487 6.69464 23.0593L6.97589 20.5334L0.507144 16.1552C0.0383944 15.8184 -0.149106 15.2291 0.132144 14.8081L3.88214 9.08276C4.16339 8.66178 4.81964 8.49339 5.28839 8.66178L12.6946 11.5244C14.1946 10.4299 15.8821 9.50374 17.6634 8.91437L18.6946 1.7577C18.6946 1.16833 19.2571 0.831543 19.8196 0.831543H27.1321C27.7884 0.831543 28.2571 1.25252 28.2571 1.7577L29.2884 8.91437C31.0696 9.50374 32.7571 10.4299 34.2571 11.5244L41.6634 8.66178C42.2259 8.40919 42.8821 8.66178 43.0696 9.16696L46.8196 14.8081C47.1009 15.3133 46.9134 15.8184 46.4446 16.1552L39.9759 20.5334L40.2571 23.0593C40.2571 23.6487 39.7884 24.0697 39.1321 24.0697H36.6946V29.2898C36.6946 29.8792 37.1634 30.3844 37.8196 30.3844H39.7884C40.5384 28.1111 43.8196 27.2691 45.8821 29.0372C47.2884 30.3002 47.2884 32.4051 45.8821 33.668C43.8196 35.5203 40.5384 34.5942 39.7884 32.4051ZM43.2571 32.6577C45.1321 32.6577 45.1321 30.1318 43.2571 30.1318C41.4759 30.1318 41.4759 32.6577 43.2571 32.6577ZM5.10089 31.3947V31.3105C5.10089 31.0579 4.91339 30.7212 4.63214 30.4686C3.31964 29.2898 1.35089 31.0579 2.66339 32.2367C3.69464 33.1628 5.00714 32.3209 5.10089 31.3947ZM9.97589 41.5825C10.5384 42.0034 11.3821 42.0034 11.9446 41.5825C13.2571 40.3195 11.2884 38.6356 9.97589 39.7301C9.41339 40.2353 9.41339 41.0773 9.97589 41.5825ZM35.9446 41.9192C37.8196 41.9192 37.8196 39.3934 35.9446 39.3934C34.7259 39.3934 34.0696 40.7405 35.0071 41.5825C35.1946 41.7508 35.5696 41.9192 35.9446 41.9192ZM23.4759 13.3768C29.1009 13.3768 33.6946 17.1656 34.2571 22.049H37.9134L37.6321 20.2808C37.5384 19.9441 37.7259 19.5231 38.1009 19.2705L44.3821 15.0607L41.6634 10.8509L34.5384 13.6293C34.0696 13.7977 33.6009 13.7135 33.2259 13.461C31.9134 12.2822 29.7571 11.1035 27.9759 10.6825C27.5071 10.5983 27.1321 10.2615 27.1321 9.84053L26.1946 2.85225H20.7571L19.8196 9.84053C19.8196 10.1773 19.5384 10.5141 19.0696 10.6825C17.1009 11.1877 15.2259 12.198 13.7259 13.461C13.3509 13.7135 12.8821 13.7977 12.5071 13.6293L5.28839 10.8509L2.56964 15.0607L8.75714 19.1863C9.69464 19.7757 9.13214 20.5334 9.03839 22.049H12.6946C13.2571 17.1656 17.8509 13.3768 23.4759 13.3768ZM29.5696 17.6708C24.5071 13.1242 15.8821 15.8184 14.9446 22.049H32.0071C31.7259 20.365 30.7884 18.7653 29.5696 17.6708Z" fill="white"/>
</svg>
