<svg width="48" height="48" viewBox="0 0 48 48" fill="none" xmlns="http://www.w3.org/2000/svg">
<g clip-path="url(#clip0_149_6646)">
<path d="M37.1781 26.3637V21.6364L34.1235 21.0546C33.9054 20.3127 33.6145 19.6 33.2435 18.9309L34.989 16.3564L31.6435 13.0109L29.069 14.7564C28.3854 14.3782 27.6726 14.0873 26.9381 13.8691L26.3563 10.8218H21.629L21.0472 13.8764C20.3054 14.0946 19.5926 14.3855 18.9235 14.7564L16.349 13.0109L13.0035 16.3564L14.749 18.9309C14.3781 19.6 14.0872 20.3127 13.869 21.0546L10.8145 21.6364V26.3637L13.8617 26.9455C14.0726 27.68 14.3708 28.3927 14.749 29.0764L13.0035 31.6509L16.349 34.9964L18.9235 33.2509C19.5999 33.6218 20.3054 33.92 21.0472 34.1309L21.629 37.1855H26.3563L26.9381 34.1382C27.6726 33.9273 28.3854 33.6291 29.069 33.2509L31.6435 34.9964L34.989 31.6509L33.2435 29.0764C33.6217 28.3927 33.9126 27.68 34.1308 26.9455L37.1781 26.3637ZM33.1126 31.4764L31.469 33.12L29.1272 31.5273L28.7272 31.7746C27.9285 32.2652 27.0571 32.626 26.1454 32.8437L25.6872 32.9527L25.1563 35.7309H22.8363L22.3054 32.9527L21.8545 32.8437C20.9381 32.6182 20.0726 32.2618 19.2799 31.7746L18.8799 31.5273L16.5381 33.12L14.8945 31.4764L16.4872 29.1346L16.2399 28.7346C15.7493 27.9359 15.3885 27.0645 15.1708 26.1527L15.0617 25.6946L12.2835 25.1637V22.8364L15.0617 22.3055L15.1708 21.8546C15.3963 20.9382 15.7526 20.0727 16.2399 19.28L16.4872 18.88L14.8945 16.5382L16.5381 14.8946L18.8799 16.4873L19.2799 16.24C20.0781 15.7535 20.9464 15.3929 21.8545 15.1709L22.3054 15.0618L22.8363 12.2837H25.1563L25.6872 15.0618L26.1454 15.1709C27.0472 15.3818 27.9126 15.7455 28.7272 16.24L29.1272 16.4873L31.469 14.8946L33.1126 16.5382L31.5199 18.88L31.7672 19.28C32.2537 20.0782 32.6143 20.9466 32.8363 21.8546L32.9454 22.3055L35.7235 22.8364V25.1564L32.9454 25.6873L32.8363 26.1455C32.6186 27.0572 32.2578 27.9286 31.7672 28.7273L31.5199 29.1273L33.1126 31.4764Z" fill="white"/>
<path d="M23.9999 18.9455C21.2072 18.9455 18.9381 21.2146 18.9381 24.0073C18.9381 26.8 21.2072 29.0691 23.9999 29.0691C26.7926 29.0691 29.0617 26.8 29.0617 24.0073C29.0617 21.2146 26.7926 18.9455 23.9999 18.9455ZM23.9999 27.6073C23.043 27.6075 22.1252 27.2275 21.4485 26.5511C20.7717 25.8746 20.3914 24.9569 20.3912 24C20.391 23.0431 20.7709 22.1253 21.4474 21.4486C22.1239 20.7718 23.0416 20.3915 23.9985 20.3913C24.4723 20.3912 24.9415 20.4844 25.3792 20.6657C25.817 20.8469 26.2148 21.1126 26.5499 21.4475C26.885 21.7825 27.1509 22.1802 27.3323 22.6179C27.5137 23.0556 27.6071 23.5248 27.6072 23.9986C27.6073 24.4724 27.514 24.9416 27.3328 25.3793C27.1516 25.8171 26.8859 26.2149 26.5509 26.55C26.216 26.8851 25.8183 27.151 25.3806 27.3324C24.9429 27.5138 24.4737 27.6072 23.9999 27.6073ZM2.15991 24.1964C2.15991 36.2473 11.9563 46.0437 23.9999 46.0437C25.0908 46.0437 26.1745 45.9637 27.229 45.8037L27.3817 46.64C27.4326 46.9091 27.6145 47.1273 27.869 47.2218L28.2981 47.36L34.5163 42.6837C34.7563 42.5091 34.8654 42.2255 34.8217 41.9346L34.7126 41.4546L27.1926 39.2728C26.9308 39.2 26.6545 39.2582 26.4508 39.44L26.1308 39.76L26.4145 41.3309C25.6145 41.44 24.8072 41.4982 23.9999 41.4982C14.4654 41.4982 6.70537 33.7382 6.70537 24.1964C6.70537 23.7309 6.72718 23.2582 6.76355 22.8L5.309 22.6837C5.27264 23.1782 5.25082 23.6873 5.25082 24.1964C5.25082 34.5382 13.6654 42.9528 23.9999 42.9528C25.1272 42.9528 26.269 42.8509 27.389 42.6473L28.109 42.5164L27.8254 40.9673L32.5526 42.3346L28.6181 45.2946L28.4072 44.1091L27.6872 44.24C26.4945 44.4655 25.2581 44.5746 24.0072 44.5746C12.7635 44.5746 3.62173 35.4255 3.62173 24.1818C3.62173 23.7164 3.63628 23.2437 3.67264 22.7782L2.21809 22.6764C2.17446 23.1855 2.15991 23.6946 2.15991 24.1964ZM4.15264 15.0618L5.47628 15.6727C5.88355 14.7855 6.36355 13.9128 6.90173 13.0909L5.67991 12.2909C5.10537 13.1782 4.59628 14.1091 4.15264 15.0618ZM2.50173 20.3346L3.93446 20.5891C4.109 19.6218 4.349 18.6618 4.66173 17.7309L3.27991 17.2728C2.94537 18.2691 2.68355 19.2946 2.50173 20.3346ZM8.21082 11.2946C8.50173 10.9382 8.81446 10.5818 9.13446 10.24L8.07264 9.24366C7.73082 9.6073 7.39628 9.99275 7.08355 10.3709L8.21082 11.2946ZM10.4726 13.4109C10.7635 13.0473 11.069 12.6909 11.389 12.3564L10.3272 11.36C9.98537 11.7237 9.65082 12.1091 9.33809 12.5018L10.4726 13.4109ZM8.269 16.9891C8.60355 16.2618 8.989 15.5491 9.42537 14.8728L8.20355 14.0873C7.73082 14.8218 7.31628 15.5928 6.95264 16.3782L8.269 16.9891ZM5.56355 20.7346L6.99628 21.0037C7.14173 20.2182 7.34537 19.4327 7.59991 18.6764L6.21809 18.2109C5.949 19.0327 5.72355 19.8837 5.56355 20.7346ZM45.8399 24.1964C45.8399 12.1528 36.0435 2.34912 23.9999 2.34912C23.2654 2.34912 22.5308 2.38548 21.8108 2.45821L21.6726 1.40366C21.6363 1.13457 21.469 0.909115 21.2145 0.792751L20.7926 0.632751L14.3635 4.98912C14.1163 5.15639 13.9854 5.44002 14.029 5.73821L14.1235 6.22548L21.4981 8.77093C21.7526 8.85821 22.0363 8.81457 22.2472 8.64002L22.5817 8.33457L22.3999 6.95275C22.9308 6.90184 23.4617 6.88002 23.9926 6.88002C33.5272 6.88002 41.2872 14.64 41.2872 24.1746C41.2872 24.5237 41.2799 24.8728 41.2581 25.2218L42.7126 25.3091C42.7345 24.9309 42.7417 24.5528 42.7417 24.1746C42.749 13.8546 34.3417 5.44002 23.9999 5.44002C23.1636 5.44002 22.3199 5.49821 21.4908 5.6073L20.7781 5.70184L20.9526 7.0473L16.2981 5.44002L20.3781 2.67639L20.5599 4.07275L21.2872 3.97821C22.1745 3.86184 23.0908 3.79639 24.0072 3.79639C35.2508 3.79639 44.3926 12.9455 44.3926 24.1818C44.3926 24.6546 44.3781 25.1273 44.349 25.5855L45.8035 25.68C45.8254 25.2 45.8399 24.6982 45.8399 24.1964ZM44.3054 32.2764L42.9526 31.7382C42.6399 32.5164 42.2763 33.2873 41.8763 34.0218L43.149 34.7273C43.5854 33.9346 43.9781 33.1055 44.3054 32.2764ZM45.5635 27.7164L44.1308 27.4837C43.9999 28.3127 43.8108 29.1418 43.5781 29.9491L44.9745 30.3564C45.2217 29.4909 45.4181 28.6037 45.5635 27.7164ZM42.0872 36.4509L40.8799 35.6364C40.6183 36.0252 40.3418 36.4036 40.0508 36.7709L41.1926 37.6655C41.5054 37.2728 41.8035 36.8655 42.0872 36.4509ZM37.6217 34.8582L38.7635 35.7528C38.9963 35.4546 39.2217 35.1491 39.4399 34.8437L38.2472 34.0146C38.0435 34.3055 37.8399 34.5818 37.6217 34.8582ZM41.3817 31.2728L40.0363 30.7273C39.8035 31.3018 39.5345 31.8764 39.229 32.4218L40.509 33.12C40.829 32.5164 41.1272 31.8909 41.3817 31.2728ZM42.4945 27.3528L41.0617 27.1127C40.9599 27.7309 40.8217 28.3491 40.6472 28.9455L42.0435 29.3382C42.2254 28.6909 42.3781 28.0291 42.4945 27.3528Z" fill="white"/>
</g>
<defs>
<clipPath id="clip0_149_6646">
<rect width="48" height="48" fill="white"/>
</clipPath>
</defs>
</svg>
