<svg width="48" height="42" viewBox="0 0 48 42" fill="none" xmlns="http://www.w3.org/2000/svg">
<path d="M10.1904 33.5381C9.52378 33.3728 8.85788 33.2576 8.19356 33.1832C9.22763 32.4749 9.93066 31.0992 9.93066 29.5213C9.93066 27.4014 8.65528 26.0845 6.60253 26.0845C4.54978 26.0845 3.27488 27.4014 3.27488 29.5213C3.27488 31.0965 3.97556 32.4699 5.00653 33.1792C4.33613 33.2532 3.66975 33.3698 3.00966 33.5395C1.06884 34.0389 0 35.1178 0 36.5782V40.4017C0.00289252 40.5718 0.0725048 40.734 0.193837 40.8533C0.315169 40.9726 0.478507 41.0394 0.648656 41.0394C0.818805 41.0394 0.982144 40.9726 1.10348 40.8533C1.22481 40.734 1.29442 40.5718 1.29731 40.4017V36.5782C1.29731 35.5378 2.40413 35.0349 3.33319 34.7959C5.46328 34.2482 7.66594 34.2486 9.87797 34.7972C10.6364 34.9856 11.9084 35.467 11.9084 36.5783V40.4018C11.9113 40.5719 11.9809 40.7341 12.1022 40.8534C12.2236 40.9726 12.3869 41.0395 12.5571 41.0395C12.7272 41.0395 12.8906 40.9726 13.0119 40.8534C13.1332 40.7341 13.2028 40.5719 13.2057 40.4018V36.5783C13.2056 35.1217 12.1064 34.0136 10.1904 33.5381ZM6.60263 27.3818C7.52916 27.3818 8.63344 27.7529 8.63344 29.5213C8.63344 31.0788 7.70353 32.3944 6.60263 32.3944C5.50209 32.3944 4.57219 31.0787 4.57219 29.5213C4.57219 27.753 5.67656 27.3818 6.60263 27.3818ZM27.5874 33.5381C26.9209 33.3728 26.2551 33.2575 25.5911 33.1832C26.6251 32.4749 27.3281 31.0992 27.3281 29.5214C27.3281 27.4015 26.0528 26.0846 24 26.0846C21.9473 26.0846 20.6719 27.4015 20.6719 29.5214C20.6719 31.0965 21.3726 32.4699 22.4036 33.1792C21.7335 33.2532 21.0671 33.3699 20.4071 33.5396C18.4662 34.0387 17.3974 35.1179 17.3974 36.5782V40.4017C17.4003 40.5718 17.4699 40.734 17.5912 40.8533C17.7125 40.9726 17.8759 41.0394 18.046 41.0394C18.2162 41.0394 18.3795 40.9726 18.5009 40.8533C18.6222 40.734 18.6918 40.5718 18.6947 40.4017V36.5782C18.6947 35.5378 19.8015 35.0347 20.7306 34.7959C22.8602 34.2484 25.0625 34.2484 27.2749 34.7972C28.0333 34.9856 29.3053 35.467 29.3053 36.5783V40.4018C29.3082 40.5719 29.3778 40.7341 29.4992 40.8534C29.6205 40.9726 29.7838 41.0395 29.954 41.0395C30.1241 41.0395 30.2875 40.9726 30.4088 40.8534C30.5301 40.7341 30.5997 40.5719 30.6026 40.4018V36.5783C30.6026 35.1217 29.5034 34.0136 27.5874 33.5381ZM24 27.3818C24.9265 27.3818 26.0308 27.7529 26.0308 29.5213C26.0308 31.0788 25.1009 32.3944 24 32.3944C22.8991 32.3944 21.9692 31.0787 21.9692 29.5213C21.9692 27.753 23.0735 27.3818 24 27.3818ZM44.9848 33.5381C44.3182 33.3728 43.6523 33.2576 42.9881 33.1832C44.0221 32.4749 44.7251 31.0992 44.7251 29.5213C44.7251 27.4014 43.4502 26.0845 41.3975 26.0845C39.3447 26.0845 38.0693 27.4014 38.0693 29.5213C38.0693 31.0965 38.77 32.4698 39.8012 33.1792C39.1308 33.2532 38.4643 33.3698 37.8041 33.5395C35.8632 34.0389 34.7944 35.1178 34.7944 36.5781V40.4016C34.7973 40.5717 34.8669 40.7339 34.9882 40.8532C35.1096 40.9725 35.2729 41.0393 35.443 41.0393C35.6132 41.0393 35.7765 40.9725 35.8979 40.8532C36.0192 40.7339 36.0888 40.5717 36.0917 40.4016V36.5781C36.0917 35.5377 37.1985 35.0348 38.1276 34.7958C40.2585 34.2481 42.4603 34.2485 44.6723 34.7971C45.4308 34.9855 46.7028 35.4669 46.7028 36.5782V40.4017C46.701 40.488 46.7164 40.5738 46.7482 40.6541C46.78 40.7343 46.8275 40.8074 46.8879 40.8691C46.9484 40.9308 47.0205 40.9798 47.1001 41.0132C47.1796 41.0467 47.2651 41.0639 47.3514 41.0639C47.4378 41.0639 47.5232 41.0466 47.6028 41.0132C47.6824 40.9797 47.7545 40.9307 47.8149 40.869C47.8753 40.8074 47.9228 40.7342 47.9546 40.654C47.9864 40.5737 48.0018 40.4879 48 40.4016V36.5781C48 35.1217 46.9008 34.0136 44.9848 33.5381ZM41.3974 27.3818C42.3234 27.3818 43.4278 27.7529 43.4278 29.5213C43.4278 31.0788 42.4979 32.3944 41.3974 32.3944C40.2965 32.3944 39.3666 31.0787 39.3666 29.5213C39.3666 27.753 40.4708 27.3818 41.3974 27.3818ZM20.6068 24.0496C20.6097 24.2197 20.6793 24.3819 20.8007 24.5012C20.922 24.6205 21.0853 24.6873 21.2555 24.6873C21.4256 24.6873 21.589 24.6205 21.7103 24.5012C21.8316 24.3819 21.9012 24.2197 21.9041 24.0496C21.9041 22.5931 20.8049 21.485 18.8889 21.0095C18.2223 20.8442 17.5564 20.729 16.8923 20.6546C17.9266 19.9465 18.6297 18.5707 18.6297 16.9928C18.6297 14.8728 17.3543 13.5559 15.3016 13.5559C13.2488 13.5559 11.9735 14.8728 11.9735 16.9928C11.9735 18.568 12.6743 19.9414 13.7056 20.6506C13.0353 20.7247 12.3689 20.8412 11.7091 21.0109C9.76781 21.5098 8.6985 22.589 8.6985 24.0495C8.70139 24.2196 8.77101 24.3818 8.89234 24.5011C9.01367 24.6204 9.17701 24.6872 9.34716 24.6872C9.51731 24.6872 9.68064 24.6204 9.80198 24.5011C9.92331 24.3818 9.99292 24.2196 9.99581 24.0495C9.99581 23.009 11.1031 22.506 12.0322 22.2672C14.1618 21.7191 16.3632 21.7197 18.5765 22.2687C19.3349 22.457 20.6068 22.9384 20.6068 24.0496ZM15.3015 14.8533C16.228 14.8533 17.3323 15.2245 17.3323 16.9929C17.3323 18.5501 16.4024 19.8657 15.3015 19.8657C14.2006 19.8657 13.2707 18.5501 13.2707 16.9929C13.2707 15.2245 14.375 14.8533 15.3015 14.8533ZM38.0042 24.0496C38.0071 24.2197 38.0767 24.3819 38.198 24.5012C38.3194 24.6205 38.4827 24.6873 38.6528 24.6873C38.823 24.6873 38.9863 24.6205 39.1077 24.5012C39.229 24.3819 39.2986 24.2197 39.3015 24.0496C39.3015 22.5931 38.2023 21.4852 36.2858 21.0095C35.619 20.8443 34.9532 20.729 34.2892 20.6547C35.3235 19.9466 36.0266 18.5708 36.0266 16.9928C36.0266 14.8728 34.7513 13.5559 32.6985 13.5559C30.6458 13.5559 29.3704 14.8728 29.3704 16.9928C29.3704 18.568 30.0712 19.9413 31.1024 20.6506C30.4321 20.7247 29.7658 20.8412 29.106 21.011C27.1647 21.5097 26.0959 22.5889 26.0959 24.0496C26.0988 24.2197 26.1684 24.3819 26.2897 24.5012C26.411 24.6205 26.5744 24.6873 26.7445 24.6873C26.9147 24.6873 27.078 24.6205 27.1994 24.5012C27.3207 24.3819 27.3903 24.2197 27.3932 24.0496C27.3932 23.0091 28.5 22.5061 29.4291 22.2673C31.5592 21.7192 33.7614 21.7198 35.9734 22.2688C36.7318 22.457 38.0042 22.9386 38.0042 24.0496ZM32.6985 14.8533C33.625 14.8533 34.7293 15.2245 34.7293 16.9929C34.7293 18.5501 33.7994 19.8657 32.6985 19.8657C31.5976 19.8657 30.6677 18.5501 30.6677 16.9929C30.6677 15.2245 31.772 14.8533 32.6985 14.8533ZM18.0456 12.0921C18.2176 12.0921 18.3826 12.0237 18.5042 11.9021C18.6258 11.7804 18.6942 11.6155 18.6942 11.4434C18.6942 10.4029 19.8015 9.89993 20.7306 9.66115C22.8598 9.11318 25.0621 9.11346 27.2749 9.66264C28.0333 9.85061 29.3053 10.332 29.3053 11.4434C29.3082 11.6136 29.3778 11.7757 29.4992 11.895C29.6205 12.0143 29.7838 12.0811 29.954 12.0811C30.1241 12.0811 30.2875 12.0143 30.4088 11.895C30.5301 11.7757 30.5997 11.6136 30.6026 11.4434C30.6026 9.98646 29.5034 8.87861 27.5874 8.4033C26.9207 8.23802 26.2549 8.1228 25.5908 8.04846C26.625 7.34027 27.3281 5.96458 27.3281 4.38668C27.3281 2.26671 26.0528 0.949801 24 0.949801C21.9473 0.949801 20.6719 2.26671 20.6719 4.38668C20.6719 5.96186 21.3727 7.3353 22.404 8.04452C21.7337 8.11858 21.0673 8.23511 20.4075 8.4048C18.4662 8.90374 17.3969 9.98289 17.3969 11.4434C17.3969 11.6155 17.4653 11.7804 17.5869 11.9021C17.7086 12.0237 17.8735 12.0921 18.0456 12.0921ZM24 2.24702C24.9265 2.24702 26.0308 2.61818 26.0308 4.38658C26.0308 5.94377 25.1009 7.25946 24 7.25946C22.8991 7.25946 21.9692 5.94377 21.9692 4.38658C21.9692 2.61827 23.0735 2.24702 24 2.24702ZM44.9848 8.4033C44.3183 8.23802 43.6523 8.12271 42.9882 8.04836C44.0221 7.34008 44.7251 5.96449 44.7251 4.38658C44.7251 2.26661 43.4502 0.949707 41.3975 0.949707C39.3447 0.949707 38.0693 2.26661 38.0693 4.38658C38.0693 5.96168 38.77 7.33493 39.8011 8.04433C39.1307 8.11839 38.4642 8.23502 37.8041 8.4048C35.8632 8.90421 34.7944 9.98336 34.7944 11.4434C34.7973 11.6136 34.8669 11.7757 34.9882 11.895C35.1096 12.0143 35.2729 12.0811 35.443 12.0811C35.6132 12.0811 35.7765 12.0143 35.8979 11.895C36.0192 11.7757 36.0888 11.6136 36.0917 11.4434C36.0917 10.4031 37.1985 9.90011 38.1276 9.66115C40.2577 9.11299 42.4603 9.11383 44.6723 9.66246C45.4308 9.8508 46.7028 10.3322 46.7028 11.4435V15.2668C46.7057 15.437 46.7753 15.5991 46.8966 15.7184C47.018 15.8377 47.1813 15.9046 47.3514 15.9046C47.5216 15.9046 47.6849 15.8377 47.8063 15.7184C47.9276 15.5991 47.9972 15.437 48.0001 15.2668V11.4435C48 9.98693 46.9008 8.8788 44.9848 8.4033ZM41.3974 2.24702C42.3234 2.24702 43.4278 2.61818 43.4278 4.38658C43.4278 5.94405 42.4979 7.25964 41.3974 7.25964C40.2965 7.25964 39.3666 5.94396 39.3666 4.38658C39.3666 2.61827 40.4708 2.24702 41.3974 2.24702ZM0.648656 15.9154C0.820683 15.9154 0.985657 15.847 1.1073 15.7254C1.22894 15.6037 1.29729 15.4388 1.29731 15.2667V11.4434C1.29731 10.4031 2.40413 9.90011 3.33319 9.66115C5.46328 9.11299 7.66509 9.11383 9.87797 9.66246C10.6364 9.8508 11.9084 10.3322 11.9084 11.4435C11.9113 11.6136 11.9809 11.7758 12.1022 11.8951C12.2236 12.0144 12.3869 12.0812 12.5571 12.0812C12.7272 12.0812 12.8906 12.0144 13.0119 11.8951C13.1332 11.7758 13.2028 11.6136 13.2057 11.4435C13.2057 9.98702 12.1065 8.87889 10.1905 8.40339C9.52369 8.23811 8.85788 8.1228 8.19384 8.04855C9.22781 7.34027 9.93084 5.96458 9.93084 4.38677C9.93084 2.2668 8.65547 0.949894 6.60272 0.949894C4.54997 0.949894 3.27506 2.2668 3.27506 4.38677C3.27506 5.96196 3.97575 7.33521 5.00672 8.04461C4.33631 8.11868 3.66994 8.2353 3.00984 8.40499C1.06884 8.90411 0 9.98336 0 11.4434V15.2667C2.48576e-05 15.4388 0.0683732 15.6037 0.190014 15.7254C0.311656 15.847 0.47663 15.9154 0.648656 15.9154ZM6.60263 2.24702C7.52916 2.24702 8.63344 2.61818 8.63344 4.38658C8.63344 5.94405 7.70353 7.25964 6.60263 7.25964C5.50209 7.25964 4.57219 5.94396 4.57219 4.38658C4.57219 2.61827 5.67656 2.24702 6.60263 2.24702Z" fill="white"/>
</svg>
