<svg width="80" height="80" viewBox="0 0 80 80" fill="none" xmlns="http://www.w3.org/2000/svg">
<path fill-rule="evenodd" clip-rule="evenodd" d="M30.8396 27.2715C29.9184 27.7641 28.5842 27.8553 28.1681 28.058C26.661 28.8265 24.4487 30.9867 23.4557 32.4161C22.874 33.4202 22.2781 36.6732 22.3792 38.288C22.4021 38.8316 23.1083 39.6938 23.3076 40.3516L23.3037 40.3563C21.5015 39.7247 21.2521 38.6929 19.5714 39.4914C18.6473 39.8056 17.6407 40.1113 16.9424 40.7076C15.4869 42.1629 15.8946 43.2532 13.7778 43.1021C12.3253 43.002 10.9166 42.3562 9.46266 42.2989C6.95466 42.2545 5.82975 43.275 6.18143 45.7814C6.46586 48.6162 7.14322 49.8879 7.67514 51.4473C8.61277 53.9675 7.76485 55.8928 7.94181 58.2877C7.80109 58.5091 7.49575 59.0277 7.41967 59.1574C4.1794 60.5156 -1.4366 63.5054 4.273 66.346C4.76106 66.6248 5.20706 66.8923 5.43172 67.4443C5.4761 69.78 1.78596 75.4237 7.20063 74.1069C9.27671 73.5595 10.168 71.551 12.0307 70.8525C14.6415 69.9 19.9272 70.1654 22.7311 70.3507C23.9543 70.5124 24.9372 71.0536 26.1092 71.3684C27.5148 71.7291 28.8856 71.8652 30.1247 72.1529C30.9379 72.3407 31.7167 72.5957 32.4964 73.0269C33.8848 74.0049 35.1768 74.7777 36.6604 75.2802C37.2119 75.4731 37.5452 75.807 38.0592 76.0889C38.5084 76.2341 38.8298 75.8249 39.241 75.653C39.9862 75.2681 40.7617 75.0203 41.5889 74.9381C45.8671 74.461 44.7312 79.1733 48.6335 75.3306C48.9425 75.0944 49.2667 74.8792 49.681 74.9897C50.3045 75.3945 50.3251 76.2424 50.7113 76.908C51.9443 79.1659 53.3977 76.7673 53.8558 76.8476C59.2862 76.1862 58.0216 76.0457 59.9838 78.5474C60.6412 79.4395 61.1922 78.9029 61.7931 78.5255C65.0552 75.69 60.1326 73.5582 62.9198 69.3091C63.9008 67.1568 68.0022 68.1371 69.957 67.0663C72.2676 66.3567 70.4846 65.1917 70.0368 64.0471C70.0368 63.4358 70.5107 62.7472 70.2947 62.1212C69.2401 59.0128 69.3245 60.36 69.5187 57.9885C69.5048 56.6992 68.3209 56.2457 67.4204 55.691C65.6597 54.8751 67.2809 53.6852 67.724 53.7296C69.7928 54.1088 70.5764 55.7335 72.6654 54.9138C73.7266 54.5581 74.5036 53.807 75.3785 53.0846C77.6797 51.3944 79.2809 50.5908 77.0344 47.9649C73.2101 43.3303 73.2993 45.1764 71.1207 44.7253C71.0752 43.9945 71.4333 43.1601 71.1172 42.4279C69.4799 39.9812 67.461 41.0787 65.8487 38.1417C64.3814 36.2918 65.3075 35.6236 64.9921 34.111C64.6375 32.684 62.9668 32.5004 62.7279 31.6273C62.6737 28.9896 64.0606 28.2348 62.6423 25.9784C62.3376 24.4285 63.245 22.6649 62.0387 21.4687C61.5478 20.9893 57.8161 18.8958 56.3144 18.6489C54.613 18.3934 53.6555 21.5069 52.1014 19.8902C51.427 18.8276 51.3389 17.3709 50.2999 16.6344C48.174 15.2871 47.0568 18.528 46.0804 17.173C45.3 16.3857 44.6146 15.6307 43.5988 15.2645C39.877 14.1563 38.5206 18.2282 36.3772 19.0581C34.7115 19.7841 32.7713 19.762 31.4311 20.6245C29.2592 21.8719 28.208 26.0417 30.8396 27.2715ZM56.1018 19.8839C56.9935 20.0678 58.7516 20.9208 59.8665 21.536C62.0919 22.6098 61.3682 23.1273 61.3244 25.4132C61.3093 25.8849 61.4029 26.3477 61.6445 26.8007C62.8319 28.4626 60.7707 30.5413 61.6816 32.3683C61.8968 32.7691 62.2163 33.0563 62.6065 33.3403C65.0836 34.6923 62.8148 35.8692 64.3055 38.0859C66.7412 41.9073 67.306 40.9908 69.4982 42.4342C70.3994 42.9765 69.8074 43.7691 69.866 44.6399C69.8874 45.1667 70.0621 45.5464 70.452 45.7823C73.8159 46.802 72.2732 44.4206 75.75 48.3698C77.5563 50.4347 76.9284 50.3942 75.1784 51.6599C73.7568 52.6542 72.2426 54.7021 70.3885 53.4966C66.0002 50.663 65.1282 54.8046 65.3528 55.2626C65.6619 56.4027 67.1229 56.8406 67.9994 57.5217C68.6949 58.1514 67.7698 59.7549 68.383 60.6198C70.1836 64.1909 67.4855 62.987 69.6809 65.8366C67.2344 66.826 65.7445 66.2688 63.5726 67.0697C62.358 67.5211 61.8784 68.5157 61.3296 69.7094C59.3945 73.8165 63.3113 76.1534 60.8618 77.6469C59.5767 75.9134 59.2224 74.8731 56.9542 75.2479C52.6178 75.6735 53.4215 75.5906 51.9852 76.597C51.0667 74.6877 50.597 72.8779 48.2561 74.0798C47.5087 74.4963 46.8182 75.4829 46.2498 75.5992C45.7421 75.318 45.1502 74.5373 44.627 74.222C42.6938 73.2269 40.1484 73.654 38.3026 74.7422C37.3667 74.1317 36.3448 73.8413 35.3635 73.3855C33.3644 72.2025 32.8847 71.5975 31.1611 71.1557C29.8793 70.7873 28.5488 70.6306 27.0779 70.3125C25.4602 70.0045 24.2288 69.2485 22.6447 69.0843C19.7558 68.9098 14.051 68.7069 11.4573 69.7356C8.86503 70.8179 8.41623 73.2034 5.52836 73.0091C5.47391 71.8538 6.03556 70.3935 6.37543 69.184C8.35756 64.5189 0.866578 65.3279 3.77666 62.6257C5.96058 60.7896 8.1422 60.5827 8.54415 59.7368C8.84282 59.1878 9.06034 58.9869 9.20596 58.549C9.14898 57.6064 9.15156 56.7057 9.25298 55.8257C9.72738 52.3517 8.70783 50.8214 7.99586 48.639C6.87719 44.1704 6.96839 43.1319 10.3695 43.6698C17.2484 45.5509 16.0934 43.004 17.9346 41.5148C18.7287 40.9688 19.779 40.7789 20.6282 40.4401C21.4524 40.6682 22.1623 41.4726 23.123 41.5929C25.4682 41.5003 24.3557 39.4213 23.635 38.254C23.493 36.8813 24.0208 34.3421 24.489 33.0985C29.3154 27.1166 29.8184 29.9996 32.0849 27.8633C32.4528 27.4141 32.3649 26.7974 31.86 26.4412C31.3852 26.0803 30.8611 25.9601 30.617 25.3415C30.2212 24.161 31.1009 22.2892 31.9795 21.7806C33.6003 20.705 36.0968 20.9668 37.8827 19.6213C39.6253 18.3822 40.7778 15.7443 43.2004 16.4428C44.4505 16.8825 45.0956 18.3408 46.1643 18.7268C47.3499 19.1114 48.2658 17.7962 49.2168 17.5648C50.7528 17.499 50.1866 22.9012 54.2163 21.3055C54.894 20.9684 55.2346 20.2561 56.1018 19.8839V19.8839Z" fill="white"/>
<path d="M35.6585 46.768C34.8185 46.768 34.3985 46.99 34.3985 47.434V50.908C34.3985 51.244 34.5725 51.412 34.9205 51.412C35.7485 51.412 36.4085 51.37 36.9005 51.286C37.4045 51.202 37.7885 51.07 38.0525 50.89C38.3285 50.698 38.5085 50.458 38.5925 50.17C38.6765 49.87 38.7185 49.51 38.7185 49.09C38.7185 47.542 37.9325 46.768 36.3605 46.768H35.6585ZM38.0345 51.628C39.0065 51.772 39.7865 52.09 40.3745 52.582C40.9625 53.074 41.2565 53.734 41.2565 54.562C41.2565 55.21 41.1485 55.762 40.9325 56.218C40.7165 56.662 40.4165 57.022 40.0325 57.298C39.6605 57.574 39.2105 57.772 38.6825 57.892C38.1665 58.012 37.6085 58.072 37.0085 58.072C36.0125 58.072 35.0345 58.06 34.0745 58.036C33.1265 58.012 32.0765 58 30.9245 58V57.46C32.0645 57.46 32.6345 57.124 32.6345 56.452V47.884C32.6345 47.044 32.0405 46.624 30.8525 46.624V46.066H36.0545C36.6905 46.066 37.2785 46.12 37.8185 46.228C38.3705 46.324 38.8445 46.486 39.2405 46.714C39.6365 46.93 39.9485 47.218 40.1765 47.578C40.4045 47.926 40.5185 48.358 40.5185 48.874C40.5185 49.27 40.4585 49.612 40.3385 49.9C40.2185 50.176 40.0445 50.422 39.8165 50.638C39.6005 50.842 39.3365 51.016 39.0245 51.16C38.7245 51.304 38.3945 51.436 38.0345 51.556V51.628ZM36.4865 57.388C36.8945 57.388 37.2725 57.346 37.6205 57.262C37.9685 57.166 38.2685 57.016 38.5205 56.812C38.7845 56.596 38.9885 56.326 39.1325 56.002C39.2765 55.666 39.3485 55.258 39.3485 54.778C39.3485 54.214 39.2585 53.758 39.0785 53.41C38.9105 53.062 38.6585 52.792 38.3225 52.6C37.9985 52.408 37.6025 52.282 37.1345 52.222C36.6665 52.15 36.1445 52.114 35.5685 52.114H34.9205C34.5725 52.114 34.3985 52.342 34.3985 52.798V56.686C34.3985 57.154 34.8305 57.388 35.6945 57.388H36.4865ZM44.296 58V57.46C45.52 57.46 46.132 57.184 46.132 56.632V53.122L43.126 48.136C42.514 47.128 41.854 46.624 41.146 46.624V46.066H46.06V46.624C45.196 46.624 44.764 46.828 44.764 47.236C44.764 47.332 44.788 47.422 44.836 47.506C44.884 47.59 44.956 47.71 45.052 47.866L47.59 52.114L49.912 47.938C49.948 47.818 49.978 47.692 50.002 47.56C50.026 47.428 50.038 47.296 50.038 47.164C50.038 46.804 49.558 46.624 48.598 46.624V46.066H52.774V46.624C52.15 46.624 51.676 46.852 51.352 47.308L47.986 53.068V56.704C47.986 57.208 48.58 57.46 49.768 57.46V58H44.296Z" fill="white"/>
</svg>
