<svg width="32" height="32" viewBox="0 0 32 32" fill="none" xmlns="http://www.w3.org/2000/svg">
<path d="M27.3132 4.68749C24.2981 1.7593 20.2519 0.135056 16.0491 0.165772C11.8462 0.196488 7.82425 1.8797 4.85231 4.85164C1.88037 7.82358 0.197159 11.8456 0.166443 16.0484C0.135728 20.2513 1.75997 24.2974 4.68816 27.3125C6.73264 29.3546 9.29133 30.8058 12.0933 31.5123C14.8952 32.2189 17.836 32.1546 20.6044 31.3262C20.9996 31.2057 21.331 30.9335 21.526 30.5693C21.7211 30.205 21.7639 29.7784 21.6452 29.3826C21.5264 28.9869 21.2558 28.6543 20.8924 28.4576C20.529 28.2609 20.1026 28.2161 19.7063 28.3331C18.5041 28.6933 17.2557 28.8758 16.0007 28.875C8.90128 28.875 3.12566 23.0994 3.12566 16C3.12566 8.90061 8.90128 3.12499 16.0007 3.12499C23.1 3.12499 28.8757 8.90061 28.8757 16C28.8801 18.5096 28.1478 20.9653 26.7694 23.0625C26.5479 23.4088 26.4717 23.8284 26.5575 24.2304C26.6432 24.6324 26.8839 24.9845 27.2274 25.2102C27.5709 25.436 27.9896 25.5173 28.3926 25.4366C28.7957 25.3558 29.1507 25.1194 29.3807 24.7787C31.3976 21.7024 32.2932 18.0251 31.9166 14.3658C31.5401 10.7065 29.9144 7.28862 27.3132 4.68749Z" fill="#B12929"/>
<path d="M14.4385 8.37497V18.3125C14.4385 18.7269 14.6031 19.1243 14.8961 19.4173C15.1891 19.7104 15.5866 19.875 16.001 19.875C16.4154 19.875 16.8128 19.7104 17.1058 19.4173C17.3989 19.1243 17.5635 18.7269 17.5635 18.3125V8.37497C17.5635 7.96057 17.3989 7.56314 17.1058 7.27011C16.8128 6.97709 16.4154 6.81247 16.001 6.81247C15.5866 6.81247 15.1891 6.97709 14.8961 7.27011C14.6031 7.56314 14.4385 7.96057 14.4385 8.37497ZM16.001 25.1875C15.6919 25.1875 15.3899 25.0958 15.1329 24.9241C14.8759 24.7525 14.6757 24.5084 14.5574 24.2229C14.4392 23.9374 14.4082 23.6232 14.4685 23.3201C14.5288 23.017 14.6776 22.7386 14.8961 22.5201C15.1146 22.3016 15.3931 22.1528 15.6961 22.0925C15.9992 22.0322 16.3134 22.0631 16.5989 22.1814C16.8844 22.2997 17.1285 22.4999 17.3001 22.7569C17.4718 23.0138 17.5635 23.3159 17.5635 23.625C17.5635 24.0394 17.3989 24.4368 17.1058 24.7298C16.8128 25.0229 16.4154 25.1875 16.001 25.1875Z" fill="#B12929"/>
</svg>
