<svg width="264" height="37" viewBox="0 0 264 37" fill="none" xmlns="http://www.w3.org/2000/svg">
<path d="M87.7472 27.8002V9.19766H85.8584C84.9173 9.19766 84.1727 9.43291 83.6234 9.90244C83.0732 10.373 82.7981 11.2022 82.7981 12.3911H82V10.129C82 9.77413 82.0622 9.43291 82.1866 9.10433C82.3101 8.77672 82.5366 8.51037 82.8652 8.30622C83.1928 8.10208 83.6594 8 84.2621 8H97.7406V9.19766H91.207V27.7992H87.7472V27.8002Z" fill="#282828"/>
<path d="M101.093 28.0659C99.8503 28.0659 98.7683 27.7821 97.8458 27.2144C96.9232 26.6466 96.2136 25.8709 95.7168 24.8861C95.2201 23.9014 94.9722 22.7883 94.9722 21.5459C94.9722 20.1266 95.2288 18.9338 95.744 17.9665C96.2583 17.0003 96.9592 16.2682 97.8467 15.7715C98.7333 15.2747 99.7268 15.0259 100.827 15.0259C101.927 15.0259 102.92 15.2475 103.808 15.6908C104.694 16.1341 105.395 16.7553 105.91 17.5534C106.425 18.3515 106.682 19.2828 106.682 20.3473L106.575 22.0242H98.5651C98.5651 23.7808 98.8354 25.0271 99.3769 25.763C99.9174 26.4998 100.623 26.8673 101.492 26.8673C102.415 26.8673 103.164 26.6544 103.741 26.2286C104.317 25.8028 104.836 25.2798 105.297 24.6586L106.122 25.2711C105.874 25.6619 105.541 26.074 105.124 26.5086C104.707 26.9431 104.174 27.3116 103.528 27.6129C102.879 27.9152 102.068 28.0659 101.093 28.0659ZM98.5642 20.8275H103.088C103.088 19.0709 102.879 17.8645 102.463 17.2083C102.046 16.5521 101.501 16.2235 100.826 16.2235C100.435 16.2235 100.068 16.3655 99.722 16.6493C99.3759 16.9332 99.0969 17.4076 98.884 18.0735C98.6711 18.7384 98.5642 19.6571 98.5642 20.8275Z" fill="#282828"/>
<path d="M144.949 28.0659C143.636 28.0659 142.501 27.7782 141.543 27.2007C140.585 26.6243 139.848 25.8398 139.334 24.8453C138.819 23.8518 138.562 22.7523 138.562 21.5459C138.562 20.322 138.819 19.2177 139.334 18.2329C139.848 17.2481 140.585 16.4675 141.543 15.8911C142.5 15.3146 143.636 15.0259 144.949 15.0259C146.28 15.0259 147.419 15.3146 148.369 15.8911C149.318 16.4675 150.05 17.2481 150.564 18.2329C151.078 19.2177 151.336 20.322 151.336 21.5459C151.336 22.7523 151.078 23.8528 150.564 24.8453C150.049 25.8388 149.318 26.6243 148.369 27.2007C147.419 27.7782 146.28 28.0659 144.949 28.0659ZM144.949 26.8683C145.57 26.8683 146.088 26.6379 146.505 26.1761C146.922 25.7153 147.232 25.0805 147.437 24.2737C147.641 23.4668 147.743 22.5569 147.743 21.5459C147.743 20.5174 147.641 19.6036 147.437 18.8045C147.232 18.0064 146.921 17.3765 146.505 16.9147C146.088 16.4539 145.569 16.2226 144.949 16.2226C144.328 16.2226 143.809 16.453 143.393 16.9147C142.976 17.3765 142.664 18.0054 142.461 18.8045C142.257 19.6026 142.155 20.5164 142.155 21.5459C142.155 22.5569 142.257 23.4668 142.461 24.2737C142.665 25.0815 142.976 25.7153 143.393 26.1761C143.809 26.6379 144.328 26.8683 144.949 26.8683Z" fill="#282828"/>
<path d="M153.85 27.8005V11.7518C153.85 10.9537 153.739 10.3111 153.517 9.82211C153.296 9.33411 152.785 9.09011 151.987 9.09011H148.804V8.29199H154.914C155.535 8.29199 156.019 8.39796 156.365 8.61085C156.711 8.82375 156.955 9.17857 157.097 9.67533C157.239 10.1721 157.31 10.8642 157.31 11.7508V24.3398L165.027 10.2353H168.22V27.7986H164.76V13.696L157.042 27.8005H153.85Z" fill="#282828"/>
<path d="M174.938 28.0655C173.678 28.0655 172.658 27.8613 171.878 27.453C171.097 27.0447 170.476 26.5392 170.015 25.9365L170.813 25.2716C171.061 25.5904 171.447 25.9365 171.971 26.3098C172.494 26.6821 173.217 26.8688 174.14 26.8688C174.938 26.8688 175.604 26.687 176.136 26.3234C176.667 25.9598 176.934 25.3435 176.934 24.4735C176.934 23.6394 176.712 23.0094 176.269 22.5837C175.826 22.1579 174.983 21.945 173.74 21.945H172.409V20.7473H173.74C174.805 20.7473 175.537 20.5704 175.935 20.2156C176.335 19.8607 176.534 19.2843 176.534 18.4862C176.534 17.688 176.29 17.1116 175.802 16.7567C175.314 16.4019 174.76 16.225 174.139 16.225C173.341 16.225 172.666 16.4952 172.117 17.0367C171.567 17.5782 171.265 18.283 171.212 19.1521H170.414C170.414 18.4074 170.44 17.7726 170.493 17.2496C170.547 16.7266 170.741 16.296 171.079 15.9586C171.415 15.6223 171.921 15.3822 172.595 15.2402C173.269 15.0983 174.006 15.0273 174.804 15.0273C175.868 15.0273 176.8 15.1518 177.598 15.3997C178.396 15.6485 179.017 16.0247 179.46 16.5302C179.904 17.0357 180.125 17.688 180.125 18.4862C180.125 19.2843 179.833 19.9366 179.247 20.4421C178.662 20.9476 177.89 21.2713 176.932 21.4132C178.031 21.5551 178.905 21.9012 179.553 22.4514C180.2 23.0017 180.524 23.6753 180.524 24.4735C180.524 25.325 180.293 26.0172 179.832 26.5489C179.37 27.0807 178.722 27.4666 177.889 27.7067C177.058 27.9459 176.073 28.0655 174.938 28.0655Z" fill="#282828"/>
<path d="M187.83 28.0659C186.517 28.0659 185.383 27.7782 184.424 27.2007C183.466 26.6243 182.73 25.8398 182.215 24.8453C181.7 23.8518 181.443 22.7523 181.443 21.5459C181.443 20.322 181.7 19.2177 182.215 18.2329C182.73 17.2481 183.466 16.4675 184.424 15.8911C185.382 15.3146 186.517 15.0259 187.83 15.0259C189.161 15.0259 190.3 15.3146 191.25 15.8911C192.199 16.4675 192.931 17.2481 193.445 18.2329C193.96 19.2177 194.217 20.322 194.217 21.5459C194.217 22.7523 193.96 23.8528 193.445 24.8453C192.93 25.8388 192.199 26.6243 191.25 27.2007C190.3 27.7782 189.161 28.0659 187.83 28.0659ZM187.83 26.8683C188.452 26.8683 188.97 26.6379 189.387 26.1761C189.804 25.7153 190.114 25.0805 190.318 24.2737C190.522 23.4668 190.624 22.5569 190.624 21.5459C190.624 20.5174 190.522 19.6036 190.318 18.8045C190.114 18.0064 189.803 17.3765 189.387 16.9147C188.97 16.4539 188.451 16.2226 187.83 16.2226C187.209 16.2226 186.69 16.453 186.274 16.9147C185.857 17.3765 185.546 18.0054 185.343 18.8045C185.139 19.6026 185.036 20.5164 185.036 21.5459C185.036 22.5569 185.139 23.4668 185.343 24.2737C185.547 25.0815 185.857 25.7153 186.274 26.1761C186.69 26.6379 187.209 26.8683 187.83 26.8683Z" fill="#282828"/>
<path d="M204.942 28.3319C203.079 28.3319 201.491 27.9324 200.178 27.1343C198.865 26.3361 197.867 25.2542 197.184 23.8874C196.501 22.5215 196.159 20.9865 196.159 19.2834C196.159 17.9351 196.376 16.68 196.812 15.5174C197.246 14.3557 197.863 13.3398 198.662 12.4708C199.46 11.6017 200.391 10.9231 201.456 10.4351C202.52 9.94712 203.682 9.70312 204.942 9.70312C206.609 9.70312 207.953 9.92088 208.973 10.3554C209.993 10.79 210.751 11.2916 211.249 11.8593C211.604 12.3211 211.808 12.915 211.861 13.6422C211.915 14.3703 211.941 15.1237 211.941 15.9043H211.143C210.805 14.2906 210.189 13.0531 209.293 12.1918C208.396 11.3314 207.212 10.9008 205.741 10.9008C204.659 10.9008 203.674 11.1496 202.786 11.6464C201.899 12.1432 201.194 12.9996 200.671 14.2147C200.147 15.4299 199.886 17.1204 199.886 19.2844C199.886 20.2954 199.993 21.2714 200.205 22.2114C200.418 23.1524 200.759 23.9943 201.23 24.7399C201.7 25.4846 202.303 26.0708 203.039 26.4965C203.775 26.9223 204.676 27.1352 205.741 27.1352C206.965 27.1352 208.1 26.8115 209.147 26.1641C210.194 25.5166 211.037 24.5717 211.675 23.3303L212.607 24.0487C211.773 25.5215 210.753 26.6035 209.547 27.2956C208.338 27.9858 206.804 28.3319 204.942 28.3319Z" fill="#282828"/>
<path d="M216.849 27.8003V16.4896H216.051C215.253 16.4896 214.632 16.7025 214.188 17.1283C213.745 17.5541 213.523 18.2725 213.523 19.2835H212.725V17.4209C212.725 16.8892 212.859 16.4012 213.125 15.9569C213.391 15.5136 213.923 15.292 214.721 15.292H224.328V16.4896H220.309V27.7993H216.849V27.8003Z" fill="#282828"/>
<path d="M225.723 32.8566V18.752C225.723 17.9539 225.714 17.7002 225.501 17.2112C225.288 16.7232 224.685 16.4792 223.887 16.4792H223.621V15.2922H226.255C226.858 15.2922 227.334 15.372 227.68 15.5314C228.026 15.6908 228.296 15.9834 228.491 16.4092C228.81 16.1253 229.263 15.824 229.848 15.5042C230.434 15.1843 231.188 15.0249 232.111 15.0249C233.352 15.0249 234.386 15.3136 235.211 15.8901C236.036 16.4666 236.656 17.2472 237.073 18.2319C237.49 19.2167 237.698 20.321 237.698 21.5449C237.698 22.7513 237.489 23.8518 237.073 24.8443C236.656 25.8378 236.026 26.6233 235.183 27.1998C234.341 27.7762 233.271 28.065 231.976 28.065C231.391 28.065 230.846 27.9804 230.339 27.8122C229.834 27.644 229.448 27.4622 229.182 27.2668V32.8556H225.723V32.8566ZM231.445 26.8683C232.118 26.8683 232.646 26.6379 233.028 26.1761C233.409 25.7153 233.684 25.0805 233.854 24.2737C234.022 23.4668 234.106 22.5569 234.106 21.5459C234.106 20.5174 234.022 19.6036 233.854 18.8045C233.684 18.0064 233.419 17.3765 233.055 16.9147C232.692 16.4539 232.199 16.2226 231.579 16.2226C230.975 16.2226 230.488 16.3207 230.115 16.5152C229.742 16.7106 229.431 16.9147 229.183 17.1276V26.0692C229.396 26.2471 229.716 26.424 230.141 26.6009C230.566 26.7798 231 26.8683 231.445 26.8683Z" fill="#282828"/>
<path d="M245.055 28.0659C243.742 28.0659 242.607 27.7782 241.649 27.2007C240.691 26.6243 239.954 25.8398 239.44 24.8453C238.925 23.8518 238.668 22.7523 238.668 21.5459C238.668 20.322 238.925 19.2177 239.44 18.2329C239.954 17.2481 240.691 16.4675 241.649 15.8911C242.606 15.3146 243.742 15.0259 245.055 15.0259C246.386 15.0259 247.525 15.3146 248.475 15.8911C249.424 16.4675 250.156 17.2481 250.67 18.2329C251.184 19.2177 251.442 20.322 251.442 21.5459C251.442 22.7523 251.184 23.8528 250.67 24.8453C250.155 25.8388 249.424 26.6243 248.475 27.2007C247.525 27.7782 246.385 28.0659 245.055 28.0659ZM245.055 26.8683C245.676 26.8683 246.194 26.6379 246.611 26.1761C247.028 25.7153 247.339 25.0805 247.543 24.2737C247.747 23.4668 247.849 22.5569 247.849 21.5459C247.849 20.5174 247.747 19.6036 247.543 18.8045C247.339 18.0064 247.028 17.3765 246.611 16.9147C246.194 16.4539 245.675 16.2226 245.055 16.2226C244.434 16.2226 243.915 16.453 243.499 16.9147C243.082 17.3765 242.771 18.0054 242.567 18.8045C242.363 19.6026 242.261 20.5164 242.261 21.5459C242.261 22.5569 242.363 23.4668 242.567 24.2737C242.772 25.0815 243.082 25.7153 243.499 26.1761C243.915 26.6379 244.434 26.8683 245.055 26.8683Z" fill="#282828"/>
<path d="M252.557 27.8V18.7525C252.557 17.9543 252.446 17.3118 252.225 16.8228C252.003 16.3348 251.493 16.0908 250.695 16.0908H246.54V15.2927H253.622C254.243 15.2927 254.726 15.3986 255.072 15.6115C255.418 15.8244 255.662 16.1793 255.804 16.676C255.946 17.1728 256.017 17.8649 256.017 18.7515V24.4734L260.807 15.2927H264V27.8H260.54V18.6193L255.751 27.8H252.557ZM258.04 14.2272C257.171 14.2272 256.412 13.9968 255.764 13.5351C255.117 13.0743 254.624 12.4706 254.287 11.726L255.032 11.167C255.298 11.5043 255.68 11.8105 256.176 12.0847C256.673 12.3598 257.294 12.4969 258.039 12.4969C258.785 12.4969 259.405 12.3598 259.901 12.0847C260.398 11.8096 260.779 11.5033 261.046 11.167L261.79 11.726C261.453 12.4706 260.961 13.0743 260.314 13.5351C259.667 13.9968 258.908 14.2272 258.04 14.2272Z" fill="#282828"/>
<path d="M120.32 18.2329C119.903 17.2482 119.282 16.4675 118.458 15.8911C117.632 15.3146 116.599 15.0259 115.357 15.0259C114.434 15.0259 113.681 15.1863 113.095 15.5051C112.51 15.825 112.057 16.1263 111.738 16.4102C111.543 15.9844 111.273 15.6918 110.927 15.5324C110.58 15.372 110.105 15.2922 109.502 15.2922H106.868V16.0904H107.134C107.932 16.0904 108.438 16.3344 108.651 16.8224C108.864 17.3104 108.971 17.9539 108.971 18.752V32.8556H112.429V27.2678C112.696 27.4632 113.082 27.645 113.587 27.8132C114.093 27.9814 114.639 28.0659 115.224 28.0659C116.519 28.0659 117.588 27.7782 118.43 27.2007C119.273 26.6243 119.903 25.8398 120.32 24.8463C120.737 23.8528 120.945 22.7523 120.945 21.5459C120.945 20.322 120.737 19.2177 120.32 18.2329ZM117.1 24.2737C116.931 25.0815 116.656 25.7153 116.275 26.1761C115.893 26.6379 115.366 26.8683 114.692 26.8683C114.248 26.8683 113.814 26.7798 113.388 26.6019C112.962 26.425 112.642 26.2481 112.429 26.0702V17.1286C112.678 16.9157 112.988 16.7115 113.362 16.5161C113.734 16.3217 114.222 16.2235 114.825 16.2235C115.446 16.2235 115.938 16.4549 116.301 16.9157C116.665 17.3774 116.931 18.0064 117.1 18.8055C117.269 19.6036 117.353 20.5174 117.353 21.5459C117.353 22.5569 117.269 23.4668 117.1 24.2737Z" fill="#282828"/>
<path d="M141.797 28.9457V29.7438H135.688C135.067 29.7438 134.583 29.6379 134.237 29.425C133.891 29.2121 133.648 28.8563 133.505 28.3605C133.364 27.8637 133.293 27.1716 133.293 26.285V18.7131L129.394 27.7996H128.515L123.885 18.3797V27.7733H122.554V15.2922H125.801L129.739 23.3025L133.293 15.0327L133.296 15.0259H136.752C136.752 15.6218 136.813 22.381 136.937 25.9895C136.979 27.2241 137.028 28.0893 137.085 28.2137C137.11 28.2691 137.138 28.3206 137.172 28.3692C137.426 28.7532 137.906 28.9457 138.615 28.9457H141.797Z" fill="#282828"/>
<path d="M37.9429 0.0534983C34.5985 0.58571 32.4261 5.1966 31.0746 9.74566C30.0221 13.2873 29.4678 16.7929 29.2463 18.3062C28.8383 21.0947 27.3008 30.6347 23.6054 34.7241C22.7162 35.7068 21.7029 36.3761 20.5498 36.5595C20.3745 36.5869 26.6272 36.5998 26.8799 36.5595C30.2242 36.0272 32.3966 31.4164 33.7481 26.8673C34.8007 23.3257 35.3549 19.8201 35.5764 18.3067C35.9844 15.5183 37.5203 5.98094 41.2173 1.89043C42.1054 0.90665 43.1198 0.238428 44.273 0.0540359C44.4482 0.026619 38.1961 0.0137169 37.9429 0.0534983Z" fill="url(#paint0_radial_139_31850)"/>
<path d="M72.7627 0.0536307C69.4184 0.585842 67.246 5.19673 65.8945 9.7458C64.8419 13.2874 64.2876 16.793 64.0661 18.3063C63.6581 21.0948 62.1206 30.6348 58.4252 34.7243C57.5361 35.707 56.5227 36.3763 55.3696 36.5596C55.1943 36.587 61.447 36.5999 61.6997 36.5596C65.044 36.0274 67.2164 31.4165 68.5679 26.8674C69.6205 23.3258 70.1747 19.8202 70.3962 18.3069C70.8043 15.5184 72.3401 5.98107 76.0371 1.89057C76.4737 1.40728 77.2193 0.955165 77.8644 0.620785C78.1466 0.474562 78.0429 0.0477172 77.7246 0.0461045C75.9173 0.0369655 72.9379 0.0262137 72.7627 0.0536307Z" fill="url(#paint1_radial_139_31850)"/>
<path d="M21.2975 0.00525641C16.2802 0.385868 13.2369 13.1509 12.1602 18.3069C11.8742 19.6799 11.4484 21.591 10.8823 23.6639C9.58296 28.4345 7.54281 34.0636 4.76349 35.957C4.71672 35.9887 4.66995 36.0199 4.62264 36.0494C4.36352 36.2134 4.47534 36.6128 4.7823 36.6128C5.63008 36.6144 6.48054 36.6139 6.55526 36.6085C11.5736 36.2279 14.6169 23.4629 15.6926 18.3069C15.9797 16.9339 16.4055 15.0228 16.9716 12.9487C18.2709 8.1782 20.31 2.5502 23.0898 0.656812C23.6409 0.280501 24.2204 0.0514889 24.83 0.00525641C24.83 0.00525641 21.4502 -0.00657051 21.2975 0.00525641Z" fill="url(#paint2_radial_139_31850)"/>
<path d="M0.774902 10.9296V10.3566C0.774902 10.1883 0.911449 10.0518 1.07971 10.0518H26.449C26.6173 10.0518 26.7538 10.1883 26.7538 10.3566V10.9296C26.7538 11.0979 26.6173 11.2345 26.449 11.2345H1.07918C0.910912 11.2345 0.774902 11.0979 0.774902 10.9296Z" fill="#282828"/>
<path d="M0.774414 26.2026V25.6295C0.774414 25.4613 0.910962 25.3247 1.07923 25.3247H26.4485C26.6168 25.3247 26.7533 25.4613 26.7533 25.6295V26.2026C26.7533 26.3709 26.6168 26.5074 26.4485 26.5074H1.07923C0.910962 26.5074 0.774414 26.3709 0.774414 26.2026Z" fill="#282828"/>
<path d="M57.8614 0.00525641C52.8441 0.385868 49.8008 13.1509 48.724 18.3069C48.438 19.6799 48.0123 21.591 47.4462 23.6639C46.1463 28.4345 44.1062 34.0636 41.3268 35.957C40.7758 36.3333 40.1963 36.5623 39.5867 36.6085C39.5867 36.6085 42.9665 36.6203 43.1192 36.6085C48.1375 36.2279 51.1808 23.4629 52.2565 18.3069C52.5436 16.9339 52.9694 15.0228 53.5355 12.9488C54.8353 8.1782 56.8744 2.5502 59.6537 0.656813C60.2048 0.280501 60.7843 0.0514889 61.3939 0.00525641C61.3934 0.00525641 58.0136 -0.00657051 57.8614 0.00525641Z" fill="url(#paint3_radial_139_31850)"/>
<path d="M55.7114 10.9296V10.3566C55.7114 10.1883 55.848 10.0518 56.0162 10.0518H81.5672C81.7355 10.0518 81.872 10.1883 81.872 10.3566V10.9296C81.872 11.0979 81.7355 11.2345 81.5672 11.2345H56.0162C55.848 11.2345 55.7114 11.0979 55.7114 10.9296Z" fill="#282828"/>
<path d="M55.7114 26.2026V25.6295C55.7114 25.4613 55.848 25.3247 56.0162 25.3247H81.5672C81.7355 25.3247 81.872 25.4613 81.872 25.6295V26.2026C81.872 26.3709 81.7355 26.5074 81.5672 26.5074H56.0162C55.848 26.5074 55.7114 26.3709 55.7114 26.2026Z" fill="#282828"/>
<path d="M66.58 8.18285H57.1012C56.254 8.18285 55.4196 7.97319 54.6724 7.57322L51.2469 5.7379C49.3444 4.71863 47.1983 4.17997 45.0404 4.17997H37.4303C35.1838 4.17997 32.9748 4.75573 31.0142 5.85294L28.0183 7.52914C27.2511 7.95814 26.3867 8.18392 25.5077 8.18392H16.0736C15.9053 8.18392 15.7688 8.04738 15.7688 7.87911V7.34582C15.7688 7.17756 15.9053 7.04101 16.0736 7.04101H25.5077C26.1899 7.04101 26.8651 6.86522 27.4602 6.53192L30.4562 4.85572C32.5872 3.66335 34.9886 3.0376 37.4303 3.0376H45.0404C47.3865 3.0376 49.7191 3.62303 51.7866 4.731L55.2127 6.56632C55.7938 6.87759 56.4427 7.04047 57.1018 7.04047H66.5805C66.7488 7.04047 66.8853 7.17702 66.8853 7.34529V7.87857C66.8848 8.0463 66.7482 8.18285 66.58 8.18285Z" fill="#282828"/>
<path d="M45.0404 33.6024H37.4303C34.9886 33.6024 32.5872 32.9766 30.4562 31.7843L27.4602 30.1081C26.8651 29.7748 26.1899 29.599 25.5077 29.599H16.0736C15.9053 29.599 15.7688 29.4624 15.7688 29.2942V28.7609C15.7688 28.5926 15.9053 28.4561 16.0736 28.4561H25.5077C26.3867 28.4561 27.2511 28.6813 28.0183 29.1108L31.0142 30.787C32.9748 31.8837 35.1838 32.46 37.4303 32.46H45.0404C47.1989 32.46 49.3449 31.9213 51.2469 30.9021L54.6729 29.0662C55.4175 28.6673 56.2572 28.4566 57.1018 28.4566H66.5805C66.7488 28.4566 66.8853 28.5931 66.8853 28.7614V29.2947C66.8853 29.463 66.7488 29.5995 66.5805 29.5995H57.1018C56.4448 29.5995 55.7916 29.7635 55.2127 30.0737L51.7866 31.9095C49.7191 33.0169 47.3859 33.6024 45.0404 33.6024Z" fill="#282828"/>
<path d="M76.0992 36.6085C71.0819 36.2279 68.0386 23.4629 66.9618 18.3069C66.6758 16.9339 66.2501 15.0228 65.684 12.9498C64.3841 8.17928 62.344 2.5502 59.5646 0.656813C59.0136 0.280501 58.4341 0.0514889 57.8245 0.00525641C57.8245 0.00525641 61.2043 -0.00657051 61.3569 0.00525641C66.3753 0.385868 69.4186 13.1509 70.4943 18.3069C70.7814 19.6799 71.2072 21.591 71.7732 23.665C73.0731 28.4356 75.1122 34.0636 77.8915 35.957C77.9383 35.9887 77.9851 36.0199 78.0324 36.0494C78.2915 36.2134 78.1797 36.6128 77.8727 36.6128C77.0244 36.6144 76.1739 36.6144 76.0992 36.6085Z" fill="url(#paint4_radial_139_31850)"/>
<path d="M24.852 0.00525641C29.8693 0.385868 32.9126 13.1509 33.9894 18.3069C34.2754 19.6799 34.7012 21.591 35.2672 23.6639C36.5671 28.4345 38.6073 34.0636 41.3866 35.957C41.9376 36.3333 42.5171 36.5623 43.1268 36.6085C43.1268 36.6085 39.747 36.6203 39.5943 36.6085C34.5759 36.2279 31.5326 23.4629 30.4569 18.3069C30.1698 16.9339 29.7441 15.0228 29.178 12.9488C27.8786 8.1782 25.8396 2.5502 23.0602 0.656813C22.5092 0.280501 21.9297 0.0514889 21.3201 0.00525641C21.3195 0.00525641 24.6993 -0.00657051 24.852 0.00525641Z" fill="url(#paint5_radial_139_31850)"/>
<path d="M44.2859 0.0534983C47.6302 0.58571 49.8026 5.1966 51.1541 9.74566C52.2067 13.2873 52.7609 16.7929 52.9824 18.3062C53.3904 21.0947 54.9279 30.6347 58.6233 34.7241C59.5125 35.7068 60.5258 36.3761 61.679 36.5595C61.8542 36.5869 55.6015 36.5998 55.3489 36.5595C52.0045 36.0272 49.8321 31.4164 48.4807 26.8673C47.4281 23.3257 46.8733 19.8201 46.6523 18.3067C46.2443 15.5183 44.7084 5.98094 41.0114 1.89043C40.1233 0.90665 39.1089 0.238428 37.9558 0.0540359C37.7805 0.026619 44.0327 0.0137169 44.2859 0.0534983Z" fill="url(#paint6_radial_139_31850)"/>
<path d="M9.35642 0.0536307C12.7008 0.585842 14.8731 5.19673 16.2246 9.7458C17.2772 13.2874 17.8315 16.793 18.053 18.3063C18.461 21.0948 19.9985 30.6348 23.6939 34.7243C24.583 35.707 25.5964 36.3763 26.7495 36.5596C26.9248 36.587 20.6721 36.5999 20.4194 36.5596C17.0751 36.0274 14.9027 31.4165 13.5512 26.8674C12.4986 23.3258 11.9444 19.8202 11.7229 18.3069C11.3149 15.5184 9.77896 5.98107 6.08198 1.89057C5.64545 1.40728 4.89982 0.955165 4.25472 0.620785C3.97248 0.474562 4.07624 0.0477172 4.39449 0.0461045C6.20239 0.0369655 9.18117 0.0262137 9.35642 0.0536307Z" fill="url(#paint7_radial_139_31850)"/>
<defs>
<radialGradient id="paint0_radial_139_31850" cx="0" cy="0" r="1" gradientUnits="userSpaceOnUse" gradientTransform="translate(32.4108 18.3078) rotate(-75.0007) scale(22.6712 4.61684)">
<stop stop-color="#EE7272"/>
<stop offset="0.1092" stop-color="#E06161"/>
<stop offset="0.3495" stop-color="#C54242"/>
<stop offset="0.5828" stop-color="#B22B2B"/>
<stop offset="0.804" stop-color="#A71E1E"/>
<stop offset="1" stop-color="#A31919"/>
</radialGradient>
<radialGradient id="paint1_radial_139_31850" cx="0" cy="0" r="1" gradientUnits="userSpaceOnUse" gradientTransform="translate(66.6958 18.3126) rotate(-75.0007) scale(22.3703 4.55556)">
<stop stop-color="#EE7272"/>
<stop offset="0.1092" stop-color="#E06161"/>
<stop offset="0.3495" stop-color="#C54242"/>
<stop offset="0.5828" stop-color="#B22B2B"/>
<stop offset="0.804" stop-color="#A71E1E"/>
<stop offset="1" stop-color="#A31919"/>
</radialGradient>
<radialGradient id="paint2_radial_139_31850" cx="0" cy="0" r="1" gradientUnits="userSpaceOnUse" gradientTransform="translate(14.6532 18.3082) rotate(-75.0007) scale(21.7898 3.00283)">
<stop stop-color="#29ABE2"/>
<stop offset="0.1775" stop-color="#1D9AD7"/>
<stop offset="0.4718" stop-color="#0D83C8"/>
<stop offset="0.7517" stop-color="#0376BF"/>
<stop offset="1" stop-color="#0071BC"/>
</radialGradient>
<radialGradient id="paint3_radial_139_31850" cx="0" cy="0" r="1" gradientUnits="userSpaceOnUse" gradientTransform="translate(50.4885 18.3091) rotate(-75.0007) scale(22.1675 3.05487)">
<stop stop-color="#29ABE2"/>
<stop offset="0.1775" stop-color="#1D9AD7"/>
<stop offset="0.4718" stop-color="#0D83C8"/>
<stop offset="0.7517" stop-color="#0376BF"/>
<stop offset="1" stop-color="#0071BC"/>
</radialGradient>
<radialGradient id="paint4_radial_139_31850" cx="0" cy="0" r="1" gradientUnits="userSpaceOnUse" gradientTransform="translate(67.9991 18.3055) rotate(75.0007) scale(21.7898 3.00283)">
<stop stop-color="#29ABE2"/>
<stop offset="0.1775" stop-color="#1D9AD7"/>
<stop offset="0.4718" stop-color="#0D83C8"/>
<stop offset="0.7517" stop-color="#0376BF"/>
<stop offset="1" stop-color="#0071BC"/>
</radialGradient>
<radialGradient id="paint5_radial_139_31850" cx="0" cy="0" r="1" gradientUnits="userSpaceOnUse" gradientTransform="translate(32.2227 18.3064) rotate(75.0007) scale(22.1675 3.05487)">
<stop stop-color="#29ABE2"/>
<stop offset="0.1775" stop-color="#1D9AD7"/>
<stop offset="0.4718" stop-color="#0D83C8"/>
<stop offset="0.7517" stop-color="#0376BF"/>
<stop offset="1" stop-color="#0071BC"/>
</radialGradient>
<radialGradient id="paint6_radial_139_31850" cx="0" cy="0" r="1" gradientUnits="userSpaceOnUse" gradientTransform="translate(49.8161 18.3053) rotate(75.0007) scale(22.6712 4.28357)">
<stop stop-color="#EE7272"/>
<stop offset="0.1092" stop-color="#E06161"/>
<stop offset="0.3495" stop-color="#C54242"/>
<stop offset="0.5828" stop-color="#B22B2B"/>
<stop offset="0.804" stop-color="#A71E1E"/>
<stop offset="1" stop-color="#A31919"/>
</radialGradient>
<radialGradient id="paint7_radial_139_31850" cx="0" cy="0" r="1" gradientUnits="userSpaceOnUse" gradientTransform="translate(15.4214 18.3101) rotate(75.0007) scale(22.3703 4.22671)">
<stop stop-color="#EE7272"/>
<stop offset="0.1092" stop-color="#E06161"/>
<stop offset="0.3495" stop-color="#C54242"/>
<stop offset="0.5828" stop-color="#B22B2B"/>
<stop offset="0.804" stop-color="#A71E1E"/>
<stop offset="1" stop-color="#A31919"/>
</radialGradient>
</defs>
</svg>
