<svg width="211" height="114" viewBox="0 0 211 114" fill="none" xmlns="http://www.w3.org/2000/svg">
<path d="M6.66295 107.346V85.7796H4.47315C3.38219 85.7796 2.51889 86.0523 1.88213 86.5967C1.24423 87.1422 0.925285 88.1035 0.925285 89.4819H0V86.8593C0 86.4479 0.0721294 86.0523 0.216388 85.6714C0.35952 85.2916 0.622116 84.9828 1.00305 84.7461C1.38285 84.5095 1.92383 84.3911 2.62258 84.3911H18.2487V85.7796H10.674V107.345H6.66295V107.346Z" fill="white"/>
<path d="M22.1348 107.654C20.6945 107.654 19.4401 107.325 18.3705 106.667C17.301 106.009 16.4783 105.109 15.9024 103.968C15.3265 102.826 15.0391 101.535 15.0391 100.095C15.0391 98.4496 15.3366 97.0668 15.9339 95.9454C16.5301 94.8251 17.3427 93.9765 18.3717 93.4006C19.3995 92.8246 20.5513 92.5361 21.8271 92.5361C23.1018 92.5361 24.2536 92.7931 25.2826 93.307C26.3104 93.8209 27.123 94.5411 27.7203 95.4664C28.3165 96.3917 28.6152 97.4714 28.6152 98.7054L28.4912 100.65H19.2045C19.2045 102.686 19.5178 104.131 20.1456 104.984C20.7722 105.838 21.5904 106.264 22.598 106.264C23.6675 106.264 24.5365 106.018 25.2048 105.524C25.8731 105.03 26.4749 104.424 27.0092 103.704L27.966 104.414C27.6775 104.867 27.292 105.345 26.8085 105.849C26.3251 106.352 25.7074 106.779 24.958 107.129C24.2063 107.479 23.2652 107.654 22.1348 107.654ZM19.2034 99.2622H24.4486C24.4486 97.2257 24.2063 95.827 23.7239 95.0663C23.2404 94.3056 22.6081 93.9246 21.826 93.9246C21.3729 93.9246 20.9469 94.0892 20.5457 94.4183C20.1445 94.7473 19.821 95.2973 19.5742 96.0693C19.3274 96.8402 19.2034 97.9053 19.2034 99.2622Z" fill="white"/>
<path d="M72.9792 107.654C71.4566 107.654 70.1414 107.32 69.0302 106.651C67.92 105.983 67.0658 105.073 66.4696 103.92C65.8722 102.768 65.5747 101.494 65.5747 100.095C65.5747 98.6761 65.8722 97.3958 66.4696 96.2542C67.0658 95.1125 67.92 94.2075 69.0302 93.5392C70.1403 92.8709 71.4566 92.5361 72.9792 92.5361C74.5221 92.5361 75.843 92.8709 76.9441 93.5392C78.0441 94.2075 78.8927 95.1125 79.4889 96.2542C80.0851 97.3958 80.3838 98.6761 80.3838 100.095C80.3838 101.494 80.0851 102.769 79.4889 103.92C78.8916 105.072 78.0441 105.983 76.9441 106.651C75.843 107.32 74.5221 107.654 72.9792 107.654ZM72.9792 106.266C73.6994 106.266 74.3001 105.998 74.7836 105.463C75.2671 104.929 75.6266 104.193 75.8633 103.257C76.1 102.322 76.2183 101.267 76.2183 100.095C76.2183 98.9027 76.1 97.8433 75.8633 96.9169C75.6266 95.9916 75.266 95.2613 74.7836 94.7259C74.3001 94.1917 73.6983 93.9235 72.9792 93.9235C72.2591 93.9235 71.6572 94.1906 71.1749 94.7259C70.6914 95.2613 70.3307 95.9905 70.0952 96.9169C69.8585 97.8421 69.7402 98.9015 69.7402 100.095C69.7402 101.267 69.8585 102.322 70.0952 103.257C70.3319 104.194 70.6914 104.929 71.1749 105.463C71.6572 105.998 72.2591 106.266 72.9792 106.266Z" fill="white"/>
<path d="M83.2985 107.347V88.7406C83.2985 87.8153 83.17 87.0703 82.913 86.5034C82.6561 85.9377 82.0644 85.6548 81.1391 85.6548H77.4492V84.7295H84.5325C85.2527 84.7295 85.8128 84.8523 86.2141 85.0992C86.6153 85.346 86.8982 85.7573 87.0627 86.3332C87.2273 86.9092 87.3095 87.7116 87.3095 88.7394V103.334L96.2569 86.9824H99.9581V107.344H95.947V90.9946L86.9996 107.347H83.2985Z" fill="white"/>
<path d="M107.747 107.654C106.286 107.654 105.104 107.417 104.199 106.944C103.294 106.47 102.574 105.884 102.04 105.186L102.965 104.415C103.252 104.784 103.7 105.186 104.307 105.618C104.913 106.05 105.752 106.266 106.822 106.266C107.747 106.266 108.519 106.056 109.135 105.634C109.752 105.213 110.061 104.498 110.061 103.489C110.061 102.522 109.804 101.792 109.29 101.298C108.776 100.805 107.799 100.558 106.358 100.558H104.815V99.1695H106.358C107.592 99.1695 108.441 98.9644 108.903 98.553C109.366 98.1416 109.597 97.4733 109.597 96.548C109.597 95.6227 109.314 94.9544 108.749 94.5431C108.183 94.1317 107.541 93.9266 106.82 93.9266C105.895 93.9266 105.113 94.2399 104.476 94.8676C103.838 95.4954 103.489 96.3125 103.427 97.32H102.502C102.502 96.4567 102.532 95.7208 102.594 95.1145C102.656 94.5081 102.881 94.0088 103.273 93.6178C103.662 93.2278 104.25 92.9494 105.031 92.7849C105.812 92.6204 106.666 92.5381 107.591 92.5381C108.825 92.5381 109.905 92.6823 110.83 92.9697C111.756 93.2582 112.476 93.6944 112.99 94.2805C113.504 94.8665 113.761 95.6227 113.761 96.548C113.761 97.4733 113.421 98.2295 112.743 98.8156C112.064 99.4016 111.17 99.7769 110.058 99.9415C111.333 100.106 112.346 100.507 113.097 101.145C113.847 101.783 114.223 102.564 114.223 103.489C114.223 104.477 113.956 105.279 113.42 105.896C112.885 106.512 112.134 106.959 111.168 107.238C110.205 107.515 109.063 107.654 107.747 107.654Z" fill="white"/>
<path d="M122.693 107.654C121.171 107.654 119.855 107.32 118.744 106.651C117.634 105.983 116.78 105.073 116.184 103.92C115.586 102.768 115.289 101.494 115.289 100.095C115.289 98.6761 115.586 97.3958 116.184 96.2542C116.78 95.1125 117.634 94.2075 118.744 93.5392C119.854 92.8709 121.171 92.5361 122.693 92.5361C124.236 92.5361 125.557 92.8709 126.658 93.5392C127.758 94.2075 128.607 95.1125 129.203 96.2542C129.799 97.3958 130.098 98.6761 130.098 100.095C130.098 101.494 129.799 102.769 129.203 103.92C128.606 105.072 127.758 105.983 126.658 106.651C125.557 107.32 124.236 107.654 122.693 107.654ZM122.693 106.266C123.414 106.266 124.014 105.998 124.498 105.463C124.981 104.929 125.341 104.193 125.577 103.257C125.814 102.322 125.932 101.267 125.932 100.095C125.932 98.9027 125.814 97.8433 125.577 96.9169C125.341 95.9916 124.98 95.2613 124.498 94.7259C124.014 94.1917 123.412 93.9235 122.693 93.9235C121.973 93.9235 121.371 94.1906 120.889 94.7259C120.405 95.2613 120.045 95.9905 119.809 96.9169C119.573 97.8421 119.454 98.9015 119.454 100.095C119.454 101.267 119.573 102.322 119.809 103.257C120.046 104.194 120.405 104.929 120.889 105.463C121.371 105.998 121.973 106.266 122.693 106.266Z" fill="white"/>
<path d="M142.531 107.963C140.372 107.963 138.53 107.5 137.009 106.574C135.486 105.649 134.33 104.395 133.537 102.81C132.745 101.227 132.35 99.4471 132.35 97.4725C132.35 95.9093 132.601 94.4544 133.106 93.1064C133.61 91.7596 134.324 90.5819 135.251 89.5743C136.176 88.5668 137.256 87.7801 138.49 87.2144C139.724 86.6486 141.07 86.3657 142.531 86.3657C144.464 86.3657 146.023 86.6182 147.205 87.122C148.387 87.6257 149.266 88.2073 149.843 88.8655C150.255 89.4008 150.491 90.0894 150.553 90.9324C150.615 91.7766 150.646 92.65 150.646 93.555H149.72C149.329 91.6841 148.615 90.2494 147.576 89.2509C146.537 88.2535 145.164 87.7542 143.458 87.7542C142.203 87.7542 141.061 88.0427 140.033 88.6186C139.004 89.1945 138.186 90.1874 137.58 91.5962C136.973 93.005 136.669 94.9649 136.669 97.4736C136.669 98.6457 136.793 99.7773 137.04 100.867C137.287 101.958 137.683 102.934 138.228 103.798C138.772 104.662 139.472 105.341 140.326 105.835C141.179 106.329 142.223 106.575 143.458 106.575C144.876 106.575 146.193 106.2 147.407 105.45C148.62 104.699 149.598 103.604 150.338 102.164L151.418 102.997C150.451 104.705 149.268 105.959 147.87 106.761C146.469 107.562 144.69 107.963 142.531 107.963Z" fill="white"/>
<path d="M156.336 107.346V94.2332H155.411C154.485 94.2332 153.765 94.48 153.251 94.9737C152.737 95.4673 152.48 96.3002 152.48 97.4723H151.555V95.3129C151.555 94.6964 151.71 94.1307 152.018 93.6156C152.327 93.1017 152.944 92.8447 153.869 92.8447H165.006V94.2332H160.347V107.345H156.336V107.346Z" fill="white"/>
<path d="M166.624 113.208V96.8562C166.624 95.9309 166.613 95.6367 166.367 95.0698C166.12 94.5041 165.421 94.2212 164.496 94.2212H164.187V92.8451H167.241C167.94 92.8451 168.491 92.9375 168.892 93.1223C169.294 93.3072 169.607 93.6464 169.833 94.14C170.203 93.8109 170.728 93.4616 171.407 93.0908C172.085 92.72 172.96 92.5352 174.029 92.5352C175.468 92.5352 176.668 92.8699 177.623 93.5382C178.58 94.2065 179.299 95.1115 179.783 96.2532C180.266 97.3949 180.507 98.6752 180.507 100.094C180.507 101.493 180.265 102.769 179.783 103.919C179.299 105.071 178.569 105.982 177.592 106.65C176.615 107.318 175.375 107.653 173.874 107.653C173.195 107.653 172.563 107.555 171.976 107.36C171.39 107.165 170.942 106.954 170.634 106.728V113.207H166.624V113.208ZM173.257 106.266C174.038 106.266 174.65 105.999 175.093 105.463C175.535 104.929 175.854 104.193 176.05 103.258C176.245 102.322 176.343 101.267 176.343 100.095C176.343 98.9028 176.245 97.8434 176.05 96.917C175.854 95.9917 175.546 95.2614 175.125 94.7261C174.703 94.1919 174.132 93.9236 173.413 93.9236C172.713 93.9236 172.148 94.0375 171.716 94.2629C171.284 94.4894 170.923 94.7261 170.636 94.9729V105.339C170.883 105.545 171.253 105.751 171.746 105.956C172.238 106.163 172.742 106.266 173.257 106.266Z" fill="white"/>
<path d="M189.036 107.654C187.514 107.654 186.199 107.32 185.087 106.651C183.977 105.983 183.123 105.073 182.527 103.92C181.929 102.768 181.632 101.494 181.632 100.095C181.632 98.6761 181.929 97.3958 182.527 96.2542C183.123 95.1125 183.977 94.2075 185.087 93.5392C186.197 92.8709 187.514 92.5361 189.036 92.5361C190.579 92.5361 191.9 92.8709 193.001 93.5392C194.101 94.2075 194.95 95.1125 195.546 96.2542C196.142 97.3958 196.441 98.6761 196.441 100.095C196.441 101.494 196.142 102.769 195.546 103.92C194.949 105.072 194.101 105.983 193.001 106.651C191.9 107.32 190.578 107.654 189.036 107.654ZM189.036 106.266C189.757 106.266 190.357 105.998 190.841 105.463C191.324 104.929 191.684 104.193 191.92 103.257C192.157 102.322 192.275 101.267 192.275 100.095C192.275 98.9027 192.157 97.8433 191.92 96.9169C191.684 95.9916 191.323 95.2613 190.841 94.7259C190.357 94.1917 189.755 93.9235 189.036 93.9235C188.316 93.9235 187.714 94.1906 187.232 94.7259C186.749 95.2613 186.388 95.9905 186.152 96.9169C185.916 97.8421 185.797 98.9015 185.797 100.095C185.797 101.267 185.916 102.322 186.152 103.257C186.389 104.194 186.749 104.929 187.232 105.463C187.714 105.998 188.316 106.266 189.036 106.266Z" fill="white"/>
<path d="M197.734 107.346V96.8566C197.734 95.9314 197.605 95.1864 197.348 94.6195C197.091 94.0537 196.5 93.7709 195.574 93.7709H190.758V92.8456H198.968C199.688 92.8456 200.248 92.9684 200.649 93.2152C201.051 93.4621 201.334 93.8734 201.498 94.4493C201.663 95.0252 201.745 95.8277 201.745 96.8555V103.489L207.298 92.8456H211V107.346H206.989V96.7022L201.436 107.346H197.734ZM204.09 91.6104C203.083 91.6104 202.202 91.3433 201.452 90.8079C200.701 90.2737 200.13 89.5738 199.74 88.7105L200.603 88.0625C200.912 88.4536 201.354 88.8086 201.93 89.1264C202.506 89.4454 203.226 89.6043 204.089 89.6043C204.954 89.6043 205.673 89.4454 206.248 89.1264C206.824 88.8075 207.266 88.4524 207.575 88.0625L208.438 88.7105C208.047 89.5738 207.477 90.2737 206.726 90.8079C205.977 91.3433 205.097 91.6104 204.09 91.6104Z" fill="white"/>
<path d="M44.4263 96.2542C43.9428 95.1125 43.2226 94.2075 42.2669 93.5392C41.3101 92.8709 40.112 92.5361 38.6728 92.5361C37.6022 92.5361 36.7287 92.7221 36.0503 93.0918C35.3718 93.4625 34.8466 93.8119 34.4769 94.141C34.2504 93.6474 33.9371 93.3081 33.5359 93.1233C33.1347 92.9374 32.5835 92.8449 31.8848 92.8449H28.8306V93.7702H29.1394C30.0647 93.7702 30.6507 94.0531 30.8975 94.6189C31.1443 95.1846 31.2683 95.9307 31.2683 96.856V113.207H35.2783V106.729C35.5871 106.955 36.0345 107.166 36.6205 107.361C37.2066 107.556 37.84 107.654 38.5184 107.654C40.0196 107.654 41.2582 107.32 42.2354 106.651C43.2125 105.983 43.9428 105.073 44.4263 103.921C44.9098 102.769 45.151 101.494 45.151 100.095C45.151 98.6761 44.9098 97.3958 44.4263 96.2542ZM40.6936 103.257C40.4975 104.194 40.1785 104.929 39.7367 105.463C39.2938 105.998 38.683 106.266 37.9008 106.266C37.3869 106.266 36.8831 106.163 36.3895 105.957C35.8959 105.752 35.5251 105.546 35.2783 105.34V94.9739C35.5668 94.7271 35.9263 94.4904 36.3591 94.2639C36.7907 94.0385 37.3565 93.9246 38.0552 93.9246C38.7754 93.9246 39.3457 94.1929 39.7672 94.7271C40.1887 95.2624 40.4975 95.9916 40.6936 96.918C40.8886 97.8433 40.9866 98.9027 40.9866 100.095C40.9866 101.267 40.8886 102.322 40.6936 103.257Z" fill="white"/>
<path d="M69.3255 108.674V109.599H62.2422C61.5231 109.599 60.9619 109.476 60.5607 109.23C60.1594 108.983 59.8777 108.57 59.712 107.995C59.5486 107.42 59.4663 106.617 59.4663 105.589V96.8109L54.9458 107.345H53.927L48.559 96.4244V107.315H47.0161V92.8449H50.7804L55.3459 102.132L59.4663 92.544L59.4697 92.5361H63.4763C63.4763 93.227 63.5473 101.063 63.6904 105.247C63.7389 106.678 63.7963 107.681 63.8617 107.825C63.891 107.89 63.9237 107.949 63.9631 108.006C64.2573 108.451 64.814 108.674 65.6356 108.674H69.3255Z" fill="white"/>
<path d="M98.4126 0.112355C91.4014 1.22811 86.8471 10.8946 84.0138 20.4314C81.8071 27.8562 80.6451 35.2055 80.1808 38.3781C79.3254 44.224 76.1021 64.2241 68.355 72.7973C66.4909 74.8575 64.3664 76.2607 61.949 76.645C61.5816 76.7025 74.69 76.7295 75.2197 76.645C82.2309 75.5292 86.7852 65.8628 89.6185 56.3259C91.8252 48.9011 92.9871 41.5518 93.4515 38.3792C94.3069 32.5334 97.5268 12.5389 105.277 3.96339C107.139 1.90094 109.266 0.50005 111.683 0.113482C112.051 0.0560036 98.9434 0.028955 98.4126 0.112355Z" fill="url(#paint0_radial_50_1466)"/>
<path d="M171.411 0.112367C164.399 1.22812 159.845 10.8946 157.012 20.4314C154.805 27.8562 153.643 35.2055 153.179 38.3781C152.323 44.224 149.1 64.2241 141.353 72.7973C139.489 74.8575 137.364 76.2607 134.947 76.645C134.58 76.7025 147.688 76.7295 148.218 76.645C155.229 75.5292 159.783 65.8628 162.617 56.3259C164.823 48.9011 165.985 41.5518 166.45 38.3792C167.305 32.5334 170.525 12.5389 178.275 3.9634C179.191 2.95021 180.754 2.00238 182.106 1.30137C182.698 0.994824 182.48 0.0999697 181.813 0.0965886C178.024 0.0774292 171.778 0.0548887 171.411 0.112367Z" fill="url(#paint1_radial_50_1466)"/>
<path d="M63.5167 0.0110198C52.9982 0.808951 46.6181 27.5701 44.3607 38.3793C43.7611 41.2577 42.8685 45.2643 41.6818 49.6101C38.9578 59.6113 34.6807 71.4123 28.854 75.3817C28.756 75.4482 28.6579 75.5136 28.5588 75.5755C28.0155 75.9193 28.25 76.7567 28.8935 76.7567C30.6708 76.76 32.4537 76.7589 32.6104 76.7476C43.1311 75.9497 49.5112 49.1886 51.7664 38.3793C52.3682 35.5009 53.2608 31.4944 54.4476 27.1463C57.1716 17.1451 61.4464 5.34634 67.2742 1.37697C68.4294 0.588055 69.6443 0.107944 70.9224 0.0110198C70.9224 0.0110198 63.8368 -0.0137747 63.5167 0.0110198Z" fill="url(#paint2_radial_50_1466)"/>
<path d="M20.4927 22.9137V21.7123C20.4927 21.3595 20.7789 21.0732 21.1317 21.0732H74.317C74.6697 21.0732 74.956 21.3595 74.956 21.7123V22.9137C74.956 23.2664 74.6697 23.5527 74.317 23.5527H21.1306C20.7778 23.5527 20.4927 23.2664 20.4927 22.9137Z" fill="#889696"/>
<path d="M20.4915 54.9317V53.7303C20.4915 53.3776 20.7777 53.0913 21.1305 53.0913H74.3157C74.6685 53.0913 74.9548 53.3776 74.9548 53.7303V54.9317C74.9548 55.2845 74.6685 55.5708 74.3157 55.5708H21.1305C20.7777 55.5708 20.4915 55.2845 20.4915 54.9317Z" fill="#889696"/>
<path d="M140.171 0.0110198C129.652 0.808951 123.272 27.5701 121.015 38.3793C120.415 41.2577 119.523 45.2643 118.336 49.6101C115.611 59.6113 111.334 71.4123 105.507 75.3817C104.352 76.1706 103.137 76.6507 101.859 76.7476C101.859 76.7476 108.944 76.7724 109.265 76.7476C119.785 75.9497 126.165 49.1886 128.421 38.3793C129.022 35.5009 129.915 31.4944 131.102 27.1463C133.827 17.1451 138.102 5.34634 143.928 1.37697C145.084 0.588055 146.298 0.107944 147.577 0.0110198C147.575 0.0110198 140.49 -0.0137747 140.171 0.0110198Z" fill="url(#paint3_radial_50_1466)"/>
<path d="M135.664 22.9137V21.7123C135.664 21.3595 135.95 21.0732 136.303 21.0732H189.869C190.222 21.0732 190.508 21.3595 190.508 21.7123V22.9137C190.508 23.2664 190.222 23.5527 189.869 23.5527H136.303C135.95 23.5527 135.664 23.2664 135.664 22.9137Z" fill="#889696"/>
<path d="M135.664 54.9317V53.7303C135.664 53.3776 135.95 53.0913 136.303 53.0913H189.869C190.222 53.0913 190.508 53.3776 190.508 53.7303V54.9317C190.508 55.2845 190.222 55.5708 189.869 55.5708H136.303C135.95 55.5708 135.664 55.2845 135.664 54.9317Z" fill="#889696"/>
<path d="M158.449 17.1554H138.577C136.801 17.1554 135.052 16.7158 133.485 15.8773L126.304 12.0297C122.316 9.89285 117.816 8.76357 113.293 8.76357H97.3385C92.6286 8.76357 87.9977 9.97061 83.8875 12.2709L77.6066 15.7849C75.9983 16.6843 74.1861 17.1576 72.3434 17.1576H52.5653C52.2125 17.1576 51.9263 16.8714 51.9263 16.5186V15.4006C51.9263 15.0478 52.2125 14.7616 52.5653 14.7616H72.3434C73.7736 14.7616 75.1891 14.393 76.4367 13.6943L82.7176 10.1802C87.1851 7.6805 92.2195 6.36865 97.3385 6.36865H113.293C118.211 6.36865 123.101 7.59598 127.436 9.91877L134.618 13.7664C135.836 14.419 137.197 14.7605 138.578 14.7605H158.45C158.803 14.7605 159.089 15.0467 159.089 15.3995V16.5175C159.088 16.8691 158.802 17.1554 158.449 17.1554Z" fill="#282828"/>
<path d="M113.293 70.4457H97.3385C92.2195 70.4457 87.1851 69.1339 82.7176 66.6341L76.4367 63.1201C75.1891 62.4213 73.7736 62.0528 72.3434 62.0528H52.5653C52.2125 62.0528 51.9263 61.7665 51.9263 61.4138V60.2958C51.9263 59.943 52.2125 59.6567 52.5653 59.6567H72.3434C74.1861 59.6567 75.9983 60.129 77.6066 61.0294L83.8875 64.5435C87.9977 66.8426 92.6286 68.0508 97.3385 68.0508H113.293C117.818 68.0508 122.317 66.9215 126.304 64.7847L133.487 60.9359C135.047 60.0997 136.808 59.6579 138.578 59.6579H158.45C158.803 59.6579 159.089 59.9441 159.089 60.2969V61.4149C159.089 61.7676 158.803 62.0539 158.45 62.0539H138.578C137.201 62.0539 135.832 62.3977 134.618 63.0479L127.436 66.8967C123.101 69.2184 118.21 70.4457 113.293 70.4457Z" fill="#282828"/>
<path d="M178.405 76.7476C167.887 75.9497 161.507 49.1886 159.249 38.3793C158.65 35.5009 157.757 31.4944 156.571 27.1486C153.845 17.1474 149.568 5.34634 143.742 1.37697C142.586 0.588055 141.372 0.107944 140.094 0.0110198C140.094 0.0110198 147.179 -0.0137747 147.499 0.0110198C158.02 0.808951 164.4 27.5701 166.655 38.3793C167.257 41.2577 168.15 45.2643 169.336 49.6123C172.061 59.6135 176.336 71.4123 182.163 75.3817C182.261 75.4482 182.359 75.5135 182.458 75.5755C183.001 75.9193 182.767 76.7567 182.124 76.7567C180.345 76.76 178.562 76.76 178.405 76.7476Z" fill="url(#paint4_radial_50_1466)"/>
<path d="M70.9685 0.0110198C81.487 0.808951 87.867 27.5701 90.1245 38.3793C90.724 41.2577 91.6166 45.2643 92.8034 49.6101C95.5285 59.6113 99.8056 71.4123 105.632 75.3817C106.787 76.1706 108.002 76.6507 109.28 76.7476C109.28 76.7476 102.195 76.7724 101.875 76.7476C91.354 75.9497 84.974 49.1886 82.7188 38.3793C82.117 35.5009 81.2244 31.4944 80.0376 27.1463C77.3136 17.1451 73.0388 5.34634 67.2121 1.37697C66.0569 0.588055 64.842 0.107944 63.564 0.0110198C63.5628 0.0110198 70.6484 -0.0137747 70.9685 0.0110198Z" fill="url(#paint5_radial_50_1466)"/>
<path d="M111.71 0.112355C118.722 1.22811 123.276 10.8946 126.109 20.4314C128.316 27.8562 129.478 35.2055 129.942 38.3781C130.798 44.224 134.021 64.2241 141.768 72.7973C143.632 74.8575 145.757 76.2607 148.174 76.645C148.541 76.7025 135.433 76.7295 134.903 76.645C127.892 75.5292 123.338 65.8628 120.505 56.3259C118.298 48.9011 117.135 41.5518 116.672 38.3792C115.816 32.5334 112.596 12.5389 104.846 3.96339C102.984 1.90094 100.857 0.50005 98.4397 0.113482C98.0723 0.0560036 111.18 0.028955 111.71 0.112355Z" fill="url(#paint6_radial_50_1466)"/>
<path d="M38.4834 0.112367C45.4946 1.22812 50.0489 10.8946 52.8822 20.4314C55.0889 27.8562 56.2509 35.2055 56.7152 38.3781C57.5706 44.224 60.7939 64.2241 68.5411 72.7973C70.4052 74.8575 72.5296 76.2607 74.9471 76.645C75.3145 76.7025 62.2061 76.7295 61.6764 76.645C54.6652 75.5292 50.1109 65.8628 47.2776 56.3259C45.0708 48.9011 43.9089 41.5518 43.4446 38.3792C42.5891 32.5334 39.3692 12.5389 31.6187 3.9634C30.7036 2.95021 29.1404 2.00238 27.788 1.30137C27.1963 0.994824 27.4138 0.0999697 28.081 0.0965886C31.8712 0.0774292 38.116 0.0548887 38.4834 0.112367Z" fill="url(#paint7_radial_50_1466)"/>
<defs>
<radialGradient id="paint0_radial_50_1466" cx="0" cy="0" r="1" gradientUnits="userSpaceOnUse" gradientTransform="translate(86.8149 38.3814) rotate(-75.0007) scale(47.5288 9.67894)">
<stop stop-color="#EE7272"/>
<stop offset="0.1092" stop-color="#E06161"/>
<stop offset="0.3495" stop-color="#C54242"/>
<stop offset="0.5828" stop-color="#B22B2B"/>
<stop offset="0.804" stop-color="#A71E1E"/>
<stop offset="1" stop-color="#A31919"/>
</radialGradient>
<radialGradient id="paint1_radial_50_1466" cx="0" cy="0" r="1" gradientUnits="userSpaceOnUse" gradientTransform="translate(158.692 38.3913) rotate(-75.0007) scale(46.8979 9.55046)">
<stop stop-color="#EE7272"/>
<stop offset="0.1092" stop-color="#E06161"/>
<stop offset="0.3495" stop-color="#C54242"/>
<stop offset="0.5828" stop-color="#B22B2B"/>
<stop offset="0.804" stop-color="#A71E1E"/>
<stop offset="1" stop-color="#A31919"/>
</radialGradient>
<radialGradient id="paint2_radial_50_1466" cx="0" cy="0" r="1" gradientUnits="userSpaceOnUse" gradientTransform="translate(49.5872 38.382) rotate(-75.0007) scale(45.6811 6.29525)">
<stop stop-color="#29ABE2"/>
<stop offset="0.1775" stop-color="#1D9AD7"/>
<stop offset="0.4718" stop-color="#0D83C8"/>
<stop offset="0.7517" stop-color="#0376BF"/>
<stop offset="1" stop-color="#0071BC"/>
</radialGradient>
<radialGradient id="paint3_radial_50_1466" cx="0" cy="0" r="1" gradientUnits="userSpaceOnUse" gradientTransform="translate(124.714 38.3839) rotate(-75.0007) scale(46.4728 6.40436)">
<stop stop-color="#29ABE2"/>
<stop offset="0.1775" stop-color="#1D9AD7"/>
<stop offset="0.4718" stop-color="#0D83C8"/>
<stop offset="0.7517" stop-color="#0376BF"/>
<stop offset="1" stop-color="#0071BC"/>
</radialGradient>
<radialGradient id="paint4_radial_50_1466" cx="0" cy="0" r="1" gradientUnits="userSpaceOnUse" gradientTransform="translate(161.424 38.3765) rotate(75.0007) scale(45.6811 6.29525)">
<stop stop-color="#29ABE2"/>
<stop offset="0.1775" stop-color="#1D9AD7"/>
<stop offset="0.4718" stop-color="#0D83C8"/>
<stop offset="0.7517" stop-color="#0376BF"/>
<stop offset="1" stop-color="#0071BC"/>
</radialGradient>
<radialGradient id="paint5_radial_50_1466" cx="0" cy="0" r="1" gradientUnits="userSpaceOnUse" gradientTransform="translate(86.4208 38.3784) rotate(75.0007) scale(46.4728 6.40435)">
<stop stop-color="#29ABE2"/>
<stop offset="0.1775" stop-color="#1D9AD7"/>
<stop offset="0.4718" stop-color="#0D83C8"/>
<stop offset="0.7517" stop-color="#0376BF"/>
<stop offset="1" stop-color="#0071BC"/>
</radialGradient>
<radialGradient id="paint6_radial_50_1466" cx="0" cy="0" r="1" gradientUnits="userSpaceOnUse" gradientTransform="translate(123.304 38.3761) rotate(75.0007) scale(47.5288 8.98026)">
<stop stop-color="#EE7272"/>
<stop offset="0.1092" stop-color="#E06161"/>
<stop offset="0.3495" stop-color="#C54242"/>
<stop offset="0.5828" stop-color="#B22B2B"/>
<stop offset="0.804" stop-color="#A71E1E"/>
<stop offset="1" stop-color="#A31919"/>
</radialGradient>
<radialGradient id="paint7_radial_50_1466" cx="0" cy="0" r="1" gradientUnits="userSpaceOnUse" gradientTransform="translate(51.1984 38.386) rotate(75.0007) scale(46.8979 8.86106)">
<stop stop-color="#EE7272"/>
<stop offset="0.1092" stop-color="#E06161"/>
<stop offset="0.3495" stop-color="#C54242"/>
<stop offset="0.5828" stop-color="#B22B2B"/>
<stop offset="0.804" stop-color="#A71E1E"/>
<stop offset="1" stop-color="#A31919"/>
</radialGradient>
</defs>
</svg>
