<svg width="21" height="25" viewBox="0 0 21 25" fill="none" xmlns="http://www.w3.org/2000/svg">
<path fill-rule="evenodd" clip-rule="evenodd" d="M7.43853 3.10896C8.40914 2.70693 9.44942 2.5 10.5 2.5C11.5506 2.5 12.5909 2.70693 13.5615 3.10896C14.5321 3.511 15.414 4.10028 16.1569 4.84315C16.8997 5.58601 17.489 6.46793 17.891 7.43853C18.2931 8.40914 18.5 9.44942 18.5 10.5C18.5 13.5981 16.4843 16.6042 14.274 18.9373C13.1894 20.0822 12.1013 21.0195 11.2833 21.6708C10.9789 21.9133 10.713 22.1152 10.5 22.2726C10.287 22.1152 10.0211 21.9133 9.71668 21.6708C8.89867 21.0195 7.81061 20.0822 6.72595 18.9373C4.51574 16.6042 2.5 13.5981 2.5 10.5C2.5 9.44942 2.70693 8.40914 3.10896 7.43853C3.511 6.46793 4.10028 5.58601 4.84315 4.84315C5.58601 4.10028 6.46793 3.511 7.43853 3.10896ZM9.94476 24.3317C9.94505 24.3319 9.9453 24.3321 10.5 23.5L11.0547 24.3321C10.7188 24.556 10.2807 24.5556 9.94476 24.3317ZM9.94476 24.3317L10.5 23.5C11.0547 24.3321 11.0557 24.3314 11.056 24.3312L11.0581 24.3298L11.0648 24.3253L11.0877 24.3098C11.1072 24.2966 11.1349 24.2776 11.1704 24.253C11.2415 24.2038 11.3435 24.1321 11.4722 24.0392C11.7295 23.8534 12.0936 23.5822 12.5292 23.2354C13.3987 22.543 14.5606 21.5428 15.726 20.3127C18.0157 17.8958 20.5 14.4019 20.5 10.5C20.5 9.18678 20.2413 7.88642 19.7388 6.67317C19.2362 5.45991 18.4997 4.35752 17.5711 3.42893C16.6425 2.50035 15.5401 1.76375 14.3268 1.2612C13.1136 0.758658 11.8132 0.5 10.5 0.5C9.18678 0.5 7.88642 0.758658 6.67317 1.2612C5.45991 1.76375 4.35752 2.50035 3.42893 3.42893C2.50035 4.35752 1.76375 5.45991 1.2612 6.67317C0.758658 7.88642 0.5 9.18678 0.5 10.5C0.5 14.4019 2.98426 17.8958 5.27405 20.3127C6.43939 21.5428 7.60133 22.543 8.47082 23.2354C8.90636 23.5822 9.27055 23.8534 9.52779 24.0392C9.65646 24.1321 9.75853 24.2038 9.82956 24.253C9.86508 24.2776 9.89285 24.2966 9.91232 24.3098L9.93524 24.3253L9.9419 24.3298L9.94476 24.3317ZM10.5 6.5C9.43913 6.5 8.42172 6.92143 7.67157 7.67157C6.92143 8.42172 6.5 9.43913 6.5 10.5C6.5 11.5609 6.92143 12.5783 7.67157 13.3284C8.42172 14.0786 9.43913 14.5 10.5 14.5C11.5609 14.5 12.5783 14.0786 13.3284 13.3284C14.0786 12.5783 14.5 11.5609 14.5 10.5C14.5 9.43913 14.0786 8.42172 13.3284 7.67157C12.5783 6.92143 11.5609 6.5 10.5 6.5ZM11.9142 11.9142C11.5391 12.2893 11.0304 12.5 10.5 12.5C9.96957 12.5 9.46086 12.2893 9.08579 11.9142C8.71071 11.5391 8.5 11.0304 8.5 10.5C8.5 9.96957 8.71071 9.46086 9.08579 9.08579C9.46086 8.71071 9.96957 8.5 10.5 8.5C11.0304 8.5 11.5391 8.71071 11.9142 9.08579C12.2893 9.46086 12.5 9.96957 12.5 10.5C12.5 11.0304 12.2893 11.5391 11.9142 11.9142Z" fill="white"/>
</svg>
