<svg width="22" height="22" viewBox="0 0 22 22" fill="none" xmlns="http://www.w3.org/2000/svg">
<path d="M21.0004 15.92V18.92C21.0018 19.1986 20.9449 19.4745 20.8334 19.7298C20.7218 19.9852 20.5581 20.2143 20.3527 20.4026C20.1473 20.5909 19.9048 20.7342 19.6407 20.8232C19.3767 20.9122 19.0969 20.945 18.8194 20.9195C15.7424 20.5849 12.7867 19.5332 10.1899 17.849C7.77377 16.3136 5.72528 14.2652 4.18995 11.849C2.49973 9.24024 1.44782 6.27003 1.11945 3.17899C1.09445 2.90243 1.12733 2.62371 1.21599 2.36056C1.30465 2.09742 1.44715 1.85563 1.6344 1.65059C1.82166 1.44555 2.04957 1.28177 2.30361 1.16967C2.55766 1.05757 2.83227 0.999608 3.10995 0.999485H6.10995C6.59527 0.99474 7.06575 1.16668 7.43365 1.48325C7.80155 1.79981 8.04175 2.23938 8.10945 2.71999C8.23627 3.6799 8.47126 4.62239 8.80995 5.52949C8.94466 5.88747 8.97386 6.27657 8.8941 6.65065C8.81434 7.02473 8.62896 7.36809 8.35995 7.63999L7.08945 8.90899C8.51302 11.4125 10.5859 13.4854 13.0894 14.909L14.3599 13.64C14.6319 13.3711 14.9753 13.1859 15.3493 13.1061C15.7234 13.0264 16.1124 13.0555 16.4704 13.19C17.3776 13.5281 18.3201 13.7626 19.2799 13.889C19.7659 13.9576 20.2097 14.2025 20.5269 14.5769C20.8441 14.9514 21.0126 15.4294 21.0004 15.92V15.92Z" stroke="#282828" stroke-width="2" stroke-linecap="round" stroke-linejoin="round"/>
</svg>
