<svg width="33" height="32" viewBox="0 0 33 32" fill="none" xmlns="http://www.w3.org/2000/svg">
<path d="M31.0008 23.38V27.88C31.0029 28.298 30.9175 28.7117 30.7501 29.0948C30.5828 29.4778 30.3372 29.8215 30.0291 30.104C29.721 30.3864 29.3573 30.6013 28.9612 30.7348C28.5651 30.8684 28.1455 30.9175 27.7293 30.8793C23.1137 30.3774 18.6802 28.7999 14.785 26.2735C11.1608 23.9705 8.08805 20.8978 5.78504 17.2735C3.24972 13.3604 1.67186 8.90507 1.17929 4.26851C1.1418 3.85368 1.19111 3.43559 1.3241 3.04088C1.45709 2.64616 1.67084 2.28347 1.95173 1.97592C2.23261 1.66836 2.57448 1.42268 2.95554 1.25453C3.33661 1.08638 3.74852 0.999442 4.16504 0.999258H8.66504C9.39303 0.992141 10.0988 1.25006 10.6506 1.7249C11.2024 2.19975 11.5627 2.8591 11.6643 3.58001C11.8545 5.01988 12.207 6.43362 12.715 7.79426C12.9171 8.33123 12.9609 8.91489 12.8413 9.47601C12.7216 10.0371 12.4436 10.5522 12.04 10.96L10.1343 12.8635C12.2697 16.6188 15.379 19.7281 19.1343 21.8635L21.04 19.96C21.448 19.5567 21.9631 19.2788 22.5241 19.1592C23.0852 19.0396 23.6688 19.0832 24.2058 19.285C25.5665 19.7922 26.9803 20.144 28.42 20.3335C29.149 20.4365 29.8146 20.8037 30.2904 21.3654C30.7663 21.9271 31.0191 22.6441 31.0008 23.38V23.38Z" stroke="url(#paint0_linear_54_10521)" stroke-width="2" stroke-linecap="round" stroke-linejoin="round"/>
<defs>
<linearGradient id="paint0_linear_54_10521" x1="0.884895" y1="1.78577" x2="37.0002" y2="15.196" gradientUnits="userSpaceOnUse">
<stop stop-color="#28A9E1"/>
<stop offset="1" stop-color="#0173BD"/>
</linearGradient>
</defs>
</svg>
