<svg width="23" height="23" viewBox="0 0 23 23" fill="none" xmlns="http://www.w3.org/2000/svg">
<path fill-rule="evenodd" clip-rule="evenodd" d="M11.5 0.5C5.42472 0.5 0.5 5.42472 0.5 11.5C0.5 17.5753 5.42472 22.5 11.5 22.5C17.5753 22.5 22.5 17.5753 22.5 11.5C22.5 5.42472 17.5753 0.5 11.5 0.5ZM2.5 11.5C2.5 6.52928 6.52928 2.5 11.5 2.5C16.4707 2.5 20.5 6.52928 20.5 11.5C20.5 16.4707 16.4707 20.5 11.5 20.5C6.52928 20.5 2.5 16.4707 2.5 11.5ZM12.5 5.5C12.5 4.94772 12.0523 4.5 11.5 4.5C10.9477 4.5 10.5 4.94772 10.5 5.5V11.5C10.5 11.8788 10.714 12.225 11.0528 12.3944L15.0528 14.3944C15.5468 14.6414 16.1474 14.4412 16.3944 13.9472C16.6414 13.4532 16.4412 12.8526 15.9472 12.6056L12.5 10.882V5.5Z" fill="white"/>
</svg>
