<svg width="22" height="18" viewBox="0 0 22 18" fill="none" xmlns="http://www.w3.org/2000/svg">
<path d="M20.75 0.751953H1.25C0.835156 0.751953 0.5 1.08711 0.5 1.50195V16.502C0.5 16.9168 0.835156 17.252 1.25 17.252H20.75C21.1648 17.252 21.5 16.9168 21.5 16.502V1.50195C21.5 1.08711 21.1648 0.751953 20.75 0.751953ZM19.8125 3.34883V15.5645H2.1875V3.34883L1.54063 2.84492L2.46172 1.66133L3.46484 2.4418H18.5375L19.5406 1.66133L20.4617 2.84492L19.8125 3.34883ZM18.5375 2.43945L11 8.29883L3.4625 2.43945L2.45938 1.65898L1.53828 2.84258L2.18516 3.34648L10.1914 9.57148C10.4217 9.75036 10.7049 9.84746 10.9965 9.84746C11.2881 9.84746 11.5713 9.75036 11.8016 9.57148L19.8125 3.34883L20.4594 2.84492L19.5383 1.66133L18.5375 2.43945Z" fill="#4D4D52"/>
</svg>
