<svg width="23" height="23" viewBox="0 0 23 23" fill="none" xmlns="http://www.w3.org/2000/svg">
<path d="M21.5004 16.4201V19.4201C21.5018 19.6987 21.4449 19.9746 21.3334 20.2299C21.2218 20.4853 21.0581 20.7145 20.8527 20.9028C20.6473 21.0911 20.4048 21.2343 20.1407 21.3233C19.8767 21.4123 19.5969 21.4451 19.3194 21.4196C16.2424 21.085 13.2867 20.0334 10.6899 18.3491C8.27377 16.8138 6.22528 14.7653 4.68995 12.3491C2.99973 9.74036 1.94782 6.77015 1.61945 3.67911C1.59445 3.40256 1.62733 3.12383 1.71599 2.86069C1.80465 2.59754 1.94715 2.35575 2.1344 2.15071C2.32166 1.94568 2.54957 1.78189 2.80361 1.66979C3.05766 1.55769 3.33227 1.49973 3.60995 1.49961H6.60995C7.09527 1.49486 7.56575 1.66681 7.93365 1.98337C8.30155 2.29993 8.54175 2.7395 8.60945 3.22011C8.73627 4.18002 8.97126 5.12252 9.30995 6.02961C9.44466 6.38759 9.47386 6.7767 9.3941 7.15078C9.31434 7.52485 9.12896 7.86821 8.85995 8.14011L7.58945 9.40911C9.01302 11.9126 11.0859 13.9855 13.5894 15.4091L14.8599 14.1401C15.1319 13.8713 15.4753 13.686 15.8493 13.6062C16.2234 13.5265 16.6124 13.5556 16.9704 13.6901C17.8776 14.0283 18.8201 14.2628 19.7799 14.3891C20.2659 14.4578 20.7097 14.7026 21.0269 15.077C21.3441 15.4515 21.5126 15.9295 21.5004 16.4201V16.4201Z" stroke="white" stroke-width="2" stroke-linecap="round" stroke-linejoin="round"/>
</svg>
