<svg width="36" height="36" viewBox="0 0 36 36" fill="none" xmlns="http://www.w3.org/2000/svg">
<path d="M34.7506 27.9089L26.7276 20.6454C26.3484 20.3022 25.85 20.1191 25.3378 20.1349C24.8255 20.1507 24.3395 20.364 23.9822 20.7299L19.2592 25.5664C18.1223 25.3502 15.8368 24.6408 13.4842 22.3041C11.1316 19.9595 10.4191 17.6779 10.2079 16.5538L15.0612 11.849C15.4291 11.4935 15.6437 11.0095 15.6595 10.4993C15.6753 9.98908 15.4912 9.49276 15.146 9.11535L7.85327 1.12861C7.50796 0.750023 7.02803 0.520379 6.51541 0.488455C6.0028 0.45653 5.49787 0.62484 5.10788 0.957637L0.824982 4.61495C0.483754 4.95595 0.280086 5.40979 0.252613 5.89039C0.223008 6.3817 -0.341466 18.0199 8.72169 27.0482C16.6283 34.919 26.5322 35.4948 29.2598 35.4948C29.6585 35.4948 29.9033 35.483 29.9684 35.4791C30.451 35.4522 30.9065 35.2485 31.2473 34.9072L34.9184 30.6406C35.2539 30.2535 35.4242 29.7512 35.3929 29.2408C35.3615 28.7304 35.1311 28.2524 34.7506 27.9089Z" fill="white"/>
</svg>
