<svg width="259" height="74" viewBox="0 0 259 74" fill="none" xmlns="http://www.w3.org/2000/svg">
<path d="M256.051 5.71807C255.293 5.71807 254.565 5.41683 254.029 4.88065C253.493 4.34448 253.192 3.61726 253.192 2.859C253.192 2.10074 253.493 1.37359 254.029 0.837415C254.565 0.301242 255.293 0 256.051 0C256.809 0 257.536 0.301242 258.072 0.837415C258.609 1.37359 258.91 2.10074 258.91 2.859C258.91 3.61726 258.609 4.34448 258.072 4.88065C257.536 5.41683 256.809 5.71807 256.051 5.71807Z" fill="url(#paint0_linear_139_31986)"/>
<path d="M239.192 5.71809C238.627 5.71809 238.074 5.55037 237.604 5.23622C237.134 4.92207 236.767 4.47554 236.551 3.95312C236.335 3.4307 236.278 2.85586 236.388 2.30126C236.499 1.74666 236.771 1.23728 237.171 0.837435C237.571 0.437592 238.08 0.165253 238.635 0.0549364C239.189 -0.05538 239.764 0.00123996 240.286 0.217633C240.809 0.434027 241.255 0.800507 241.57 1.27067C241.884 1.74084 242.051 2.29356 242.051 2.85902C242.041 3.6139 241.736 4.33484 241.202 4.86868C240.668 5.40251 239.947 5.70722 239.192 5.71809Z" fill="url(#paint1_linear_139_31986)"/>
<path d="M222.333 5.71809C221.768 5.71809 221.215 5.55037 220.745 5.23622C220.274 4.92207 219.908 4.47554 219.692 3.95312C219.475 3.4307 219.419 2.85586 219.529 2.30126C219.639 1.74666 219.912 1.23728 220.311 0.837435C220.711 0.437592 221.221 0.165253 221.775 0.0549364C222.33 -0.05538 222.905 0.00123996 223.427 0.217633C223.95 0.434027 224.396 0.800507 224.71 1.27067C225.024 1.74084 225.192 2.29356 225.192 2.85902C225.192 3.61728 224.891 4.3445 224.355 4.88067C223.818 5.41685 223.091 5.71809 222.333 5.71809Z" fill="url(#paint2_linear_139_31986)"/>
<path d="M205.475 5.71809C204.909 5.71809 204.356 5.55037 203.886 5.23622C203.416 4.92207 203.05 4.47554 202.833 3.95312C202.617 3.4307 202.56 2.85586 202.67 2.30126C202.781 1.74666 203.053 1.23728 203.453 0.837435C203.853 0.437592 204.362 0.165253 204.917 0.0549364C205.471 -0.05538 206.046 0.00123996 206.569 0.217633C207.091 0.434027 207.538 0.800507 207.852 1.27067C208.166 1.74084 208.334 2.29356 208.334 2.85902C208.334 3.61728 208.032 4.3445 207.496 4.88067C206.96 5.41685 206.233 5.71809 205.475 5.71809Z" fill="url(#paint3_linear_139_31986)"/>
<path d="M188.57 5.71809C188.005 5.71809 187.452 5.55037 186.982 5.23622C186.512 4.92207 186.145 4.47554 185.929 3.95312C185.713 3.4307 185.656 2.85586 185.766 2.30126C185.877 1.74666 186.149 1.23728 186.549 0.837435C186.949 0.437592 187.458 0.165253 188.013 0.0549364C188.567 -0.05538 189.142 0.00123996 189.664 0.217633C190.187 0.434027 190.633 0.800507 190.948 1.27067C191.262 1.74084 191.429 2.29356 191.429 2.85902C191.429 3.61728 191.128 4.3445 190.592 4.88067C190.056 5.41685 189.329 5.71809 188.57 5.71809Z" fill="url(#paint4_linear_139_31986)"/>
<path d="M171.707 5.71807C170.949 5.71807 170.222 5.41683 169.685 4.88065C169.149 4.34448 168.848 3.61726 168.848 2.859C168.848 2.10074 169.149 1.37359 169.685 0.837415C170.222 0.301242 170.949 0 171.707 0C172.465 0 173.192 0.301242 173.729 0.837415C174.265 1.37359 174.566 2.10074 174.566 2.859C174.566 3.61726 174.265 4.34448 173.729 4.88065C173.192 5.41683 172.465 5.71807 171.707 5.71807Z" fill="url(#paint5_linear_139_31986)"/>
<path d="M154.849 5.71807C154.09 5.71807 153.363 5.41683 152.827 4.88065C152.291 4.34448 151.99 3.61726 151.99 2.859C151.99 2.10074 152.291 1.37359 152.827 0.837415C153.363 0.301242 154.09 0 154.849 0C155.607 0 156.334 0.301242 156.87 0.837415C157.406 1.37359 157.708 2.10074 157.708 2.859C157.708 3.61726 157.406 4.34448 156.87 4.88065C156.334 5.41683 155.607 5.71807 154.849 5.71807Z" fill="url(#paint6_linear_139_31986)"/>
<path d="M137.989 5.71809C137.424 5.71809 136.871 5.55037 136.401 5.23622C135.931 4.92207 135.564 4.47554 135.348 3.95312C135.131 3.4307 135.075 2.85586 135.185 2.30126C135.295 1.74666 135.568 1.23728 135.968 0.837435C136.367 0.437592 136.877 0.165253 137.432 0.0549364C137.986 -0.05538 138.561 0.00123996 139.083 0.217633C139.606 0.434027 140.052 0.800507 140.366 1.27067C140.681 1.74084 140.848 2.29356 140.848 2.85902C140.848 3.61728 140.547 4.3445 140.011 4.88067C139.475 5.41685 138.748 5.71809 137.989 5.71809Z" fill="url(#paint7_linear_139_31986)"/>
<path d="M121.131 5.71809C120.565 5.71809 120.013 5.55037 119.542 5.23622C119.072 4.92207 118.706 4.47554 118.489 3.95312C118.273 3.4307 118.216 2.85586 118.327 2.30126C118.437 1.74666 118.709 1.23728 119.109 0.837435C119.509 0.437592 120.018 0.165253 120.573 0.0549364C121.128 -0.05538 121.702 0.00123996 122.225 0.217633C122.747 0.434027 123.194 0.800507 123.508 1.27067C123.822 1.74084 123.99 2.29356 123.99 2.85902C123.99 3.61728 123.689 4.3445 123.152 4.88067C122.616 5.41685 121.889 5.71809 121.131 5.71809Z" fill="url(#paint8_linear_139_31986)"/>
<path d="M104.271 5.71809C103.706 5.71809 103.153 5.55037 102.683 5.23622C102.213 4.92207 101.846 4.47554 101.63 3.95312C101.414 3.4307 101.357 2.85586 101.467 2.30126C101.578 1.74666 101.85 1.23728 102.25 0.837435C102.65 0.437592 103.159 0.165253 103.714 0.0549364C104.268 -0.05538 104.843 0.00123996 105.366 0.217633C105.888 0.434027 106.335 0.800507 106.649 1.27067C106.963 1.74084 107.13 2.29356 107.13 2.85902C107.13 3.61728 106.829 4.3445 106.293 4.88067C105.757 5.41685 105.03 5.71809 104.271 5.71809Z" fill="url(#paint9_linear_139_31986)"/>
<path d="M87.3671 5.71809C86.8017 5.71809 86.2489 5.55037 85.7788 5.23622C85.3086 4.92207 84.9421 4.47554 84.7257 3.95312C84.5093 3.4307 84.4527 2.85586 84.563 2.30126C84.6734 1.74666 84.9456 1.23728 85.3455 0.837435C85.7453 0.437592 86.2548 0.165253 86.8094 0.0549364C87.364 -0.05538 87.9388 0.00123996 88.4612 0.217633C88.9836 0.434027 89.4302 0.800507 89.7443 1.27067C90.0585 1.74084 90.2262 2.29356 90.2262 2.85902C90.2262 3.61728 89.925 4.3445 89.3888 4.88067C88.8526 5.41685 88.1254 5.71809 87.3671 5.71809Z" fill="url(#paint10_linear_139_31986)"/>
<path d="M70.5088 5.71807C69.7505 5.71807 69.0233 5.41683 68.4871 4.88065C67.951 4.34448 67.6497 3.61726 67.6497 2.859C67.6497 2.10074 67.951 1.37359 68.4871 0.837415C69.0233 0.301242 69.7505 0 70.5088 0C71.2671 0 71.9943 0.301242 72.5304 0.837415C73.0666 1.37359 73.3678 2.10074 73.3678 2.859C73.3678 3.61726 73.0666 4.34448 72.5304 4.88065C71.9943 5.41683 71.2671 5.71807 70.5088 5.71807Z" fill="url(#paint11_linear_139_31986)"/>
<path d="M53.6455 5.71807C52.8873 5.71807 52.16 5.41683 51.6239 4.88065C51.0877 4.34448 50.7864 3.61726 50.7864 2.859C50.7864 2.10074 51.0877 1.37359 51.6239 0.837415C52.16 0.301242 52.8873 0 53.6455 0C54.4038 0 55.1309 0.301242 55.6671 0.837415C56.2033 1.37359 56.5045 2.10074 56.5045 2.859C56.5045 3.61726 56.2033 4.34448 55.6671 4.88065C55.1309 5.41683 54.4038 5.71807 53.6455 5.71807Z" fill="url(#paint12_linear_139_31986)"/>
<path d="M36.7871 5.71809C36.2216 5.71809 35.6688 5.55037 35.1986 5.23622C34.7285 4.92207 34.3621 4.47554 34.1457 3.95312C33.9293 3.4307 33.8727 2.85586 33.983 2.30126C34.0933 1.74666 34.3656 1.23728 34.7654 0.837435C35.1652 0.437592 35.6747 0.165253 36.2293 0.0549364C36.7839 -0.05538 37.3587 0.00123996 37.8812 0.217633C38.4036 0.434027 38.8501 0.800507 39.1643 1.27067C39.4784 1.74084 39.6461 2.29356 39.6461 2.85902C39.6461 3.61728 39.3449 4.3445 38.8087 4.88067C38.2725 5.41685 37.5453 5.71809 36.7871 5.71809Z" fill="url(#paint13_linear_139_31986)"/>
<path d="M19.7188 5.71809C19.1533 5.71809 18.6005 5.55037 18.1303 5.23622C17.6602 4.92207 17.2938 4.47554 17.0774 3.95312C16.861 3.4307 16.8044 2.85586 16.9147 2.30126C17.025 1.74666 17.2973 1.23728 17.6971 0.837435C18.0969 0.437592 18.6064 0.165253 19.161 0.0549364C19.7156 -0.05538 20.2904 0.00123996 20.8129 0.217633C21.3353 0.434027 21.7818 0.800507 22.096 1.27067C22.4101 1.74084 22.5778 2.29356 22.5778 2.85902C22.5778 3.61728 22.2766 4.3445 21.7404 4.88067C21.2042 5.41685 20.477 5.71809 19.7188 5.71809Z" fill="url(#paint14_linear_139_31986)"/>
<path d="M2.9004 5.71807C2.14214 5.71807 1.41492 5.41683 0.878747 4.88065C0.342574 4.34448 0.0413957 3.61726 0.0413957 2.859C0.0413957 2.10074 0.342574 1.37359 0.878747 0.837415C1.41492 0.301242 2.14214 0 2.9004 0C3.65866 0 4.38588 0.301242 4.92205 0.837415C5.45822 1.37359 5.7594 2.10074 5.7594 2.859C5.7594 3.61726 5.45822 4.34448 4.92205 4.88065C4.38588 5.41683 3.65866 5.71807 2.9004 5.71807Z" fill="url(#paint15_linear_139_31986)"/>
<path d="M256.051 22.5789C255.293 22.5789 254.565 22.2777 254.029 21.7416C253.493 21.2054 253.192 20.4782 253.192 19.7199C253.192 18.9616 253.493 18.2344 254.029 17.6983C254.565 17.1621 255.293 16.8608 256.051 16.8608C256.809 16.8608 257.536 17.1621 258.072 17.6983C258.609 18.2344 258.91 18.9616 258.91 19.7199C258.91 20.4782 258.609 21.2054 258.072 21.7416C257.536 22.2777 256.809 22.5789 256.051 22.5789Z" fill="url(#paint16_linear_139_31986)"/>
<path d="M239.192 22.5789C238.627 22.5789 238.074 22.4112 237.604 22.0971C237.134 21.7829 236.767 21.3364 236.551 20.814C236.335 20.2915 236.278 19.7167 236.388 19.1621C236.499 18.6075 236.771 18.0981 237.171 17.6982C237.571 17.2984 238.08 17.0261 238.635 16.9158C239.189 16.8055 239.764 16.8621 240.286 17.0785C240.809 17.2949 241.255 17.6613 241.57 18.1314C241.884 18.6016 242.051 19.1544 242.051 19.7199C242.041 20.4747 241.736 21.1956 241.202 21.7295C240.668 22.2633 239.947 22.568 239.192 22.5789Z" fill="url(#paint17_linear_139_31986)"/>
<path d="M222.333 22.5789C221.768 22.5789 221.215 22.4112 220.745 22.0971C220.274 21.7829 219.908 21.3364 219.692 20.814C219.475 20.2915 219.419 19.7167 219.529 19.1621C219.639 18.6075 219.912 18.0981 220.311 17.6982C220.711 17.2984 221.221 17.0261 221.775 16.9158C222.33 16.8055 222.905 16.8621 223.427 17.0785C223.95 17.2949 224.396 17.6613 224.71 18.1314C225.024 18.6016 225.192 19.1544 225.192 19.7199C225.192 20.4781 224.891 21.2053 224.355 21.7415C223.818 22.2777 223.091 22.5789 222.333 22.5789Z" fill="url(#paint18_linear_139_31986)"/>
<path d="M205.475 22.5789C204.909 22.5789 204.356 22.4112 203.886 22.0971C203.416 21.7829 203.05 21.3364 202.833 20.814C202.617 20.2915 202.56 19.7167 202.67 19.1621C202.781 18.6075 203.053 18.0981 203.453 17.6982C203.853 17.2984 204.362 17.0261 204.917 16.9158C205.471 16.8055 206.046 16.8621 206.569 17.0785C207.091 17.2949 207.538 17.6613 207.852 18.1314C208.166 18.6016 208.334 19.1544 208.334 19.7199C208.334 20.4781 208.032 21.2053 207.496 21.7415C206.96 22.2777 206.233 22.5789 205.475 22.5789Z" fill="url(#paint19_linear_139_31986)"/>
<path d="M188.57 22.5789C188.005 22.5789 187.452 22.4112 186.982 22.0971C186.512 21.7829 186.145 21.3364 185.929 20.814C185.713 20.2915 185.656 19.7167 185.766 19.1621C185.877 18.6075 186.149 18.0981 186.549 17.6982C186.949 17.2984 187.458 17.0261 188.013 16.9158C188.567 16.8055 189.142 16.8621 189.664 17.0785C190.187 17.2949 190.633 17.6613 190.948 18.1314C191.262 18.6016 191.429 19.1544 191.429 19.7199C191.429 20.4781 191.128 21.2053 190.592 21.7415C190.056 22.2777 189.329 22.5789 188.57 22.5789Z" fill="url(#paint20_linear_139_31986)"/>
<path d="M171.707 22.5789C170.949 22.5789 170.222 22.2777 169.685 21.7416C169.149 21.2054 168.848 20.4782 168.848 19.7199C168.848 18.9616 169.149 18.2344 169.685 17.6983C170.222 17.1621 170.949 16.8608 171.707 16.8608C172.465 16.8608 173.192 17.1621 173.729 17.6983C174.265 18.2344 174.566 18.9616 174.566 19.7199C174.566 20.4782 174.265 21.2054 173.729 21.7416C173.192 22.2777 172.465 22.5789 171.707 22.5789Z" fill="url(#paint21_linear_139_31986)"/>
<path d="M154.849 22.5789C154.473 22.5789 154.101 22.505 153.754 22.3613C153.408 22.2176 153.092 22.007 152.827 21.7416C152.561 21.4761 152.351 21.1609 152.207 20.814C152.064 20.4671 151.99 20.0954 151.99 19.7199C151.99 19.3445 152.064 18.9727 152.207 18.6258C152.351 18.2789 152.561 17.9637 152.827 17.6983C153.092 17.4328 153.408 17.2222 153.754 17.0785C154.101 16.9348 154.473 16.8608 154.849 16.8608C155.607 16.8608 156.334 17.1621 156.87 17.6983C157.406 18.2344 157.708 18.9616 157.708 19.7199C157.708 20.4782 157.406 21.2054 156.87 21.7416C156.334 22.2777 155.607 22.5789 154.849 22.5789Z" fill="url(#paint22_linear_139_31986)"/>
<path d="M137.989 22.5789C137.424 22.5789 136.871 22.4112 136.401 22.0971C135.931 21.7829 135.564 21.3364 135.348 20.814C135.131 20.2915 135.075 19.7167 135.185 19.1621C135.295 18.6075 135.568 18.0981 135.968 17.6982C136.367 17.2984 136.877 17.0261 137.432 16.9158C137.986 16.8055 138.561 16.8621 139.083 17.0785C139.606 17.2949 140.052 17.6613 140.366 18.1314C140.681 18.6016 140.848 19.1544 140.848 19.7199C140.848 20.4781 140.547 21.2053 140.011 21.7415C139.475 22.2777 138.748 22.5789 137.989 22.5789Z" fill="url(#paint23_linear_139_31986)"/>
<path d="M121.131 22.5789C120.565 22.5789 120.013 22.4112 119.542 22.0971C119.072 21.7829 118.706 21.3364 118.489 20.814C118.273 20.2915 118.216 19.7167 118.327 19.1621C118.437 18.6075 118.709 18.0981 119.109 17.6982C119.509 17.2984 120.018 17.0261 120.573 16.9158C121.128 16.8055 121.702 16.8621 122.225 17.0785C122.747 17.2949 123.194 17.6613 123.508 18.1314C123.822 18.6016 123.99 19.1544 123.99 19.7199C123.99 20.4781 123.689 21.2053 123.152 21.7415C122.616 22.2777 121.889 22.5789 121.131 22.5789Z" fill="url(#paint24_linear_139_31986)"/>
<path d="M104.271 22.5789C103.706 22.5789 103.153 22.4112 102.683 22.0971C102.213 21.7829 101.846 21.3364 101.63 20.814C101.414 20.2915 101.357 19.7167 101.467 19.1621C101.578 18.6075 101.85 18.0981 102.25 17.6982C102.65 17.2984 103.159 17.0261 103.714 16.9158C104.268 16.8055 104.843 16.8621 105.366 17.0785C105.888 17.2949 106.335 17.6613 106.649 18.1314C106.963 18.6016 107.13 19.1544 107.13 19.7199C107.13 20.4781 106.829 21.2053 106.293 21.7415C105.757 22.2777 105.03 22.5789 104.271 22.5789Z" fill="url(#paint25_linear_139_31986)"/>
<path d="M87.3671 22.5789C86.8017 22.5789 86.2489 22.4112 85.7788 22.0971C85.3086 21.7829 84.9421 21.3364 84.7257 20.814C84.5093 20.2915 84.4527 19.7167 84.563 19.1621C84.6734 18.6075 84.9456 18.0981 85.3455 17.6982C85.7453 17.2984 86.2548 17.0261 86.8094 16.9158C87.364 16.8055 87.9388 16.8621 88.4612 17.0785C88.9836 17.2949 89.4302 17.6613 89.7443 18.1314C90.0585 18.6016 90.2262 19.1544 90.2262 19.7199C90.2262 20.4781 89.925 21.2053 89.3888 21.7415C88.8526 22.2777 88.1254 22.5789 87.3671 22.5789Z" fill="url(#paint26_linear_139_31986)"/>
<path d="M70.5088 22.5789C69.7505 22.5789 69.0233 22.2777 68.4871 21.7416C67.951 21.2054 67.6497 20.4782 67.6497 19.7199C67.6497 18.9616 67.951 18.2344 68.4871 17.6983C69.0233 17.1621 69.7505 16.8608 70.5088 16.8608C71.2671 16.8608 71.9943 17.1621 72.5304 17.6983C73.0666 18.2344 73.3678 18.9616 73.3678 19.7199C73.3678 20.4782 73.0666 21.2054 72.5304 21.7416C71.9943 22.2777 71.2671 22.5789 70.5088 22.5789Z" fill="url(#paint27_linear_139_31986)"/>
<path d="M53.6455 22.5789C52.8873 22.5789 52.16 22.2777 51.6239 21.7416C51.0877 21.2054 50.7864 20.4782 50.7864 19.7199C50.7864 18.9616 51.0877 18.2344 51.6239 17.6983C52.16 17.1621 52.8873 16.8608 53.6455 16.8608C54.4038 16.8608 55.1309 17.1621 55.6671 17.6983C56.2033 18.2344 56.5045 18.9616 56.5045 19.7199C56.5045 20.4782 56.2033 21.2054 55.6671 21.7416C55.1309 22.2777 54.4038 22.5789 53.6455 22.5789Z" fill="url(#paint28_linear_139_31986)"/>
<path d="M36.7871 22.5789C36.2216 22.5789 35.6688 22.4112 35.1986 22.0971C34.7285 21.7829 34.3621 21.3364 34.1457 20.814C33.9293 20.2915 33.8727 19.7167 33.983 19.1621C34.0933 18.6075 34.3656 18.0981 34.7654 17.6982C35.1652 17.2984 35.6747 17.0261 36.2293 16.9158C36.7839 16.8055 37.3587 16.8621 37.8812 17.0785C38.4036 17.2949 38.8501 17.6613 39.1643 18.1314C39.4784 18.6016 39.6461 19.1544 39.6461 19.7199C39.6461 20.4781 39.3449 21.2053 38.8087 21.7415C38.2725 22.2777 37.5453 22.5789 36.7871 22.5789Z" fill="url(#paint29_linear_139_31986)"/>
<path d="M19.7188 22.5789C19.1533 22.5789 18.6005 22.4112 18.1303 22.0971C17.6602 21.7829 17.2938 21.3364 17.0774 20.814C16.861 20.2915 16.8044 19.7167 16.9147 19.1621C17.025 18.6075 17.2973 18.0981 17.6971 17.6982C18.0969 17.2984 18.6064 17.0261 19.161 16.9158C19.7156 16.8055 20.2904 16.8621 20.8129 17.0785C21.3353 17.2949 21.7818 17.6613 22.096 18.1314C22.4101 18.6016 22.5778 19.1544 22.5778 19.7199C22.5778 20.4781 22.2766 21.2053 21.7404 21.7415C21.2042 22.2777 20.477 22.5789 19.7188 22.5789Z" fill="url(#paint30_linear_139_31986)"/>
<path d="M2.9004 22.5789C2.52494 22.5789 2.15317 22.505 1.8063 22.3613C1.45942 22.2176 1.14423 22.007 0.878747 21.7416C0.613261 21.4761 0.402689 21.1609 0.259009 20.814C0.11533 20.4671 0.0413957 20.0954 0.0413957 19.7199C0.0413957 19.3445 0.11533 18.9727 0.259009 18.6258C0.402689 18.2789 0.613261 17.9637 0.878747 17.6983C1.14423 17.4328 1.45942 17.2222 1.8063 17.0785C2.15317 16.9348 2.52494 16.8608 2.9004 16.8608C3.65866 16.8608 4.38588 17.1621 4.92205 17.6983C5.45822 18.2344 5.7594 18.9616 5.7594 19.7199C5.7594 20.4782 5.45822 21.2054 4.92205 21.7416C4.38588 22.2777 3.65866 22.5789 2.9004 22.5789Z" fill="url(#paint31_linear_139_31986)"/>
<path d="M256.051 39.4378C255.485 39.4378 254.933 39.2701 254.462 38.9559C253.992 38.6418 253.626 38.1953 253.409 37.6728C253.193 37.1504 253.136 36.5756 253.247 36.021C253.357 35.4664 253.629 34.9569 254.029 34.5571C254.429 34.1573 254.938 33.885 255.493 33.7747C256.048 33.6643 256.622 33.721 257.145 33.9374C257.667 34.1538 258.114 34.5202 258.428 34.9903C258.742 35.4605 258.91 36.0133 258.91 36.5787C258.91 36.9542 258.836 37.326 258.692 37.6728C258.548 38.0197 258.338 38.3349 258.072 38.6004C257.807 38.8659 257.492 39.0765 257.145 39.2201C256.798 39.3638 256.426 39.4378 256.051 39.4378Z" fill="url(#paint32_linear_139_31986)"/>
<path d="M239.192 39.4378C238.627 39.4378 238.074 39.2701 237.604 38.9559C237.134 38.6418 236.767 38.1953 236.551 37.6728C236.335 37.1504 236.278 36.5756 236.388 36.021C236.499 35.4664 236.771 34.9569 237.171 34.5571C237.571 34.1573 238.08 33.885 238.635 33.7747C239.189 33.6643 239.764 33.721 240.286 33.9374C240.809 34.1538 241.255 34.5202 241.57 34.9903C241.884 35.4605 242.051 36.0133 242.051 36.5787C242.051 36.9542 241.977 37.326 241.834 37.6728C241.69 38.0197 241.479 38.3349 241.214 38.6004C240.948 38.8659 240.633 39.0765 240.286 39.2201C239.94 39.3638 239.568 39.4378 239.192 39.4378Z" fill="url(#paint33_linear_139_31986)"/>
<path d="M222.333 39.4378C221.575 39.4378 220.848 39.1366 220.311 38.6004C219.775 38.0642 219.474 37.337 219.474 36.5787C219.474 35.8205 219.775 35.0932 220.311 34.5571C220.848 34.0209 221.575 33.7197 222.333 33.7197C223.091 33.7197 223.818 34.0209 224.355 34.5571C224.891 35.0932 225.192 35.8205 225.192 36.5787C225.192 37.337 224.891 38.0642 224.355 38.6004C223.818 39.1366 223.091 39.4378 222.333 39.4378Z" fill="url(#paint34_linear_139_31986)"/>
<path d="M205.475 39.4378C204.716 39.4378 203.989 39.1366 203.453 38.6004C202.917 38.0642 202.616 37.337 202.616 36.5787C202.616 35.8205 202.917 35.0932 203.453 34.5571C203.989 34.0209 204.716 33.7197 205.475 33.7197C206.233 33.7197 206.96 34.0209 207.496 34.5571C208.032 35.0932 208.334 35.8205 208.334 36.5787C208.334 37.337 208.032 38.0642 207.496 38.6004C206.96 39.1366 206.233 39.4378 205.475 39.4378Z" fill="url(#paint35_linear_139_31986)"/>
<path d="M188.57 39.4378C187.812 39.4378 187.085 39.1366 186.549 38.6004C186.012 38.0642 185.711 37.337 185.711 36.5787C185.711 35.8205 186.012 35.0932 186.549 34.5571C187.085 34.0209 187.812 33.7197 188.57 33.7197C189.329 33.7197 190.056 34.0209 190.592 34.5571C191.128 35.0932 191.429 35.8205 191.429 36.5787C191.429 37.337 191.128 38.0642 190.592 38.6004C190.056 39.1366 189.329 39.4378 188.57 39.4378Z" fill="url(#paint36_linear_139_31986)"/>
<path d="M171.707 39.4378C171.142 39.4378 170.589 39.2701 170.119 38.9559C169.648 38.6418 169.282 38.1953 169.066 37.6728C168.849 37.1504 168.793 36.5756 168.903 36.021C169.013 35.4664 169.286 34.9569 169.685 34.5571C170.085 34.1573 170.595 33.885 171.149 33.7747C171.704 33.6643 172.279 33.721 172.801 33.9374C173.323 34.1538 173.77 34.5202 174.084 34.9903C174.398 35.4605 174.566 36.0133 174.566 36.5787C174.566 36.9542 174.492 37.326 174.348 37.6728C174.205 38.0197 173.994 38.3349 173.729 38.6004C173.463 38.8659 173.148 39.0765 172.801 39.2201C172.454 39.3638 172.082 39.4378 171.707 39.4378Z" fill="url(#paint37_linear_139_31986)"/>
<path d="M154.849 39.4378C154.283 39.4378 153.73 39.2701 153.26 38.9559C152.79 38.6418 152.424 38.1953 152.207 37.6728C151.991 37.1504 151.934 36.5756 152.044 36.021C152.155 35.4664 152.427 34.9569 152.827 34.5571C153.227 34.1573 153.736 33.885 154.291 33.7747C154.845 33.6643 155.42 33.721 155.943 33.9374C156.465 34.1538 156.912 34.5202 157.226 34.9903C157.54 35.4605 157.708 36.0133 157.708 36.5787C157.708 36.9542 157.634 37.326 157.49 37.6728C157.346 38.0197 157.136 38.3349 156.87 38.6004C156.605 38.8659 156.29 39.0765 155.943 39.2201C155.596 39.3638 155.224 39.4378 154.849 39.4378Z" fill="url(#paint38_linear_139_31986)"/>
<path d="M137.989 39.4378C137.231 39.4378 136.504 39.1366 135.968 38.6004C135.431 38.0642 135.13 37.337 135.13 36.5787C135.13 35.8205 135.431 35.0932 135.968 34.5571C136.504 34.0209 137.231 33.7197 137.989 33.7197C138.748 33.7197 139.475 34.0209 140.011 34.5571C140.547 35.0932 140.848 35.8205 140.848 36.5787C140.848 37.337 140.547 38.0642 140.011 38.6004C139.475 39.1366 138.748 39.4378 137.989 39.4378Z" fill="url(#paint39_linear_139_31986)"/>
<path d="M121.131 39.4378C120.373 39.4378 119.645 39.1366 119.109 38.6004C118.573 38.0642 118.272 37.337 118.272 36.5787C118.272 35.8205 118.573 35.0932 119.109 34.5571C119.645 34.0209 120.373 33.7197 121.131 33.7197C121.889 33.7197 122.616 34.0209 123.152 34.5571C123.689 35.0932 123.99 35.8205 123.99 36.5787C123.99 37.337 123.689 38.0642 123.152 38.6004C122.616 39.1366 121.889 39.4378 121.131 39.4378Z" fill="url(#paint40_linear_139_31986)"/>
<path d="M104.271 39.4378C103.513 39.4378 102.786 39.1366 102.25 38.6004C101.714 38.0642 101.412 37.337 101.412 36.5787C101.412 35.8205 101.714 35.0932 102.25 34.5571C102.786 34.0209 103.513 33.7197 104.271 33.7197C105.03 33.7197 105.757 34.0209 106.293 34.5571C106.829 35.0932 107.13 35.8205 107.13 36.5787C107.13 37.337 106.829 38.0642 106.293 38.6004C105.757 39.1366 105.03 39.4378 104.271 39.4378Z" fill="url(#paint41_linear_139_31986)"/>
<path d="M87.3671 39.4378C86.6089 39.4378 85.8817 39.1366 85.3455 38.6004C84.8093 38.0642 84.5081 37.337 84.5081 36.5787C84.5081 35.8205 84.8093 35.0932 85.3455 34.5571C85.8817 34.0209 86.6089 33.7197 87.3671 33.7197C88.1254 33.7197 88.8526 34.0209 89.3888 34.5571C89.925 35.0932 90.2262 35.8205 90.2262 36.5787C90.2262 37.337 89.925 38.0642 89.3888 38.6004C88.8526 39.1366 88.1254 39.4378 87.3671 39.4378Z" fill="url(#paint42_linear_139_31986)"/>
<path d="M70.5088 39.4378C69.9433 39.4378 69.3905 39.2701 68.9204 38.9559C68.4502 38.6418 68.0838 38.1953 67.8674 37.6728C67.651 37.1504 67.5944 36.5756 67.7047 36.021C67.815 35.4664 68.0873 34.9569 68.4871 34.5571C68.887 34.1573 69.3964 33.885 69.951 33.7747C70.5056 33.6643 71.0805 33.721 71.6029 33.9374C72.1253 34.1538 72.5718 34.5202 72.886 34.9903C73.2001 35.4605 73.3678 36.0133 73.3678 36.5787C73.3678 36.9542 73.2939 37.326 73.1502 37.6728C73.0065 38.0197 72.7959 38.3349 72.5304 38.6004C72.265 38.8659 71.9498 39.0765 71.6029 39.2201C71.256 39.3638 70.8842 39.4378 70.5088 39.4378Z" fill="url(#paint43_linear_139_31986)"/>
<path d="M53.6455 39.4378C53.0801 39.4378 52.5273 39.2701 52.0571 38.9559C51.5869 38.6418 51.2205 38.1953 51.0041 37.6728C50.7877 37.1504 50.731 36.5756 50.8414 36.021C50.9517 35.4664 51.224 34.9569 51.6239 34.5571C52.0237 34.1573 52.5331 33.885 53.0877 33.7747C53.6423 33.6643 54.2172 33.721 54.7396 33.9374C55.262 34.1538 55.7086 34.5202 56.0227 34.9903C56.3369 35.4605 56.5045 36.0133 56.5045 36.5787C56.5045 36.9542 56.4306 37.326 56.2869 37.6728C56.1432 38.0197 55.9326 38.3349 55.6671 38.6004C55.4016 38.8659 55.0865 39.0765 54.7396 39.2201C54.3927 39.3638 54.021 39.4378 53.6455 39.4378Z" fill="url(#paint44_linear_139_31986)"/>
<path d="M36.7867 39.4378C36.2213 39.4378 35.6685 39.2701 35.1983 38.9559C34.7282 38.6418 34.3617 38.1953 34.1453 37.6728C33.929 37.1504 33.8723 36.5756 33.9826 36.021C34.093 35.4664 34.3652 34.9569 34.7651 34.5571C35.1649 34.1573 35.6744 33.885 36.229 33.7747C36.7836 33.6643 37.3584 33.721 37.8808 33.9374C38.4033 34.1538 38.8498 34.5202 39.1639 34.9903C39.4781 35.4605 39.6458 36.0133 39.6458 36.5787C39.6515 36.9558 39.5813 37.3301 39.4397 37.6795C39.298 38.029 39.0876 38.3464 38.821 38.613C38.5544 38.8797 38.2369 39.09 37.8875 39.2317C37.5381 39.3734 37.1638 39.4435 36.7867 39.4378Z" fill="url(#paint45_linear_139_31986)"/>
<path d="M19.7188 39.4378C18.9605 39.4378 18.2333 39.1366 17.6971 38.6004C17.1609 38.0642 16.8598 37.337 16.8598 36.5787C16.8598 35.8205 17.1609 35.0932 17.6971 34.5571C18.2333 34.0209 18.9605 33.7197 19.7188 33.7197C20.477 33.7197 21.2042 34.0209 21.7404 34.5571C22.2766 35.0932 22.5778 35.8205 22.5778 36.5787C22.5778 37.337 22.2766 38.0642 21.7404 38.6004C21.2042 39.1366 20.477 39.4378 19.7188 39.4378Z" fill="url(#paint46_linear_139_31986)"/>
<path d="M2.90109 39.4375C2.33391 39.4458 1.77705 39.2853 1.30139 38.9762C0.825722 38.6672 0.452788 38.2236 0.229934 37.702C0.00707912 37.1804 -0.0556073 36.6043 0.0499148 36.0469C0.155437 35.4896 0.424351 34.9762 0.822469 34.5721C1.22059 34.1681 1.72994 33.8916 2.28565 33.7778C2.84137 33.6641 3.41835 33.7182 3.94322 33.9333C4.4681 34.1484 4.91713 34.5148 5.23319 34.9858C5.54924 35.4568 5.71801 36.0112 5.71807 36.5784C5.72364 36.9519 5.65492 37.3228 5.51585 37.6694C5.37678 38.016 5.17012 38.3315 4.90799 38.5976C4.64585 38.8636 4.33344 39.0749 3.9889 39.2191C3.64436 39.3633 3.27459 39.4375 2.90109 39.4375Z" fill="url(#paint47_linear_139_31986)"/>
<path d="M256.051 56.2987C255.485 56.2987 254.933 56.1309 254.462 55.8168C253.992 55.5026 253.626 55.0562 253.409 54.5338C253.193 54.0113 253.136 53.4364 253.247 52.8818C253.357 52.3272 253.629 51.8178 254.029 51.418C254.429 51.0182 254.938 50.7458 255.493 50.6355C256.048 50.5252 256.622 50.5818 257.145 50.7982C257.667 51.0146 258.114 51.3811 258.428 51.8512C258.742 52.3214 258.91 52.8741 258.91 53.4396C258.91 54.1979 258.609 54.9251 258.072 55.4612C257.536 55.9974 256.809 56.2987 256.051 56.2987Z" fill="url(#paint48_linear_139_31986)"/>
<path d="M239.192 56.2987C238.627 56.2987 238.074 56.1309 237.604 55.8168C237.134 55.5026 236.767 55.0562 236.551 54.5338C236.335 54.0113 236.278 53.4364 236.388 52.8818C236.499 52.3272 236.771 51.8178 237.171 51.418C237.571 51.0182 238.08 50.7458 238.635 50.6355C239.189 50.5252 239.764 50.5818 240.286 50.7982C240.809 51.0146 241.255 51.3811 241.57 51.8512C241.884 52.3214 242.051 52.8741 242.051 53.4396C242.051 54.1979 241.75 54.9251 241.214 55.4612C240.678 55.9974 239.951 56.2987 239.192 56.2987Z" fill="url(#paint49_linear_139_31986)"/>
<path d="M222.333 56.2986C221.575 56.2986 220.848 55.9974 220.311 55.4612C219.775 54.925 219.474 54.1978 219.474 53.4396C219.474 52.6813 219.775 51.9542 220.311 51.418C220.848 50.8818 221.575 50.5806 222.333 50.5806C223.091 50.5806 223.818 50.8818 224.355 51.418C224.891 51.9542 225.192 52.6813 225.192 53.4396C225.192 54.1978 224.891 54.925 224.355 55.4612C223.818 55.9974 223.091 56.2986 222.333 56.2986Z" fill="url(#paint50_linear_139_31986)"/>
<path d="M205.475 56.2986C204.716 56.2986 203.989 55.9974 203.453 55.4612C202.917 54.925 202.616 54.1978 202.616 53.4396C202.616 52.6813 202.917 51.9542 203.453 51.418C203.989 50.8818 204.716 50.5806 205.475 50.5806C206.233 50.5806 206.96 50.8818 207.496 51.418C208.032 51.9542 208.334 52.6813 208.334 53.4396C208.334 54.1978 208.032 54.925 207.496 55.4612C206.96 55.9974 206.233 56.2986 205.475 56.2986Z" fill="url(#paint51_linear_139_31986)"/>
<path d="M188.57 56.2986C187.812 56.2986 187.085 55.9974 186.549 55.4612C186.012 54.925 185.711 54.1978 185.711 53.4396C185.711 52.6813 186.012 51.9542 186.549 51.418C187.085 50.8818 187.812 50.5806 188.57 50.5806C189.329 50.5806 190.056 50.8818 190.592 51.418C191.128 51.9542 191.429 52.6813 191.429 53.4396C191.429 54.1978 191.128 54.925 190.592 55.4612C190.056 55.9974 189.329 56.2986 188.57 56.2986Z" fill="url(#paint52_linear_139_31986)"/>
<path d="M171.707 56.2987C171.142 56.2987 170.589 56.1309 170.119 55.8168C169.648 55.5026 169.282 55.0562 169.066 54.5338C168.849 54.0113 168.793 53.4364 168.903 52.8818C169.013 52.3272 169.286 51.8178 169.685 51.418C170.085 51.0182 170.595 50.7458 171.149 50.6355C171.704 50.5252 172.279 50.5818 172.801 50.7982C173.323 51.0146 173.77 51.3811 174.084 51.8512C174.398 52.3214 174.566 52.8741 174.566 53.4396C174.566 54.1979 174.265 54.9251 173.729 55.4612C173.192 55.9974 172.465 56.2987 171.707 56.2987Z" fill="url(#paint53_linear_139_31986)"/>
<path d="M154.849 56.2987C154.283 56.2987 153.73 56.1309 153.26 55.8168C152.79 55.5026 152.424 55.0562 152.207 54.5338C151.991 54.0113 151.934 53.4364 152.044 52.8818C152.155 52.3272 152.427 51.8178 152.827 51.418C153.227 51.0182 153.736 50.7458 154.291 50.6355C154.845 50.5252 155.42 50.5818 155.943 50.7982C156.465 51.0146 156.912 51.3811 157.226 51.8512C157.54 52.3214 157.708 52.8741 157.708 53.4396C157.708 54.1979 157.406 54.9251 156.87 55.4612C156.334 55.9974 155.607 56.2987 154.849 56.2987Z" fill="url(#paint54_linear_139_31986)"/>
<path d="M137.989 56.2986C137.231 56.2986 136.504 55.9974 135.968 55.4612C135.431 54.925 135.13 54.1978 135.13 53.4396C135.13 52.6813 135.431 51.9542 135.968 51.418C136.504 50.8818 137.231 50.5806 137.989 50.5806C138.748 50.5806 139.475 50.8818 140.011 51.418C140.547 51.9542 140.848 52.6813 140.848 53.4396C140.848 54.1978 140.547 54.925 140.011 55.4612C139.475 55.9974 138.748 56.2986 137.989 56.2986Z" fill="url(#paint55_linear_139_31986)"/>
<path d="M121.131 56.2986C120.373 56.2986 119.645 55.9974 119.109 55.4612C118.573 54.925 118.272 54.1978 118.272 53.4396C118.272 52.6813 118.573 51.9542 119.109 51.418C119.645 50.8818 120.373 50.5806 121.131 50.5806C121.889 50.5806 122.616 50.8818 123.152 51.418C123.689 51.9542 123.99 52.6813 123.99 53.4396C123.99 54.1978 123.689 54.925 123.152 55.4612C122.616 55.9974 121.889 56.2986 121.131 56.2986Z" fill="url(#paint56_linear_139_31986)"/>
<path d="M104.271 56.2986C103.513 56.2986 102.786 55.9974 102.25 55.4612C101.714 54.925 101.412 54.1978 101.412 53.4396C101.412 52.6813 101.714 51.9542 102.25 51.418C102.786 50.8818 103.513 50.5806 104.271 50.5806C105.03 50.5806 105.757 50.8818 106.293 51.418C106.829 51.9542 107.13 52.6813 107.13 53.4396C107.13 54.1978 106.829 54.925 106.293 55.4612C105.757 55.9974 105.03 56.2986 104.271 56.2986Z" fill="url(#paint57_linear_139_31986)"/>
<path d="M87.3671 56.2986C86.6089 56.2986 85.8817 55.9974 85.3455 55.4612C84.8093 54.925 84.5081 54.1978 84.5081 53.4396C84.5081 52.6813 84.8093 51.9542 85.3455 51.418C85.8817 50.8818 86.6089 50.5806 87.3671 50.5806C88.1254 50.5806 88.8526 50.8818 89.3888 51.418C89.925 51.9542 90.2262 52.6813 90.2262 53.4396C90.2262 54.1978 89.925 54.925 89.3888 55.4612C88.8526 55.9974 88.1254 56.2986 87.3671 56.2986Z" fill="url(#paint58_linear_139_31986)"/>
<path d="M70.5088 56.2987C69.9433 56.2987 69.3905 56.1309 68.9204 55.8168C68.4502 55.5026 68.0838 55.0562 67.8674 54.5338C67.651 54.0113 67.5944 53.4364 67.7047 52.8818C67.815 52.3272 68.0873 51.8178 68.4871 51.418C68.887 51.0182 69.3964 50.7458 69.951 50.6355C70.5056 50.5252 71.0805 50.5818 71.6029 50.7982C72.1253 51.0146 72.5718 51.3811 72.886 51.8512C73.2001 52.3214 73.3678 52.8741 73.3678 53.4396C73.3678 54.1979 73.0666 54.9251 72.5304 55.4612C71.9943 55.9974 71.2671 56.2987 70.5088 56.2987Z" fill="url(#paint59_linear_139_31986)"/>
<path d="M53.6455 56.2987C53.0801 56.2987 52.5273 56.1309 52.0571 55.8168C51.5869 55.5026 51.2205 55.0562 51.0041 54.5338C50.7877 54.0113 50.731 53.4364 50.8414 52.8818C50.9517 52.3272 51.224 51.8178 51.6239 51.418C52.0237 51.0182 52.5331 50.7458 53.0877 50.6355C53.6423 50.5252 54.2172 50.5818 54.7396 50.7982C55.262 51.0146 55.7086 51.3811 56.0227 51.8512C56.3369 52.3214 56.5045 52.8741 56.5045 53.4396C56.5045 54.1979 56.2033 54.9251 55.6671 55.4612C55.1309 55.9974 54.4038 56.2987 53.6455 56.2987Z" fill="url(#paint60_linear_139_31986)"/>
<path d="M36.7867 56.2987C36.2213 56.2987 35.6685 56.1309 35.1983 55.8168C34.7282 55.5026 34.3617 55.0562 34.1453 54.5338C33.929 54.0113 33.8723 53.4364 33.9826 52.8818C34.093 52.3272 34.3652 51.8178 34.7651 51.418C35.1649 51.0182 35.6744 50.7458 36.229 50.6355C36.7836 50.5252 37.3584 50.5818 37.8808 50.7982C38.4033 51.0146 38.8498 51.3811 39.1639 51.8512C39.4781 52.3214 39.6458 52.8741 39.6458 53.4396C39.6515 53.8166 39.5813 54.191 39.4397 54.5404C39.298 54.8899 39.0876 55.2073 38.821 55.4739C38.5544 55.7405 38.2369 55.9509 37.8875 56.0926C37.5381 56.2343 37.1638 56.3043 36.7867 56.2987Z" fill="url(#paint61_linear_139_31986)"/>
<path d="M19.7188 56.2986C18.9605 56.2986 18.2333 55.9974 17.6971 55.4612C17.1609 54.925 16.8598 54.1978 16.8598 53.4396C16.8598 52.6813 17.1609 51.9542 17.6971 51.418C18.2333 50.8818 18.9605 50.5806 19.7188 50.5806C20.477 50.5806 21.2042 50.8818 21.7404 51.418C22.2766 51.9542 22.5778 52.6813 22.5778 53.4396C22.5778 54.1978 22.2766 54.925 21.7404 55.4612C21.2042 55.9974 20.477 56.2986 19.7188 56.2986Z" fill="url(#paint62_linear_139_31986)"/>
<path d="M2.90109 56.2983C2.33391 56.3067 1.77705 56.1461 1.30139 55.8371C0.825722 55.528 0.452788 55.0845 0.229934 54.5629C0.00707912 54.0413 -0.0556073 53.4651 0.0499148 52.9078C0.155437 52.3504 0.424351 51.8371 0.822469 51.433C1.22059 51.029 1.72994 50.7524 2.28565 50.6387C2.84137 50.5249 3.41835 50.579 3.94322 50.7941C4.4681 51.0092 4.91713 51.3756 5.23319 51.8466C5.54924 52.3177 5.71801 52.872 5.71807 53.4393C5.72364 53.8127 5.65492 54.1836 5.51585 54.5302C5.37678 54.8769 5.17012 55.1924 4.90799 55.4584C4.64585 55.7245 4.33344 55.9358 3.9889 56.08C3.64436 56.2242 3.27459 56.2984 2.90109 56.2983Z" fill="url(#paint63_linear_139_31986)"/>
<path d="M256.051 73.1575C255.485 73.1575 254.933 72.9898 254.462 72.6757C253.992 72.3615 253.626 71.915 253.409 71.3926C253.193 70.8702 253.136 70.2953 253.247 69.7407C253.357 69.1861 253.629 68.6767 254.029 68.2768C254.429 67.877 254.938 67.6047 255.493 67.4944C256.048 67.3841 256.622 67.4407 257.145 67.6571C257.667 67.8735 258.114 68.2399 258.428 68.7101C258.742 69.1802 258.91 69.733 258.91 70.2985C258.91 71.0567 258.609 71.784 258.072 72.3201C257.536 72.8563 256.809 73.1575 256.051 73.1575Z" fill="url(#paint64_linear_139_31986)"/>
<path d="M239.192 73.1575C238.627 73.1575 238.074 72.9898 237.604 72.6757C237.134 72.3615 236.767 71.915 236.551 71.3926C236.335 70.8702 236.278 70.2953 236.388 69.7407C236.499 69.1861 236.771 68.6767 237.171 68.2768C237.571 67.877 238.08 67.6047 238.635 67.4944C239.189 67.3841 239.764 67.4407 240.286 67.6571C240.809 67.8735 241.255 68.2399 241.57 68.7101C241.884 69.1802 242.051 69.733 242.051 70.2985C242.051 71.0567 241.75 71.784 241.214 72.3201C240.678 72.8563 239.951 73.1575 239.192 73.1575Z" fill="url(#paint65_linear_139_31986)"/>
<path d="M222.333 73.1575C221.575 73.1575 220.848 72.8563 220.311 72.3202C219.775 71.784 219.474 71.0568 219.474 70.2985C219.474 69.5403 219.775 68.813 220.311 68.2769C220.848 67.7407 221.575 67.4395 222.333 67.4395C223.091 67.4395 223.818 67.7407 224.355 68.2769C224.891 68.813 225.192 69.5403 225.192 70.2985C225.192 71.0568 224.891 71.784 224.355 72.3202C223.818 72.8563 223.091 73.1575 222.333 73.1575Z" fill="url(#paint66_linear_139_31986)"/>
<path d="M205.475 73.1575C204.716 73.1575 203.989 72.8563 203.453 72.3202C202.917 71.784 202.616 71.0568 202.616 70.2985C202.616 69.5403 202.917 68.813 203.453 68.2769C203.989 67.7407 204.716 67.4395 205.475 67.4395C206.233 67.4395 206.96 67.7407 207.496 68.2769C208.032 68.813 208.334 69.5403 208.334 70.2985C208.334 71.0568 208.032 71.784 207.496 72.3202C206.96 72.8563 206.233 73.1575 205.475 73.1575Z" fill="url(#paint67_linear_139_31986)"/>
<path d="M188.57 73.1575C187.812 73.1575 187.085 72.8563 186.549 72.3202C186.012 71.784 185.711 71.0568 185.711 70.2985C185.711 69.5403 186.012 68.813 186.549 68.2769C187.085 67.7407 187.812 67.4395 188.57 67.4395C189.329 67.4395 190.056 67.7407 190.592 68.2769C191.128 68.813 191.429 69.5403 191.429 70.2985C191.429 71.0568 191.128 71.784 190.592 72.3202C190.056 72.8563 189.329 73.1575 188.57 73.1575Z" fill="url(#paint68_linear_139_31986)"/>
<path d="M171.707 73.1575C171.142 73.1575 170.589 72.9898 170.119 72.6757C169.648 72.3615 169.282 71.915 169.066 71.3926C168.849 70.8702 168.793 70.2953 168.903 69.7407C169.013 69.1861 169.286 68.6767 169.685 68.2768C170.085 67.877 170.595 67.6047 171.149 67.4944C171.704 67.3841 172.279 67.4407 172.801 67.6571C173.323 67.8735 173.77 68.2399 174.084 68.7101C174.398 69.1802 174.566 69.733 174.566 70.2985C174.566 71.0567 174.265 71.784 173.729 72.3201C173.192 72.8563 172.465 73.1575 171.707 73.1575Z" fill="url(#paint69_linear_139_31986)"/>
<path d="M154.849 73.1575C154.283 73.1575 153.73 72.9898 153.26 72.6757C152.79 72.3615 152.424 71.915 152.207 71.3926C151.991 70.8702 151.934 70.2953 152.044 69.7407C152.155 69.1861 152.427 68.6767 152.827 68.2768C153.227 67.877 153.736 67.6047 154.291 67.4944C154.845 67.3841 155.42 67.4407 155.943 67.6571C156.465 67.8735 156.912 68.2399 157.226 68.7101C157.54 69.1802 157.708 69.733 157.708 70.2985C157.708 71.0567 157.406 71.784 156.87 72.3201C156.334 72.8563 155.607 73.1575 154.849 73.1575Z" fill="url(#paint70_linear_139_31986)"/>
<path d="M137.989 73.1575C137.231 73.1575 136.504 72.8563 135.968 72.3202C135.431 71.784 135.13 71.0568 135.13 70.2985C135.13 69.5403 135.431 68.813 135.968 68.2769C136.504 67.7407 137.231 67.4395 137.989 67.4395C138.748 67.4395 139.475 67.7407 140.011 68.2769C140.547 68.813 140.848 69.5403 140.848 70.2985C140.848 71.0568 140.547 71.784 140.011 72.3202C139.475 72.8563 138.748 73.1575 137.989 73.1575Z" fill="url(#paint71_linear_139_31986)"/>
<path d="M121.131 73.1575C120.373 73.1575 119.645 72.8563 119.109 72.3202C118.573 71.784 118.272 71.0568 118.272 70.2985C118.272 69.5403 118.573 68.813 119.109 68.2769C119.645 67.7407 120.373 67.4395 121.131 67.4395C121.889 67.4395 122.616 67.7407 123.152 68.2769C123.689 68.813 123.99 69.5403 123.99 70.2985C123.99 71.0568 123.689 71.784 123.152 72.3202C122.616 72.8563 121.889 73.1575 121.131 73.1575Z" fill="url(#paint72_linear_139_31986)"/>
<path d="M104.271 73.1575C103.513 73.1575 102.786 72.8563 102.25 72.3202C101.714 71.784 101.412 71.0568 101.412 70.2985C101.412 69.5403 101.714 68.813 102.25 68.2769C102.786 67.7407 103.513 67.4395 104.271 67.4395C105.03 67.4395 105.757 67.7407 106.293 68.2769C106.829 68.813 107.13 69.5403 107.13 70.2985C107.13 71.0568 106.829 71.784 106.293 72.3202C105.757 72.8563 105.03 73.1575 104.271 73.1575Z" fill="url(#paint73_linear_139_31986)"/>
<path d="M87.3671 73.1575C86.6089 73.1575 85.8817 72.8563 85.3455 72.3202C84.8093 71.784 84.5081 71.0568 84.5081 70.2985C84.5081 69.5403 84.8093 68.813 85.3455 68.2769C85.8817 67.7407 86.6089 67.4395 87.3671 67.4395C88.1254 67.4395 88.8526 67.7407 89.3888 68.2769C89.925 68.813 90.2262 69.5403 90.2262 70.2985C90.2262 71.0568 89.925 71.784 89.3888 72.3202C88.8526 72.8563 88.1254 73.1575 87.3671 73.1575Z" fill="url(#paint74_linear_139_31986)"/>
<path d="M70.5088 73.1575C69.9433 73.1575 69.3905 72.9898 68.9204 72.6757C68.4502 72.3615 68.0838 71.915 67.8674 71.3926C67.651 70.8702 67.5944 70.2953 67.7047 69.7407C67.815 69.1861 68.0873 68.6767 68.4871 68.2768C68.887 67.877 69.3964 67.6047 69.951 67.4944C70.5056 67.3841 71.0805 67.4407 71.6029 67.6571C72.1253 67.8735 72.5718 68.2399 72.886 68.7101C73.2001 69.1802 73.3678 69.733 73.3678 70.2985C73.3678 71.0567 73.0666 71.784 72.5304 72.3201C71.9943 72.8563 71.2671 73.1575 70.5088 73.1575Z" fill="url(#paint75_linear_139_31986)"/>
<path d="M53.6455 73.1575C53.0801 73.1575 52.5273 72.9898 52.0571 72.6757C51.5869 72.3615 51.2205 71.915 51.0041 71.3926C50.7877 70.8702 50.731 70.2953 50.8414 69.7407C50.9517 69.1861 51.224 68.6767 51.6239 68.2768C52.0237 67.877 52.5331 67.6047 53.0877 67.4944C53.6423 67.3841 54.2172 67.4407 54.7396 67.6571C55.262 67.8735 55.7086 68.2399 56.0227 68.7101C56.3369 69.1802 56.5045 69.733 56.5045 70.2985C56.5045 71.0567 56.2033 71.784 55.6671 72.3201C55.1309 72.8563 54.4038 73.1575 53.6455 73.1575Z" fill="url(#paint76_linear_139_31986)"/>
<path d="M36.7867 73.1575C36.2213 73.1575 35.6685 72.9898 35.1983 72.6757C34.7282 72.3615 34.3617 71.915 34.1453 71.3926C33.929 70.8702 33.8723 70.2953 33.9826 69.7407C34.093 69.1861 34.3652 68.6767 34.7651 68.2768C35.1649 67.877 35.6744 67.6047 36.229 67.4944C36.7836 67.3841 37.3584 67.4407 37.8808 67.6571C38.4033 67.8735 38.8498 68.2399 39.1639 68.7101C39.4781 69.1802 39.6458 69.733 39.6458 70.2985C39.6515 70.6755 39.5813 71.0498 39.4397 71.3992C39.298 71.7487 39.0876 72.0661 38.821 72.3328C38.5544 72.5994 38.2369 72.8097 37.8875 72.9514C37.5381 73.0931 37.1638 73.1631 36.7867 73.1575Z" fill="url(#paint77_linear_139_31986)"/>
<path d="M19.7188 73.1575C18.9605 73.1575 18.2333 72.8563 17.6971 72.3202C17.1609 71.784 16.8598 71.0568 16.8598 70.2985C16.8598 69.5403 17.1609 68.813 17.6971 68.2769C18.2333 67.7407 18.9605 67.4395 19.7188 67.4395C20.477 67.4395 21.2042 67.7407 21.7404 68.2769C22.2766 68.813 22.5778 69.5403 22.5778 70.2985C22.5778 71.0568 22.2766 71.784 21.7404 72.3202C21.2042 72.8563 20.477 73.1575 19.7188 73.1575Z" fill="url(#paint78_linear_139_31986)"/>
<path d="M2.90109 73.1572C2.33391 73.1655 1.77705 73.005 1.30139 72.696C0.825722 72.3869 0.452788 71.9433 0.229934 71.4217C0.00707912 70.9001 -0.0556073 70.3239 0.0499148 69.7666C0.155437 69.2092 0.424351 68.6959 0.822469 68.2918C1.22059 67.8878 1.72994 67.6113 2.28565 67.4975C2.84137 67.3838 3.41835 67.4379 3.94322 67.653C4.4681 67.8681 4.91713 68.2344 5.23319 68.7055C5.54924 69.1765 5.71801 69.7309 5.71807 70.2982C5.72364 70.6716 5.65492 71.0424 5.51585 71.3891C5.37678 71.7357 5.17012 72.0513 4.90799 72.3173C4.64585 72.5834 4.33344 72.7946 3.9889 72.9388C3.64436 73.083 3.27459 73.1572 2.90109 73.1572Z" fill="url(#paint79_linear_139_31986)"/>
<defs>
<linearGradient id="paint0_linear_139_31986" x1="-1186.84" y1="-950.503" x2="1490.4" y2="818.398" gradientUnits="userSpaceOnUse">
<stop stop-color="white"/>
<stop offset="0.14" stop-color="#FAFAFA"/>
<stop offset="0.3" stop-color="#ECECEC"/>
<stop offset="0.48" stop-color="#D5D5D6"/>
<stop offset="0.66" stop-color="#B4B5B6"/>
<stop offset="0.85" stop-color="#8A8C8D"/>
<stop offset="1" stop-color="#626466"/>
</linearGradient>
<linearGradient id="paint1_linear_139_31986" x1="-1193.61" y1="-943.821" x2="1486.7" y2="827.104" gradientUnits="userSpaceOnUse">
<stop stop-color="white"/>
<stop offset="0.14" stop-color="#FAFAFA"/>
<stop offset="0.3" stop-color="#ECECEC"/>
<stop offset="0.48" stop-color="#D5D5D6"/>
<stop offset="0.66" stop-color="#B4B5B6"/>
<stop offset="0.85" stop-color="#8A8C8D"/>
<stop offset="1" stop-color="#626466"/>
</linearGradient>
<linearGradient id="paint2_linear_139_31986" x1="-1195.9" y1="-934.234" x2="1479.14" y2="833.215" gradientUnits="userSpaceOnUse">
<stop stop-color="white"/>
<stop offset="0.14" stop-color="#FAFAFA"/>
<stop offset="0.3" stop-color="#ECECEC"/>
<stop offset="0.48" stop-color="#D5D5D6"/>
<stop offset="0.66" stop-color="#B4B5B6"/>
<stop offset="0.85" stop-color="#8A8C8D"/>
<stop offset="1" stop-color="#626466"/>
</linearGradient>
<linearGradient id="paint3_linear_139_31986" x1="-1201.81" y1="-926.961" x2="1474.68" y2="841.442" gradientUnits="userSpaceOnUse">
<stop stop-color="white"/>
<stop offset="0.14" stop-color="#FAFAFA"/>
<stop offset="0.3" stop-color="#ECECEC"/>
<stop offset="0.48" stop-color="#D5D5D6"/>
<stop offset="0.66" stop-color="#B4B5B6"/>
<stop offset="0.85" stop-color="#8A8C8D"/>
<stop offset="1" stop-color="#626466"/>
</linearGradient>
<linearGradient id="paint4_linear_139_31986" x1="-1206.92" y1="-919.182" x2="1469.55" y2="849.15" gradientUnits="userSpaceOnUse">
<stop stop-color="white"/>
<stop offset="0.14" stop-color="#FAFAFA"/>
<stop offset="0.3" stop-color="#ECECEC"/>
<stop offset="0.48" stop-color="#D5D5D6"/>
<stop offset="0.66" stop-color="#B4B5B6"/>
<stop offset="0.85" stop-color="#8A8C8D"/>
<stop offset="1" stop-color="#626466"/>
</linearGradient>
<linearGradient id="paint5_linear_139_31986" x1="-1212.32" y1="-911.611" x2="1464.62" y2="857.08" gradientUnits="userSpaceOnUse">
<stop stop-color="white"/>
<stop offset="0.14" stop-color="#FAFAFA"/>
<stop offset="0.3" stop-color="#ECECEC"/>
<stop offset="0.48" stop-color="#D5D5D6"/>
<stop offset="0.66" stop-color="#B4B5B6"/>
<stop offset="0.85" stop-color="#8A8C8D"/>
<stop offset="1" stop-color="#626466"/>
</linearGradient>
<linearGradient id="paint6_linear_139_31986" x1="-1216.9" y1="-903.497" x2="1459.03" y2="864.521" gradientUnits="userSpaceOnUse">
<stop stop-color="white"/>
<stop offset="0.14" stop-color="#FAFAFA"/>
<stop offset="0.3" stop-color="#ECECEC"/>
<stop offset="0.48" stop-color="#D5D5D6"/>
<stop offset="0.66" stop-color="#B4B5B6"/>
<stop offset="0.85" stop-color="#8A8C8D"/>
<stop offset="1" stop-color="#626466"/>
</linearGradient>
<linearGradient id="paint7_linear_139_31986" x1="-1222.66" y1="-896.184" x2="1454.49" y2="872.681" gradientUnits="userSpaceOnUse">
<stop stop-color="white"/>
<stop offset="0.14" stop-color="#FAFAFA"/>
<stop offset="0.3" stop-color="#ECECEC"/>
<stop offset="0.48" stop-color="#D5D5D6"/>
<stop offset="0.66" stop-color="#B4B5B6"/>
<stop offset="0.85" stop-color="#8A8C8D"/>
<stop offset="1" stop-color="#626466"/>
</linearGradient>
<linearGradient id="paint8_linear_139_31986" x1="-1227.41" y1="-888.153" x2="1448.99" y2="880.165" gradientUnits="userSpaceOnUse">
<stop stop-color="white"/>
<stop offset="0.14" stop-color="#FAFAFA"/>
<stop offset="0.3" stop-color="#ECECEC"/>
<stop offset="0.48" stop-color="#D5D5D6"/>
<stop offset="0.66" stop-color="#B4B5B6"/>
<stop offset="0.85" stop-color="#8A8C8D"/>
<stop offset="1" stop-color="#626466"/>
</linearGradient>
<linearGradient id="paint9_linear_139_31986" x1="-1233.58" y1="-881.09" x2="1444.91" y2="888.63" gradientUnits="userSpaceOnUse">
<stop stop-color="white"/>
<stop offset="0.14" stop-color="#FAFAFA"/>
<stop offset="0.3" stop-color="#ECECEC"/>
<stop offset="0.48" stop-color="#D5D5D6"/>
<stop offset="0.66" stop-color="#B4B5B6"/>
<stop offset="0.85" stop-color="#8A8C8D"/>
<stop offset="1" stop-color="#626466"/>
</linearGradient>
<linearGradient id="paint10_linear_139_31986" x1="-1239.06" y1="-873.564" x2="1440.16" y2="896.646" gradientUnits="userSpaceOnUse">
<stop stop-color="white"/>
<stop offset="0.14" stop-color="#FAFAFA"/>
<stop offset="0.3" stop-color="#ECECEC"/>
<stop offset="0.48" stop-color="#D5D5D6"/>
<stop offset="0.66" stop-color="#B4B5B6"/>
<stop offset="0.85" stop-color="#8A8C8D"/>
<stop offset="1" stop-color="#626466"/>
</linearGradient>
<linearGradient id="paint11_linear_139_31986" x1="-1243.3" y1="-865.236" x2="1434.14" y2="903.833" gradientUnits="userSpaceOnUse">
<stop stop-color="white"/>
<stop offset="0.14" stop-color="#FAFAFA"/>
<stop offset="0.3" stop-color="#ECECEC"/>
<stop offset="0.48" stop-color="#D5D5D6"/>
<stop offset="0.66" stop-color="#B4B5B6"/>
<stop offset="0.85" stop-color="#8A8C8D"/>
<stop offset="1" stop-color="#626466"/>
</linearGradient>
<linearGradient id="paint12_linear_139_31986" x1="-1248.73" y1="-857.626" x2="1429.3" y2="911.738" gradientUnits="userSpaceOnUse">
<stop stop-color="white"/>
<stop offset="0.14" stop-color="#FAFAFA"/>
<stop offset="0.3" stop-color="#ECECEC"/>
<stop offset="0.48" stop-color="#D5D5D6"/>
<stop offset="0.66" stop-color="#B4B5B6"/>
<stop offset="0.85" stop-color="#8A8C8D"/>
<stop offset="1" stop-color="#626466"/>
</linearGradient>
<linearGradient id="paint13_linear_139_31986" x1="-1253.23" y1="-849.472" x2="1423.51" y2="919.098" gradientUnits="userSpaceOnUse">
<stop stop-color="white"/>
<stop offset="0.14" stop-color="#FAFAFA"/>
<stop offset="0.3" stop-color="#ECECEC"/>
<stop offset="0.48" stop-color="#D5D5D6"/>
<stop offset="0.66" stop-color="#B4B5B6"/>
<stop offset="0.85" stop-color="#8A8C8D"/>
<stop offset="1" stop-color="#626466"/>
</linearGradient>
<linearGradient id="paint14_linear_139_31986" x1="-1258.97" y1="-842.156" x2="1419.1" y2="927.269" gradientUnits="userSpaceOnUse">
<stop stop-color="white"/>
<stop offset="0.14" stop-color="#FAFAFA"/>
<stop offset="0.3" stop-color="#ECECEC"/>
<stop offset="0.48" stop-color="#D5D5D6"/>
<stop offset="0.66" stop-color="#B4B5B6"/>
<stop offset="0.85" stop-color="#8A8C8D"/>
<stop offset="1" stop-color="#626466"/>
</linearGradient>
<linearGradient id="paint15_linear_139_31986" x1="-1264.48" y1="-834.628" x2="1414.42" y2="935.297" gradientUnits="userSpaceOnUse">
<stop stop-color="white"/>
<stop offset="0.14" stop-color="#FAFAFA"/>
<stop offset="0.3" stop-color="#ECECEC"/>
<stop offset="0.48" stop-color="#D5D5D6"/>
<stop offset="0.66" stop-color="#B4B5B6"/>
<stop offset="0.85" stop-color="#8A8C8D"/>
<stop offset="1" stop-color="#626466"/>
</linearGradient>
<linearGradient id="paint16_linear_139_31986" x1="-1194.32" y1="-938.561" x2="1482.41" y2="830.004" gradientUnits="userSpaceOnUse">
<stop stop-color="white"/>
<stop offset="0.14" stop-color="#FAFAFA"/>
<stop offset="0.3" stop-color="#ECECEC"/>
<stop offset="0.48" stop-color="#D5D5D6"/>
<stop offset="0.66" stop-color="#B4B5B6"/>
<stop offset="0.85" stop-color="#8A8C8D"/>
<stop offset="1" stop-color="#626466"/>
</linearGradient>
<linearGradient id="paint17_linear_139_31986" x1="-1201.26" y1="-931.994" x2="1478.82" y2="838.77" gradientUnits="userSpaceOnUse">
<stop stop-color="white"/>
<stop offset="0.14" stop-color="#FAFAFA"/>
<stop offset="0.3" stop-color="#ECECEC"/>
<stop offset="0.48" stop-color="#D5D5D6"/>
<stop offset="0.66" stop-color="#B4B5B6"/>
<stop offset="0.85" stop-color="#8A8C8D"/>
<stop offset="1" stop-color="#626466"/>
</linearGradient>
<linearGradient id="paint18_linear_139_31986" x1="-1203.56" y1="-922.408" x2="1471.3" y2="844.923" gradientUnits="userSpaceOnUse">
<stop stop-color="white"/>
<stop offset="0.14" stop-color="#FAFAFA"/>
<stop offset="0.3" stop-color="#ECECEC"/>
<stop offset="0.48" stop-color="#D5D5D6"/>
<stop offset="0.66" stop-color="#B4B5B6"/>
<stop offset="0.85" stop-color="#8A8C8D"/>
<stop offset="1" stop-color="#626466"/>
</linearGradient>
<linearGradient id="paint19_linear_139_31986" x1="-1209.29" y1="-915.051" x2="1466.67" y2="853.065" gradientUnits="userSpaceOnUse">
<stop stop-color="white"/>
<stop offset="0.14" stop-color="#FAFAFA"/>
<stop offset="0.3" stop-color="#ECECEC"/>
<stop offset="0.48" stop-color="#D5D5D6"/>
<stop offset="0.66" stop-color="#B4B5B6"/>
<stop offset="0.85" stop-color="#8A8C8D"/>
<stop offset="1" stop-color="#626466"/>
</linearGradient>
<linearGradient id="paint20_linear_139_31986" x1="-1214.74" y1="-907.483" x2="1461.84" y2="860.942" gradientUnits="userSpaceOnUse">
<stop stop-color="white"/>
<stop offset="0.14" stop-color="#FAFAFA"/>
<stop offset="0.3" stop-color="#ECECEC"/>
<stop offset="0.48" stop-color="#D5D5D6"/>
<stop offset="0.66" stop-color="#B4B5B6"/>
<stop offset="0.85" stop-color="#8A8C8D"/>
<stop offset="1" stop-color="#626466"/>
</linearGradient>
<linearGradient id="paint21_linear_139_31986" x1="-1219.97" y1="-899.796" x2="1456.8" y2="868.769" gradientUnits="userSpaceOnUse">
<stop stop-color="white"/>
<stop offset="0.14" stop-color="#FAFAFA"/>
<stop offset="0.3" stop-color="#ECECEC"/>
<stop offset="0.48" stop-color="#D5D5D6"/>
<stop offset="0.66" stop-color="#B4B5B6"/>
<stop offset="0.85" stop-color="#8A8C8D"/>
<stop offset="1" stop-color="#626466"/>
</linearGradient>
<linearGradient id="paint22_linear_139_31986" x1="-1224.43" y1="-891.597" x2="1451.04" y2="876.127" gradientUnits="userSpaceOnUse">
<stop stop-color="white"/>
<stop offset="0.14" stop-color="#FAFAFA"/>
<stop offset="0.3" stop-color="#ECECEC"/>
<stop offset="0.48" stop-color="#D5D5D6"/>
<stop offset="0.66" stop-color="#B4B5B6"/>
<stop offset="0.85" stop-color="#8A8C8D"/>
<stop offset="1" stop-color="#626466"/>
</linearGradient>
<linearGradient id="paint23_linear_139_31986" x1="-1230.19" y1="-884.232" x2="1446.49" y2="884.304" gradientUnits="userSpaceOnUse">
<stop stop-color="white"/>
<stop offset="0.14" stop-color="#FAFAFA"/>
<stop offset="0.3" stop-color="#ECECEC"/>
<stop offset="0.48" stop-color="#D5D5D6"/>
<stop offset="0.66" stop-color="#B4B5B6"/>
<stop offset="0.85" stop-color="#8A8C8D"/>
<stop offset="1" stop-color="#626466"/>
</linearGradient>
<linearGradient id="paint24_linear_139_31986" x1="-1234.9" y1="-876.202" x2="1440.98" y2="891.788" gradientUnits="userSpaceOnUse">
<stop stop-color="white"/>
<stop offset="0.14" stop-color="#FAFAFA"/>
<stop offset="0.3" stop-color="#ECECEC"/>
<stop offset="0.48" stop-color="#D5D5D6"/>
<stop offset="0.66" stop-color="#B4B5B6"/>
<stop offset="0.85" stop-color="#8A8C8D"/>
<stop offset="1" stop-color="#626466"/>
</linearGradient>
<linearGradient id="paint25_linear_139_31986" x1="-1241.1" y1="-869.18" x2="1436.91" y2="900.211" gradientUnits="userSpaceOnUse">
<stop stop-color="white"/>
<stop offset="0.14" stop-color="#FAFAFA"/>
<stop offset="0.3" stop-color="#ECECEC"/>
<stop offset="0.48" stop-color="#D5D5D6"/>
<stop offset="0.66" stop-color="#B4B5B6"/>
<stop offset="0.85" stop-color="#8A8C8D"/>
<stop offset="1" stop-color="#626466"/>
</linearGradient>
<linearGradient id="paint26_linear_139_31986" x1="-1246.25" y1="-861.444" x2="1431.81" y2="908.017" gradientUnits="userSpaceOnUse">
<stop stop-color="white"/>
<stop offset="0.14" stop-color="#FAFAFA"/>
<stop offset="0.3" stop-color="#ECECEC"/>
<stop offset="0.48" stop-color="#D5D5D6"/>
<stop offset="0.66" stop-color="#B4B5B6"/>
<stop offset="0.85" stop-color="#8A8C8D"/>
<stop offset="1" stop-color="#626466"/>
</linearGradient>
<linearGradient id="paint27_linear_139_31986" x1="-1250.83" y1="-853.337" x2="1426.15" y2="915.397" gradientUnits="userSpaceOnUse">
<stop stop-color="white"/>
<stop offset="0.14" stop-color="#FAFAFA"/>
<stop offset="0.3" stop-color="#ECECEC"/>
<stop offset="0.48" stop-color="#D5D5D6"/>
<stop offset="0.66" stop-color="#B4B5B6"/>
<stop offset="0.85" stop-color="#8A8C8D"/>
<stop offset="1" stop-color="#626466"/>
</linearGradient>
<linearGradient id="paint28_linear_139_31986" x1="-1256.21" y1="-845.727" x2="1421.27" y2="923.343" gradientUnits="userSpaceOnUse">
<stop stop-color="white"/>
<stop offset="0.14" stop-color="#FAFAFA"/>
<stop offset="0.3" stop-color="#ECECEC"/>
<stop offset="0.48" stop-color="#D5D5D6"/>
<stop offset="0.66" stop-color="#B4B5B6"/>
<stop offset="0.85" stop-color="#8A8C8D"/>
<stop offset="1" stop-color="#626466"/>
</linearGradient>
<linearGradient id="paint29_linear_139_31986" x1="-1260.71" y1="-837.563" x2="1415.5" y2="930.679" gradientUnits="userSpaceOnUse">
<stop stop-color="white"/>
<stop offset="0.14" stop-color="#FAFAFA"/>
<stop offset="0.3" stop-color="#ECECEC"/>
<stop offset="0.48" stop-color="#D5D5D6"/>
<stop offset="0.66" stop-color="#B4B5B6"/>
<stop offset="0.85" stop-color="#8A8C8D"/>
<stop offset="1" stop-color="#626466"/>
</linearGradient>
<linearGradient id="paint30_linear_139_31986" x1="-1266.63" y1="-830.331" x2="1411.22" y2="938.976" gradientUnits="userSpaceOnUse">
<stop stop-color="white"/>
<stop offset="0.14" stop-color="#FAFAFA"/>
<stop offset="0.3" stop-color="#ECECEC"/>
<stop offset="0.48" stop-color="#D5D5D6"/>
<stop offset="0.66" stop-color="#B4B5B6"/>
<stop offset="0.85" stop-color="#8A8C8D"/>
<stop offset="1" stop-color="#626466"/>
</linearGradient>
<linearGradient id="paint31_linear_139_31986" x1="-1272" y1="-822.728" x2="1406.39" y2="946.902" gradientUnits="userSpaceOnUse">
<stop stop-color="white"/>
<stop offset="0.14" stop-color="#FAFAFA"/>
<stop offset="0.3" stop-color="#ECECEC"/>
<stop offset="0.48" stop-color="#D5D5D6"/>
<stop offset="0.66" stop-color="#B4B5B6"/>
<stop offset="0.85" stop-color="#8A8C8D"/>
<stop offset="1" stop-color="#626466"/>
</linearGradient>
<linearGradient id="paint32_linear_139_31986" x1="-1202.36" y1="-927.003" x2="1474.89" y2="841.904" gradientUnits="userSpaceOnUse">
<stop stop-color="white"/>
<stop offset="0.14" stop-color="#FAFAFA"/>
<stop offset="0.3" stop-color="#ECECEC"/>
<stop offset="0.48" stop-color="#D5D5D6"/>
<stop offset="0.66" stop-color="#B4B5B6"/>
<stop offset="0.85" stop-color="#8A8C8D"/>
<stop offset="1" stop-color="#626466"/>
</linearGradient>
<linearGradient id="paint33_linear_139_31986" x1="-1209.12" y1="-920.36" x2="1471.19" y2="850.565" gradientUnits="userSpaceOnUse">
<stop stop-color="white"/>
<stop offset="0.14" stop-color="#FAFAFA"/>
<stop offset="0.3" stop-color="#ECECEC"/>
<stop offset="0.48" stop-color="#D5D5D6"/>
<stop offset="0.66" stop-color="#B4B5B6"/>
<stop offset="0.85" stop-color="#8A8C8D"/>
<stop offset="1" stop-color="#626466"/>
</linearGradient>
<linearGradient id="paint34_linear_139_31986" x1="-1211.6" y1="-910.855" x2="1463.78" y2="856.827" gradientUnits="userSpaceOnUse">
<stop stop-color="white"/>
<stop offset="0.14" stop-color="#FAFAFA"/>
<stop offset="0.3" stop-color="#ECECEC"/>
<stop offset="0.48" stop-color="#D5D5D6"/>
<stop offset="0.66" stop-color="#B4B5B6"/>
<stop offset="0.85" stop-color="#8A8C8D"/>
<stop offset="1" stop-color="#626466"/>
</linearGradient>
<linearGradient id="paint35_linear_139_31986" x1="-1217.32" y1="-903.455" x2="1459.16" y2="864.942" gradientUnits="userSpaceOnUse">
<stop stop-color="white"/>
<stop offset="0.14" stop-color="#FAFAFA"/>
<stop offset="0.3" stop-color="#ECECEC"/>
<stop offset="0.48" stop-color="#D5D5D6"/>
<stop offset="0.66" stop-color="#B4B5B6"/>
<stop offset="0.85" stop-color="#8A8C8D"/>
<stop offset="1" stop-color="#626466"/>
</linearGradient>
<linearGradient id="paint36_linear_139_31986" x1="-1222.62" y1="-895.845" x2="1454.2" y2="872.762" gradientUnits="userSpaceOnUse">
<stop stop-color="white"/>
<stop offset="0.14" stop-color="#FAFAFA"/>
<stop offset="0.3" stop-color="#ECECEC"/>
<stop offset="0.48" stop-color="#D5D5D6"/>
<stop offset="0.66" stop-color="#B4B5B6"/>
<stop offset="0.85" stop-color="#8A8C8D"/>
<stop offset="1" stop-color="#626466"/>
</linearGradient>
<linearGradient id="paint37_linear_139_31986" x1="-1228" y1="-888.238" x2="1449.28" y2="880.669" gradientUnits="userSpaceOnUse">
<stop stop-color="white"/>
<stop offset="0.14" stop-color="#FAFAFA"/>
<stop offset="0.3" stop-color="#ECECEC"/>
<stop offset="0.48" stop-color="#D5D5D6"/>
<stop offset="0.66" stop-color="#B4B5B6"/>
<stop offset="0.85" stop-color="#8A8C8D"/>
<stop offset="1" stop-color="#626466"/>
</linearGradient>
<linearGradient id="paint38_linear_139_31986" x1="-1232.42" y1="-879.997" x2="1443.52" y2="888.027" gradientUnits="userSpaceOnUse">
<stop stop-color="white"/>
<stop offset="0.14" stop-color="#FAFAFA"/>
<stop offset="0.3" stop-color="#ECECEC"/>
<stop offset="0.48" stop-color="#D5D5D6"/>
<stop offset="0.66" stop-color="#B4B5B6"/>
<stop offset="0.85" stop-color="#8A8C8D"/>
<stop offset="1" stop-color="#626466"/>
</linearGradient>
<linearGradient id="paint39_linear_139_31986" x1="-1238.22" y1="-872.678" x2="1438.98" y2="896.181" gradientUnits="userSpaceOnUse">
<stop stop-color="white"/>
<stop offset="0.14" stop-color="#FAFAFA"/>
<stop offset="0.3" stop-color="#ECECEC"/>
<stop offset="0.48" stop-color="#D5D5D6"/>
<stop offset="0.66" stop-color="#B4B5B6"/>
<stop offset="0.85" stop-color="#8A8C8D"/>
<stop offset="1" stop-color="#626466"/>
</linearGradient>
<linearGradient id="paint40_linear_139_31986" x1="-1242.92" y1="-864.648" x2="1433.47" y2="903.665" gradientUnits="userSpaceOnUse">
<stop stop-color="white"/>
<stop offset="0.14" stop-color="#FAFAFA"/>
<stop offset="0.3" stop-color="#ECECEC"/>
<stop offset="0.48" stop-color="#D5D5D6"/>
<stop offset="0.66" stop-color="#B4B5B6"/>
<stop offset="0.85" stop-color="#8A8C8D"/>
<stop offset="1" stop-color="#626466"/>
</linearGradient>
<linearGradient id="paint41_linear_139_31986" x1="-1249.1" y1="-857.626" x2="1429.39" y2="912.116" gradientUnits="userSpaceOnUse">
<stop stop-color="white"/>
<stop offset="0.14" stop-color="#FAFAFA"/>
<stop offset="0.3" stop-color="#ECECEC"/>
<stop offset="0.48" stop-color="#D5D5D6"/>
<stop offset="0.66" stop-color="#B4B5B6"/>
<stop offset="0.85" stop-color="#8A8C8D"/>
<stop offset="1" stop-color="#626466"/>
</linearGradient>
<linearGradient id="paint42_linear_139_31986" x1="-1254.44" y1="-849.974" x2="1424.47" y2="920.02" gradientUnits="userSpaceOnUse">
<stop stop-color="white"/>
<stop offset="0.14" stop-color="#FAFAFA"/>
<stop offset="0.3" stop-color="#ECECEC"/>
<stop offset="0.48" stop-color="#D5D5D6"/>
<stop offset="0.66" stop-color="#B4B5B6"/>
<stop offset="0.85" stop-color="#8A8C8D"/>
<stop offset="1" stop-color="#626466"/>
</linearGradient>
<linearGradient id="paint43_linear_139_31986" x1="-1258.85" y1="-841.736" x2="1418.63" y2="927.269" gradientUnits="userSpaceOnUse">
<stop stop-color="white"/>
<stop offset="0.14" stop-color="#FAFAFA"/>
<stop offset="0.3" stop-color="#ECECEC"/>
<stop offset="0.48" stop-color="#D5D5D6"/>
<stop offset="0.66" stop-color="#B4B5B6"/>
<stop offset="0.85" stop-color="#8A8C8D"/>
<stop offset="1" stop-color="#626466"/>
</linearGradient>
<linearGradient id="paint44_linear_139_31986" x1="-1264.25" y1="-834.168" x2="1413.79" y2="935.243" gradientUnits="userSpaceOnUse">
<stop stop-color="white"/>
<stop offset="0.14" stop-color="#FAFAFA"/>
<stop offset="0.3" stop-color="#ECECEC"/>
<stop offset="0.48" stop-color="#D5D5D6"/>
<stop offset="0.66" stop-color="#B4B5B6"/>
<stop offset="0.85" stop-color="#8A8C8D"/>
<stop offset="1" stop-color="#626466"/>
</linearGradient>
<linearGradient id="paint45_linear_139_31986" x1="-1268.74" y1="-826.011" x2="1407.99" y2="942.559" gradientUnits="userSpaceOnUse">
<stop stop-color="white"/>
<stop offset="0.14" stop-color="#FAFAFA"/>
<stop offset="0.3" stop-color="#ECECEC"/>
<stop offset="0.48" stop-color="#D5D5D6"/>
<stop offset="0.66" stop-color="#B4B5B6"/>
<stop offset="0.85" stop-color="#8A8C8D"/>
<stop offset="1" stop-color="#626466"/>
</linearGradient>
<linearGradient id="paint46_linear_139_31986" x1="-1274.65" y1="-818.777" x2="1403.75" y2="950.853" gradientUnits="userSpaceOnUse">
<stop stop-color="white"/>
<stop offset="0.14" stop-color="#FAFAFA"/>
<stop offset="0.3" stop-color="#ECECEC"/>
<stop offset="0.48" stop-color="#D5D5D6"/>
<stop offset="0.66" stop-color="#B4B5B6"/>
<stop offset="0.85" stop-color="#8A8C8D"/>
<stop offset="1" stop-color="#626466"/>
</linearGradient>
<linearGradient id="paint47_linear_139_31986" x1="-1280" y1="-811.17" x2="1398.87" y2="958.815" gradientUnits="userSpaceOnUse">
<stop stop-color="white"/>
<stop offset="0.14" stop-color="#FAFAFA"/>
<stop offset="0.3" stop-color="#ECECEC"/>
<stop offset="0.48" stop-color="#D5D5D6"/>
<stop offset="0.66" stop-color="#B4B5B6"/>
<stop offset="0.85" stop-color="#8A8C8D"/>
<stop offset="1" stop-color="#626466"/>
</linearGradient>
<linearGradient id="paint48_linear_139_31986" x1="-1209.84" y1="-915.103" x2="1466.94" y2="853.467" gradientUnits="userSpaceOnUse">
<stop stop-color="white"/>
<stop offset="0.14" stop-color="#FAFAFA"/>
<stop offset="0.3" stop-color="#ECECEC"/>
<stop offset="0.48" stop-color="#D5D5D6"/>
<stop offset="0.66" stop-color="#B4B5B6"/>
<stop offset="0.85" stop-color="#8A8C8D"/>
<stop offset="1" stop-color="#626466"/>
</linearGradient>
<linearGradient id="paint49_linear_139_31986" x1="-1216.82" y1="-908.544" x2="1463.33" y2="862.255" gradientUnits="userSpaceOnUse">
<stop stop-color="white"/>
<stop offset="0.14" stop-color="#FAFAFA"/>
<stop offset="0.3" stop-color="#ECECEC"/>
<stop offset="0.48" stop-color="#D5D5D6"/>
<stop offset="0.66" stop-color="#B4B5B6"/>
<stop offset="0.85" stop-color="#8A8C8D"/>
<stop offset="1" stop-color="#626466"/>
</linearGradient>
<linearGradient id="paint50_linear_139_31986" x1="-1219.08" y1="-898.913" x2="1455.8" y2="868.432" gradientUnits="userSpaceOnUse">
<stop stop-color="white"/>
<stop offset="0.14" stop-color="#FAFAFA"/>
<stop offset="0.3" stop-color="#ECECEC"/>
<stop offset="0.48" stop-color="#D5D5D6"/>
<stop offset="0.66" stop-color="#B4B5B6"/>
<stop offset="0.85" stop-color="#8A8C8D"/>
<stop offset="1" stop-color="#626466"/>
</linearGradient>
<linearGradient id="paint51_linear_139_31986" x1="-1224.84" y1="-891.555" x2="1451.17" y2="876.505" gradientUnits="userSpaceOnUse">
<stop stop-color="white"/>
<stop offset="0.14" stop-color="#FAFAFA"/>
<stop offset="0.3" stop-color="#ECECEC"/>
<stop offset="0.48" stop-color="#D5D5D6"/>
<stop offset="0.66" stop-color="#B4B5B6"/>
<stop offset="0.85" stop-color="#8A8C8D"/>
<stop offset="1" stop-color="#626466"/>
</linearGradient>
<linearGradient id="paint52_linear_139_31986" x1="-1230.27" y1="-884.029" x2="1446.34" y2="884.451" gradientUnits="userSpaceOnUse">
<stop stop-color="white"/>
<stop offset="0.14" stop-color="#FAFAFA"/>
<stop offset="0.3" stop-color="#ECECEC"/>
<stop offset="0.48" stop-color="#D5D5D6"/>
<stop offset="0.66" stop-color="#B4B5B6"/>
<stop offset="0.85" stop-color="#8A8C8D"/>
<stop offset="1" stop-color="#626466"/>
</linearGradient>
<linearGradient id="paint53_linear_139_31986" x1="-1235.49" y1="-876.296" x2="1441.29" y2="892.274" gradientUnits="userSpaceOnUse">
<stop stop-color="white"/>
<stop offset="0.14" stop-color="#FAFAFA"/>
<stop offset="0.3" stop-color="#ECECEC"/>
<stop offset="0.48" stop-color="#D5D5D6"/>
<stop offset="0.66" stop-color="#B4B5B6"/>
<stop offset="0.85" stop-color="#8A8C8D"/>
<stop offset="1" stop-color="#626466"/>
</linearGradient>
<linearGradient id="paint54_linear_139_31986" x1="-1239.94" y1="-868.097" x2="1435.53" y2="899.59" gradientUnits="userSpaceOnUse">
<stop stop-color="white"/>
<stop offset="0.14" stop-color="#FAFAFA"/>
<stop offset="0.3" stop-color="#ECECEC"/>
<stop offset="0.48" stop-color="#D5D5D6"/>
<stop offset="0.66" stop-color="#B4B5B6"/>
<stop offset="0.85" stop-color="#8A8C8D"/>
<stop offset="1" stop-color="#626466"/>
</linearGradient>
<linearGradient id="paint55_linear_139_31986" x1="-1245.7" y1="-860.779" x2="1430.99" y2="907.744" gradientUnits="userSpaceOnUse">
<stop stop-color="white"/>
<stop offset="0.14" stop-color="#FAFAFA"/>
<stop offset="0.3" stop-color="#ECECEC"/>
<stop offset="0.48" stop-color="#D5D5D6"/>
<stop offset="0.66" stop-color="#B4B5B6"/>
<stop offset="0.85" stop-color="#8A8C8D"/>
<stop offset="1" stop-color="#626466"/>
</linearGradient>
<linearGradient id="paint56_linear_139_31986" x1="-1250.41" y1="-852.748" x2="1425.48" y2="915.27" gradientUnits="userSpaceOnUse">
<stop stop-color="white"/>
<stop offset="0.14" stop-color="#FAFAFA"/>
<stop offset="0.3" stop-color="#ECECEC"/>
<stop offset="0.48" stop-color="#D5D5D6"/>
<stop offset="0.66" stop-color="#B4B5B6"/>
<stop offset="0.85" stop-color="#8A8C8D"/>
<stop offset="1" stop-color="#626466"/>
</linearGradient>
<linearGradient id="paint57_linear_139_31986" x1="-1256.8" y1="-845.811" x2="1421.53" y2="923.805" gradientUnits="userSpaceOnUse">
<stop stop-color="white"/>
<stop offset="0.14" stop-color="#FAFAFA"/>
<stop offset="0.3" stop-color="#ECECEC"/>
<stop offset="0.48" stop-color="#D5D5D6"/>
<stop offset="0.66" stop-color="#B4B5B6"/>
<stop offset="0.85" stop-color="#8A8C8D"/>
<stop offset="1" stop-color="#626466"/>
</linearGradient>
<linearGradient id="paint58_linear_139_31986" x1="-1261.93" y1="-838.074" x2="1416.48" y2="931.584" gradientUnits="userSpaceOnUse">
<stop stop-color="white"/>
<stop offset="0.14" stop-color="#FAFAFA"/>
<stop offset="0.3" stop-color="#ECECEC"/>
<stop offset="0.48" stop-color="#D5D5D6"/>
<stop offset="0.66" stop-color="#B4B5B6"/>
<stop offset="0.85" stop-color="#8A8C8D"/>
<stop offset="1" stop-color="#626466"/>
</linearGradient>
<linearGradient id="paint59_linear_139_31986" x1="-1266.5" y1="-829.963" x2="1410.81" y2="938.959" gradientUnits="userSpaceOnUse">
<stop stop-color="white"/>
<stop offset="0.14" stop-color="#FAFAFA"/>
<stop offset="0.3" stop-color="#ECECEC"/>
<stop offset="0.48" stop-color="#D5D5D6"/>
<stop offset="0.66" stop-color="#B4B5B6"/>
<stop offset="0.85" stop-color="#8A8C8D"/>
<stop offset="1" stop-color="#626466"/>
</linearGradient>
<linearGradient id="paint60_linear_139_31986" x1="-1271.77" y1="-822.268" x2="1405.8" y2="946.807" gradientUnits="userSpaceOnUse">
<stop stop-color="white"/>
<stop offset="0.14" stop-color="#FAFAFA"/>
<stop offset="0.3" stop-color="#ECECEC"/>
<stop offset="0.48" stop-color="#D5D5D6"/>
<stop offset="0.66" stop-color="#B4B5B6"/>
<stop offset="0.85" stop-color="#8A8C8D"/>
<stop offset="1" stop-color="#626466"/>
</linearGradient>
<linearGradient id="paint61_linear_139_31986" x1="-1276.27" y1="-814.112" x2="1400" y2="954.164" gradientUnits="userSpaceOnUse">
<stop stop-color="white"/>
<stop offset="0.14" stop-color="#FAFAFA"/>
<stop offset="0.3" stop-color="#ECECEC"/>
<stop offset="0.48" stop-color="#D5D5D6"/>
<stop offset="0.66" stop-color="#B4B5B6"/>
<stop offset="0.85" stop-color="#8A8C8D"/>
<stop offset="1" stop-color="#626466"/>
</linearGradient>
<linearGradient id="paint62_linear_139_31986" x1="-1282.3" y1="-806.961" x2="1395.88" y2="962.543" gradientUnits="userSpaceOnUse">
<stop stop-color="white"/>
<stop offset="0.14" stop-color="#FAFAFA"/>
<stop offset="0.3" stop-color="#ECECEC"/>
<stop offset="0.48" stop-color="#D5D5D6"/>
<stop offset="0.66" stop-color="#B4B5B6"/>
<stop offset="0.85" stop-color="#8A8C8D"/>
<stop offset="1" stop-color="#626466"/>
</linearGradient>
<linearGradient id="paint63_linear_139_31986" x1="-1287.53" y1="-799.271" x2="1390.88" y2="970.378" gradientUnits="userSpaceOnUse">
<stop stop-color="white"/>
<stop offset="0.14" stop-color="#FAFAFA"/>
<stop offset="0.3" stop-color="#ECECEC"/>
<stop offset="0.48" stop-color="#D5D5D6"/>
<stop offset="0.66" stop-color="#B4B5B6"/>
<stop offset="0.85" stop-color="#8A8C8D"/>
<stop offset="1" stop-color="#626466"/>
</linearGradient>
<linearGradient id="paint64_linear_139_31986" x1="-1217.79" y1="-903.489" x2="1459.31" y2="865.342" gradientUnits="userSpaceOnUse">
<stop stop-color="white"/>
<stop offset="0.14" stop-color="#FAFAFA"/>
<stop offset="0.3" stop-color="#ECECEC"/>
<stop offset="0.48" stop-color="#D5D5D6"/>
<stop offset="0.66" stop-color="#B4B5B6"/>
<stop offset="0.85" stop-color="#8A8C8D"/>
<stop offset="1" stop-color="#626466"/>
</linearGradient>
<linearGradient id="paint65_linear_139_31986" x1="-1224.43" y1="-896.72" x2="1455.4" y2="873.918" gradientUnits="userSpaceOnUse">
<stop stop-color="white"/>
<stop offset="0.14" stop-color="#FAFAFA"/>
<stop offset="0.3" stop-color="#ECECEC"/>
<stop offset="0.48" stop-color="#D5D5D6"/>
<stop offset="0.66" stop-color="#B4B5B6"/>
<stop offset="0.85" stop-color="#8A8C8D"/>
<stop offset="1" stop-color="#626466"/>
</linearGradient>
<linearGradient id="paint66_linear_139_31986" x1="-1226.86" y1="-887.184" x2="1448.06" y2="880.162" gradientUnits="userSpaceOnUse">
<stop stop-color="white"/>
<stop offset="0.14" stop-color="#FAFAFA"/>
<stop offset="0.3" stop-color="#ECECEC"/>
<stop offset="0.48" stop-color="#D5D5D6"/>
<stop offset="0.66" stop-color="#B4B5B6"/>
<stop offset="0.85" stop-color="#8A8C8D"/>
<stop offset="1" stop-color="#626466"/>
</linearGradient>
<linearGradient id="paint67_linear_139_31986" x1="-1232.75" y1="-879.952" x2="1443.6" y2="888.361" gradientUnits="userSpaceOnUse">
<stop stop-color="white"/>
<stop offset="0.14" stop-color="#FAFAFA"/>
<stop offset="0.3" stop-color="#ECECEC"/>
<stop offset="0.48" stop-color="#D5D5D6"/>
<stop offset="0.66" stop-color="#B4B5B6"/>
<stop offset="0.85" stop-color="#8A8C8D"/>
<stop offset="1" stop-color="#626466"/>
</linearGradient>
<linearGradient id="paint68_linear_139_31986" x1="-1237.88" y1="-872.174" x2="1438.47" y2="896.097" gradientUnits="userSpaceOnUse">
<stop stop-color="white"/>
<stop offset="0.14" stop-color="#FAFAFA"/>
<stop offset="0.3" stop-color="#ECECEC"/>
<stop offset="0.48" stop-color="#D5D5D6"/>
<stop offset="0.66" stop-color="#B4B5B6"/>
<stop offset="0.85" stop-color="#8A8C8D"/>
<stop offset="1" stop-color="#626466"/>
</linearGradient>
<linearGradient id="paint69_linear_139_31986" x1="-1243.27" y1="-864.556" x2="1433.54" y2="904.022" gradientUnits="userSpaceOnUse">
<stop stop-color="white"/>
<stop offset="0.14" stop-color="#FAFAFA"/>
<stop offset="0.3" stop-color="#ECECEC"/>
<stop offset="0.48" stop-color="#D5D5D6"/>
<stop offset="0.66" stop-color="#B4B5B6"/>
<stop offset="0.85" stop-color="#8A8C8D"/>
<stop offset="1" stop-color="#626466"/>
</linearGradient>
<linearGradient id="paint70_linear_139_31986" x1="-1247.85" y1="-856.484" x2="1427.9" y2="911.464" gradientUnits="userSpaceOnUse">
<stop stop-color="white"/>
<stop offset="0.14" stop-color="#FAFAFA"/>
<stop offset="0.3" stop-color="#ECECEC"/>
<stop offset="0.48" stop-color="#D5D5D6"/>
<stop offset="0.66" stop-color="#B4B5B6"/>
<stop offset="0.85" stop-color="#8A8C8D"/>
<stop offset="1" stop-color="#626466"/>
</linearGradient>
<linearGradient id="paint71_linear_139_31986" x1="-1253.65" y1="-849.133" x2="1423.38" y2="919.6" gradientUnits="userSpaceOnUse">
<stop stop-color="white"/>
<stop offset="0.14" stop-color="#FAFAFA"/>
<stop offset="0.3" stop-color="#ECECEC"/>
<stop offset="0.48" stop-color="#D5D5D6"/>
<stop offset="0.66" stop-color="#B4B5B6"/>
<stop offset="0.85" stop-color="#8A8C8D"/>
<stop offset="1" stop-color="#626466"/>
</linearGradient>
<linearGradient id="paint72_linear_139_31986" x1="-1258.35" y1="-841.103" x2="1417.87" y2="927.084" gradientUnits="userSpaceOnUse">
<stop stop-color="white"/>
<stop offset="0.14" stop-color="#FAFAFA"/>
<stop offset="0.3" stop-color="#ECECEC"/>
<stop offset="0.48" stop-color="#D5D5D6"/>
<stop offset="0.66" stop-color="#B4B5B6"/>
<stop offset="0.85" stop-color="#8A8C8D"/>
<stop offset="1" stop-color="#626466"/>
</linearGradient>
<linearGradient id="paint73_linear_139_31986" x1="-1264.41" y1="-833.997" x2="1413.67" y2="935.451" gradientUnits="userSpaceOnUse">
<stop stop-color="white"/>
<stop offset="0.14" stop-color="#FAFAFA"/>
<stop offset="0.3" stop-color="#ECECEC"/>
<stop offset="0.48" stop-color="#D5D5D6"/>
<stop offset="0.66" stop-color="#B4B5B6"/>
<stop offset="0.85" stop-color="#8A8C8D"/>
<stop offset="1" stop-color="#626466"/>
</linearGradient>
<linearGradient id="paint74_linear_139_31986" x1="-1269.88" y1="-826.471" x2="1408.87" y2="943.439" gradientUnits="userSpaceOnUse">
<stop stop-color="white"/>
<stop offset="0.14" stop-color="#FAFAFA"/>
<stop offset="0.3" stop-color="#ECECEC"/>
<stop offset="0.48" stop-color="#D5D5D6"/>
<stop offset="0.66" stop-color="#B4B5B6"/>
<stop offset="0.85" stop-color="#8A8C8D"/>
<stop offset="1" stop-color="#626466"/>
</linearGradient>
<linearGradient id="paint75_linear_139_31986" x1="-1274.28" y1="-818.223" x2="1403.02" y2="950.706" gradientUnits="userSpaceOnUse">
<stop stop-color="white"/>
<stop offset="0.14" stop-color="#FAFAFA"/>
<stop offset="0.3" stop-color="#ECECEC"/>
<stop offset="0.48" stop-color="#D5D5D6"/>
<stop offset="0.66" stop-color="#B4B5B6"/>
<stop offset="0.85" stop-color="#8A8C8D"/>
<stop offset="1" stop-color="#626466"/>
</linearGradient>
<linearGradient id="paint76_linear_139_31986" x1="-1279.68" y1="-810.613" x2="1398.18" y2="958.68" gradientUnits="userSpaceOnUse">
<stop stop-color="white"/>
<stop offset="0.14" stop-color="#FAFAFA"/>
<stop offset="0.3" stop-color="#ECECEC"/>
<stop offset="0.48" stop-color="#D5D5D6"/>
<stop offset="0.66" stop-color="#B4B5B6"/>
<stop offset="0.85" stop-color="#8A8C8D"/>
<stop offset="1" stop-color="#626466"/>
</linearGradient>
<linearGradient id="paint77_linear_139_31986" x1="-1284.18" y1="-802.457" x2="1392.42" y2="966.037" gradientUnits="userSpaceOnUse">
<stop stop-color="white"/>
<stop offset="0.14" stop-color="#FAFAFA"/>
<stop offset="0.3" stop-color="#ECECEC"/>
<stop offset="0.48" stop-color="#D5D5D6"/>
<stop offset="0.66" stop-color="#B4B5B6"/>
<stop offset="0.85" stop-color="#8A8C8D"/>
<stop offset="1" stop-color="#626466"/>
</linearGradient>
<linearGradient id="paint78_linear_139_31986" x1="-1289.96" y1="-795.148" x2="1387.98" y2="974.188" gradientUnits="userSpaceOnUse">
<stop stop-color="white"/>
<stop offset="0.14" stop-color="#FAFAFA"/>
<stop offset="0.3" stop-color="#ECECEC"/>
<stop offset="0.48" stop-color="#D5D5D6"/>
<stop offset="0.66" stop-color="#B4B5B6"/>
<stop offset="0.85" stop-color="#8A8C8D"/>
<stop offset="1" stop-color="#626466"/>
</linearGradient>
<linearGradient id="paint79_linear_139_31986" x1="-1295.31" y1="-787.532" x2="1383.13" y2="982.167" gradientUnits="userSpaceOnUse">
<stop stop-color="white"/>
<stop offset="0.14" stop-color="#FAFAFA"/>
<stop offset="0.3" stop-color="#ECECEC"/>
<stop offset="0.48" stop-color="#D5D5D6"/>
<stop offset="0.66" stop-color="#B4B5B6"/>
<stop offset="0.85" stop-color="#8A8C8D"/>
<stop offset="1" stop-color="#626466"/>
</linearGradient>
</defs>
</svg>
