<svg width="48" height="48" viewBox="0 0 48 48" fill="none" xmlns="http://www.w3.org/2000/svg">
<path d="M38.954 41.8064L37.1617 36.4289C36.8544 35.5073 36.305 34.6852 35.571 34.0487C34.837 33.4123 33.9454 32.9848 32.9896 32.8111L27.8156 31.8697V31.4686C28.716 30.9461 29.4995 30.247 30.1235 29.4194H31.6866C32.9671 29.4194 34.0092 28.3773 34.0092 27.0968V17.8065C34.0092 12.257 29.4941 7.74194 23.9447 7.74194C18.3952 7.74194 13.8802 12.257 13.8802 17.8065V23.2258C13.8802 24.7185 14.9416 25.9672 16.3491 26.2583C16.7834 28.4834 18.1738 30.3662 20.0737 31.4686V31.8697L14.899 32.8111C13.9432 32.9848 13.0518 33.4123 12.3179 34.0488C11.584 34.6853 11.0348 35.5073 10.7276 36.4289L10.418 37.3587L7.78106 34.7218C7.47912 34.4199 7.47912 33.9283 7.78106 33.6263L10.8391 30.569L5.09925 24.8292L1.64325 28.2852C0.619765 29.3086 0.0561523 30.6697 0.0561523 32.1174C0.0561523 33.5652 0.619765 34.9254 1.64325 35.9489L12.1065 46.4121C13.13 47.4356 14.491 48 15.9387 48C17.3865 48 18.7467 47.4356 19.7462 46.4354L23.5173 42.9801L22.3413 41.8064H38.954ZM32.4608 27.0968C32.4608 27.5241 32.1132 27.871 31.6866 27.871H31.0355C31.2625 27.3536 31.4318 26.8128 31.5403 26.2583C31.8716 26.1894 32.1767 26.0578 32.4608 25.8921V27.0968ZM31.6866 24.559V21.8926C32.1473 22.1613 32.4608 22.6552 32.4608 23.2258C32.4608 23.7964 32.1473 24.2903 31.6866 24.559ZM16.2027 24.559C15.7421 24.2903 15.4285 23.7964 15.4285 23.2258C15.4285 22.6552 15.7421 22.1613 16.2027 21.8926V24.559ZM16.2027 19.3548V20.239C15.9312 20.3099 15.6707 20.4178 15.4285 20.5595V17.8065C15.4285 13.111 19.2492 9.29032 23.9447 9.29032C28.6402 9.29032 32.4608 13.111 32.4608 17.8065V20.5595C32.2188 20.4174 31.9582 20.3096 31.6866 20.239V19.3548H30.9124C28.6231 19.3548 26.4709 18.463 24.8512 16.8441L23.9447 15.9375L23.0381 16.8441C21.4185 18.463 19.2662 19.3548 16.9769 19.3548H16.2027ZM17.7511 24.7742V20.8738C20.076 20.6988 22.2438 19.7396 23.9447 18.1223C25.6456 19.7396 27.8133 20.6996 30.1382 20.8738V24.7742C30.1382 25.903 29.8301 26.959 29.3005 27.871H23.9447V29.4194H28.0278C26.9362 30.3801 25.5093 30.9677 23.9447 30.9677C20.5297 30.9677 17.7511 28.1892 17.7511 24.7742ZM26.2673 32.1592V32.1956L23.9447 34.5182L21.6221 32.1956V32.1592C22.356 32.3899 23.1356 32.5161 23.9447 32.5161C24.7537 32.5161 25.5333 32.3899 26.2673 32.1592ZM12.1955 36.9182C12.415 36.2598 12.8074 35.6725 13.3316 35.2178C13.8558 34.763 14.4926 34.4575 15.1754 34.3332L20.587 33.3499L23.9447 36.7076L27.3016 33.3507L32.7124 34.3339C33.3952 34.4581 34.0321 34.7636 34.5564 35.2184C35.0806 35.6732 35.4729 36.2605 35.6923 36.919L36.8064 40.2581H20.7929L17.7774 37.2426L14.4267 40.2735C14.1349 40.567 13.6247 40.567 13.332 40.2735L11.6412 38.5827L12.1955 36.9182ZM5.09847 27.0186L8.64893 30.569L7.80815 31.4098L4.2577 27.8594L5.09847 27.0186ZM18.674 45.319C17.9431 46.0483 16.9707 46.4516 15.9372 46.4516C14.9036 46.4516 13.9312 46.0483 13.1996 45.3174L2.73641 34.855C2.00557 34.1241 1.60299 33.1517 1.60299 32.1182C1.60299 31.0839 2.00557 30.1115 2.73641 29.3806L3.16222 28.9548L6.71267 32.5053L6.6848 32.5332C5.77977 33.439 5.77977 34.9123 6.6848 35.8181L12.2365 41.3698C12.6755 41.808 13.2585 42.0503 13.8794 42.0503C14.5003 42.0503 15.0833 41.8088 15.4936 41.3969L15.5516 41.345L19.1183 44.9117L18.674 45.319ZM20.2611 43.8635L16.7021 40.3045L17.7248 39.3801L21.2776 42.9329L20.2611 43.8635ZM45.6221 0H34.7834C33.5029 0 32.4608 1.04206 32.4608 2.32258V8.51613C32.4608 9.79665 33.5029 10.8387 34.7834 10.8387H36.8512L36.0507 15.5079L43.5217 10.8387H45.6221C46.9026 10.8387 47.9447 9.79665 47.9447 8.51613V2.32258C47.9447 1.04206 46.9026 0 45.6221 0ZM46.3963 8.51613C46.3963 8.94271 46.0487 9.29032 45.6221 9.29032H43.0773L38.1604 12.3631L38.6876 9.29032H34.7834C34.3568 9.29032 34.0092 8.94271 34.0092 8.51613V2.32258C34.0092 1.896 34.3568 1.54839 34.7834 1.54839H45.6221C46.0487 1.54839 46.3963 1.896 46.3963 2.32258V8.51613Z" fill="white"/>
<path d="M35.5576 3.0967H44.8479V4.64509H35.5576V3.0967ZM35.5576 6.19348H41.7512V7.74186H35.5576V6.19348ZM43.2996 6.19348H44.8479V7.74186H43.2996V6.19348ZM23.9447 2.32251C13.8291 2.32251 5.11555 9.31967 2.85026 19.0799L1.38316 16.6343L0.0554199 17.4309L2.77671 21.9653L7.31116 19.2441L6.51452 17.9163L4.41645 19.1752C6.61052 10.2464 14.6397 3.8709 23.9447 3.8709C25.9785 3.8709 27.9852 4.17283 29.9091 4.76896L30.3674 3.29025C28.2949 2.64767 26.1341 2.32251 23.9447 2.32251ZM47.5685 17.1421L43.034 14.4208L40.3135 18.9561L41.6412 19.7527L42.9961 17.4944C43.7091 19.5808 44.0737 21.7633 44.0737 23.9999C44.0737 28.6041 42.4789 33.1052 39.5842 36.6735L40.7865 37.649C43.905 33.8059 45.6221 28.9579 45.6221 23.9999C45.6221 21.6317 45.2405 19.3192 44.4965 17.105L46.7718 18.4699L47.5685 17.1421Z" fill="white"/>
</svg>
