<svg width="48" height="48" viewBox="0 0 48 48" fill="none" xmlns="http://www.w3.org/2000/svg">
<path d="M22.2286 7.67667C22.0351 7.67667 21.8495 7.75354 21.7127 7.89036C21.5759 8.02718 21.499 8.21274 21.499 8.40623C21.499 8.59973 21.5759 8.78529 21.7127 8.92211C21.8495 9.05893 22.0351 9.1358 22.2286 9.1358H25.5144C26.2199 9.1358 26.7938 8.56186 26.7938 7.85648V5.32823C26.7938 4.62277 26.2199 4.04883 25.5144 4.04883H10.4246C9.71916 4.04883 9.14522 4.62277 9.14522 5.32823V7.85658C9.14522 8.56195 9.71916 9.13589 10.4246 9.13589H18.7994C18.9929 9.13589 19.1785 9.05903 19.3153 8.92221C19.4521 8.78539 19.529 8.59982 19.529 8.40633C19.529 8.21284 19.4521 8.02727 19.3153 7.89045C19.1785 7.75363 18.9929 7.67677 18.7994 7.67677H10.6044V5.50805H25.3346V7.67658L22.2286 7.67667ZM5.88431 12.8816C5.8843 12.9774 5.90316 13.0723 5.93982 13.1608C5.97648 13.2493 6.03022 13.3297 6.09797 13.3975C6.16572 13.4652 6.24615 13.519 6.33467 13.5556C6.42319 13.5923 6.51806 13.6112 6.61387 13.6111H29.4797C29.5755 13.6112 29.6704 13.5923 29.7589 13.5556C29.8474 13.519 29.9278 13.4652 29.9956 13.3975C30.0633 13.3297 30.1171 13.2493 30.1537 13.1608C30.1904 13.0723 30.2093 12.9774 30.2093 12.8816C30.2093 12.7858 30.1904 12.6909 30.1537 12.6024C30.1171 12.5139 30.0633 12.4334 29.9956 12.3657C29.9278 12.2979 29.8474 12.2442 29.7589 12.2075C29.6704 12.1709 29.5755 12.152 29.4797 12.152H6.61387C6.51806 12.152 6.42318 12.1708 6.33465 12.2075C6.24613 12.2442 6.16569 12.2979 6.09794 12.3656C6.03019 12.4334 5.97645 12.5138 5.9398 12.6024C5.90314 12.6909 5.88429 12.7858 5.88431 12.8816ZM6.61387 18.2017H29.4797C29.5755 18.2017 29.6704 18.1829 29.7589 18.1462C29.8474 18.1095 29.9278 18.0558 29.9956 17.988C30.0633 17.9203 30.1171 17.8399 30.1537 17.7513C30.1904 17.6628 30.2093 17.568 30.2093 17.4721C30.2093 17.3763 30.1904 17.2815 30.1537 17.1929C30.1171 17.1044 30.0633 17.024 29.9956 16.9562C29.9278 16.8885 29.8474 16.8347 29.7589 16.7981C29.6704 16.7614 29.5755 16.7426 29.4797 16.7426H6.61387C6.42038 16.7426 6.23482 16.8194 6.098 16.9563C5.96118 17.0931 5.88431 17.2787 5.88431 17.4721C5.88431 17.6656 5.96118 17.8512 6.098 17.988C6.23482 18.1248 6.42038 18.2017 6.61387 18.2017ZM24.9695 22.0628C24.9695 21.967 24.9506 21.8721 24.914 21.7836C24.8773 21.6951 24.8236 21.6146 24.7558 21.5469C24.6881 21.4791 24.6076 21.4254 24.5191 21.3887C24.4306 21.3521 24.3357 21.3332 24.2399 21.3332H6.61387C6.42038 21.3332 6.23482 21.4101 6.098 21.5469C5.96118 21.6837 5.88431 21.8693 5.88431 22.0628C5.88431 22.2563 5.96118 22.4419 6.098 22.5787C6.23482 22.7155 6.42038 22.7924 6.61387 22.7924H24.2398C24.4333 22.7924 24.6189 22.7155 24.7557 22.5787C24.8926 22.4419 24.9694 22.2563 24.9695 22.0628ZM15.727 27.3829C15.9205 27.3829 16.1061 27.3061 16.2429 27.1692C16.3797 27.0324 16.4566 26.8469 16.4566 26.6534C16.4566 26.4599 16.3797 26.2743 16.2429 26.1375C16.1061 26.0007 15.9205 25.9238 15.727 25.9238H6.61387C6.42038 25.9238 6.23482 26.0007 6.098 26.1375C5.96118 26.2743 5.88431 26.4599 5.88431 26.6534C5.88431 26.8469 5.96118 27.0324 6.098 27.1692C6.23482 27.3061 6.42038 27.3829 6.61387 27.3829H15.727ZM5.73422 41.5695C6.12197 41.6806 6.52537 41.4554 6.63581 41.0678C6.6405 41.0516 7.11909 39.4467 8.98228 39.4467C9.90197 39.4467 10.3385 39.808 10.9427 40.3081C11.6369 40.8828 12.501 41.598 14.1705 41.598C16.2522 41.598 17.3712 39.397 17.4179 39.3033C17.597 38.9436 17.4506 38.508 17.0916 38.3277C16.7325 38.1473 16.2945 38.2925 16.1127 38.6508C16.1051 38.6657 15.3446 40.1387 14.1705 40.1387C13.0266 40.1387 12.5175 39.7174 11.8731 39.184C11.1954 38.6231 10.4275 37.9875 8.98219 37.9875C6.62006 37.9875 5.49647 39.7409 5.23237 40.668C5.17937 40.8541 5.20247 41.0536 5.29658 41.2227C5.39069 41.3918 5.54811 41.5165 5.73422 41.5695Z" fill="white"/>
<path d="M47.2847 7.49137C47.2489 7.40222 47.1959 7.321 47.1288 7.25237C47.0616 7.18374 46.9815 7.12905 46.8931 7.09144L45.1978 6.37012C45.34 6.01069 45.1613 5.58403 44.8093 5.43197L44.4713 5.286L45.0198 4.01587C45.6393 2.57841 44.9541 0.855281 43.5181 0.234938C42.0832 -0.384937 40.3584 0.300469 39.7384 1.73494L39.1732 3.04322C38.5267 2.93053 37.8728 3.28575 37.6133 3.88669L36.0936 7.40597V3.67097C36.0936 1.64672 34.4468 0 32.4226 0H3.66994C1.64634 0 0 1.64634 0 3.66994V44.3301C0 46.3537 1.64634 48 3.66994 48H32.4236C34.4472 48 36.0935 46.3537 36.0935 44.3301V34.1152C36.0935 33.9218 36.0166 33.7362 35.8798 33.5994C35.743 33.4626 35.5574 33.3857 35.3639 33.3857C35.1704 33.3857 34.9848 33.4626 34.848 33.5994C34.7112 33.7362 34.6343 33.9218 34.6343 34.1152V44.3301C34.6343 45.5491 33.6427 46.5408 32.4237 46.5408H3.66994C2.45091 46.5408 1.45922 45.5491 1.45922 44.3301V3.66994C1.45922 2.45091 2.451 1.45922 3.66994 1.45922H32.4226C33.6421 1.45922 34.6343 2.45138 34.6343 3.67097V10.7849L23.4513 36.6854C23.4118 36.7769 23.3913 36.8754 23.3909 36.9751L23.3994 43.121C23.4006 44.4923 25.0964 45.2308 26.1002 44.287L30.5784 40.0789C30.6406 40.0202 30.6919 39.951 30.7299 39.8745C30.7339 39.8667 30.7378 39.859 30.7415 39.8511C30.7438 39.8461 30.7465 39.8413 30.7487 39.8363L44.6203 7.71019L45.6478 8.14734L40.2212 20.7663C40.1447 20.944 40.142 21.1449 40.2137 21.3246C40.2853 21.5044 40.4254 21.6483 40.6032 21.7247C40.7809 21.8012 40.9818 21.8039 41.1615 21.7322C41.3413 21.6606 41.4852 21.5205 41.5616 21.3428L47.2776 8.05106C47.3155 7.96283 47.3357 7.86797 47.3369 7.77193C47.3381 7.67588 47.3204 7.58054 47.2847 7.49137ZM42.4616 1.46175C43.4293 1.51144 44.0601 2.55637 43.6799 3.43772L43.1317 4.70728L40.5292 3.58378L41.0779 2.31375C41.3128 1.77019 41.8678 1.42894 42.4616 1.46175ZM38.943 4.48837L43.5611 6.48234L37.6933 20.0719L33.0744 18.0774L38.943 4.48837ZM29.6983 38.5882L25.0803 36.5939L32.4961 19.4172L37.115 21.4117L29.6983 38.5882ZM25.1007 43.2237C25.0108 43.3081 24.8586 43.2434 24.8586 43.1196L24.8517 38.0847L28.7693 39.7763L25.1007 43.2237Z" fill="white"/>
</svg>
