<svg width="48" height="48" viewBox="0 0 48 48" fill="none" xmlns="http://www.w3.org/2000/svg">
<circle cx="36" cy="36" r="10" fill="#1D9AD7"/>
<path fill-rule="evenodd" clip-rule="evenodd" d="M1 11.714C1 9.13 3.056 7 5.636 7H38.364C40.944 7 43 9.13 43 11.714V22C43 22.2652 42.8946 22.5196 42.7071 22.7071C42.5196 22.8946 42.2652 23 42 23C41.7348 23 41.4804 22.8946 41.2929 22.7071C41.1054 22.5196 41 22.2652 41 22V11.714C41 10.194 39.8 9 38.364 9H5.636C4.2 9 3 10.196 3 11.714V30.286C3 31.806 4.2 33 5.636 33H20C20.2652 33 20.5196 33.1054 20.7071 33.2929C20.8946 33.4804 21 33.7348 21 34C21 34.2652 20.8946 34.5196 20.7071 34.7071C20.5196 34.8946 20.2652 35 20 35H5.636C3.056 35 1 32.87 1 30.286V11.714Z" fill="white"/>
<path fill-rule="evenodd" clip-rule="evenodd" d="M1 14C1 13.7348 1.10536 13.4804 1.29289 13.2929C1.48043 13.1054 1.73478 13 2 13H42C42.2652 13 42.5196 13.1054 42.7071 13.2929C42.8946 13.4804 43 13.7348 43 14C43 14.2652 42.8946 14.5196 42.7071 14.7071C42.5196 14.8946 42.2652 15 42 15H2C1.73478 15 1.48043 14.8946 1.29289 14.7071C1.10536 14.5196 1 14.2652 1 14ZM5 24C5 23.7348 5.10536 23.4804 5.29289 23.2929C5.48043 23.1054 5.73478 23 6 23H10C10.2652 23 10.5196 23.1054 10.7071 23.2929C10.8946 23.4804 11 23.7348 11 24C11 24.2652 10.8946 24.5196 10.7071 24.7071C10.5196 24.8946 10.2652 25 10 25H6C5.73478 25 5.48043 24.8946 5.29289 24.7071C5.10536 24.5196 5 24.2652 5 24ZM5 29C5 28.7348 5.10536 28.4804 5.29289 28.2929C5.48043 28.1054 5.73478 28 6 28H14C14.2652 28 14.5196 28.1054 14.7071 28.2929C14.8946 28.4804 15 28.7348 15 29C15 29.2652 14.8946 29.5196 14.7071 29.7071C14.5196 29.8946 14.2652 30 14 30H6C5.73478 30 5.48043 29.8946 5.29289 29.7071C5.10536 29.5196 5 29.2652 5 29ZM36 27C33.6131 27 31.3239 27.9482 29.636 29.636C27.9482 31.3239 27 33.6131 27 36C27 38.3869 27.9482 40.6761 29.636 42.364C31.3239 44.0518 33.6131 45 36 45C38.3869 45 40.6761 44.0518 42.364 42.364C44.0518 40.6761 45 38.3869 45 36C45 33.6131 44.0518 31.3239 42.364 29.636C40.6761 27.9482 38.3869 27 36 27ZM25 36C25 34.5555 25.2845 33.1251 25.8373 31.7905C26.3901 30.4559 27.2004 29.2433 28.2218 28.2218C29.2433 27.2004 30.4559 26.3901 31.7905 25.8373C33.1251 25.2845 34.5555 25 36 25C37.4445 25 38.8749 25.2845 40.2095 25.8373C41.5441 26.3901 42.7567 27.2004 43.7782 28.2218C44.7996 29.2433 45.6099 30.4559 46.1627 31.7905C46.7155 33.1251 47 34.5555 47 36C47 38.9174 45.8411 41.7153 43.7782 43.7782C41.7153 45.8411 38.9174 47 36 47C33.0826 47 30.2847 45.8411 28.2218 43.7782C26.1589 41.7153 25 38.9174 25 36Z" fill="white"/>
<path fill-rule="evenodd" clip-rule="evenodd" d="M39.292 34.292C39.4798 34.1043 39.7345 33.9988 40 33.9988C40.2656 33.9988 40.5203 34.1043 40.708 34.292C40.8958 34.4798 41.0013 34.7345 41.0013 35C41.0013 35.2656 40.8958 35.5203 40.708 35.708L36.708 39.708C36.6152 39.8012 36.5048 39.8751 36.3833 39.9255C36.2618 39.9759 36.1316 40.0018 36 40.0018C35.8685 40.0018 35.7383 39.9759 35.6168 39.9255C35.4953 39.8751 35.3849 39.8012 35.292 39.708L32.292 36.708C32.1043 36.5203 31.9988 36.2656 31.9988 36C31.9988 35.7345 32.1043 35.4798 32.292 35.292C32.4798 35.1043 32.7345 34.9988 33 34.9988C33.2656 34.9988 33.5203 35.1043 33.708 35.292L36 37.586L39.292 34.292Z" fill="white"/>
</svg>
