<svg width="48" height="48" viewBox="0 0 48 48" fill="none" xmlns="http://www.w3.org/2000/svg">
<g clip-path="url(#clip0_139_32138)">
<circle cx="20" cy="20" r="10" fill="#1D9AD7"/>
<path d="M44.6398 21.6903L43.3968 16.7183C43.7366 16.6461 43.9916 16.3446 43.9916 15.9834V15.1817C43.9916 13.4412 42.5755 12.0252 40.8351 12.0252H35.1733V10.3716C35.1733 9.51511 34.4766 8.81836 33.6201 8.81836H4.75987C3.90337 8.81836 3.20662 9.51511 3.20662 10.3716V24C3.20662 24.1994 3.28581 24.3906 3.42676 24.5315C3.56771 24.6725 3.75888 24.7516 3.95822 24.7516C4.15755 24.7516 4.34872 24.6725 4.48968 24.5315C4.63063 24.3906 4.70981 24.1994 4.70981 24V10.3716C4.70981 10.344 4.73222 10.3215 4.75987 10.3215H33.62C33.6476 10.3215 33.67 10.344 33.67 10.3716V24.0002C33.67 24.1996 33.7492 24.3907 33.8902 24.5317C34.0311 24.6726 34.2223 24.7518 34.4216 24.7518C34.621 24.7518 34.8121 24.6726 34.9531 24.5317C35.094 24.3907 35.1732 24.1996 35.1732 24.0002V23.1482H44.0391L44.041 23.1484L44.0431 23.1483C45.1341 23.1491 46.0604 23.8651 46.3786 24.8519H44.0416C43.8423 24.8519 43.6511 24.931 43.5101 25.072C43.3692 25.2129 43.29 25.4041 43.29 25.6035V27.2068C43.29 28.5053 44.3464 29.5617 45.6449 29.5617H46.4967V32.8685H44.5315C43.886 31.0045 42.114 29.6618 40.0332 29.6618C37.9524 29.6618 36.1804 31.0045 35.5349 32.8685H35.173V27.2067C35.173 27.0073 35.0938 26.8162 34.9529 26.6752C34.8119 26.5343 34.6208 26.4551 34.4214 26.4551C34.2221 26.4551 34.0309 26.5343 33.89 26.6752C33.749 26.8162 33.6698 27.0073 33.6698 27.2067V32.8683H18.0766C17.431 31.0043 15.6591 29.6616 13.5783 29.6616C11.4975 29.6616 9.72544 31.0043 9.07997 32.8683H4.75987C4.7466 32.8683 4.73386 32.8631 4.72448 32.8537C4.71509 32.8443 4.70981 32.8315 4.70981 32.8183V31.1648H7.96659C8.16593 31.1648 8.3571 31.0856 8.49805 30.9447C8.639 30.8037 8.71819 30.6125 8.71819 30.4132C8.71819 30.2139 8.639 30.0227 8.49805 29.8817C8.3571 29.7408 8.16593 29.6616 7.96659 29.6616H0.751594C0.552259 29.6616 0.361088 29.7408 0.220137 29.8817C0.0791855 30.0227 0 30.2139 0 30.4132C0 30.6125 0.0791855 30.8037 0.220137 30.9447C0.361088 31.0856 0.552259 31.1648 0.751594 31.1648H3.20672V32.8183C3.20672 33.6748 3.90347 34.3715 4.75997 34.3715H8.81972C8.81953 34.3882 8.81841 34.4048 8.81841 34.4216C8.81841 37.0462 10.9538 39.1815 13.5783 39.1815C16.2028 39.1815 18.3382 37.0462 18.3382 34.4216C18.3382 34.4047 18.337 34.3882 18.3368 34.3715H35.2747C35.2745 34.3882 35.2733 34.4048 35.2733 34.4216C35.2733 37.0462 37.4087 39.1815 40.0332 39.1815C42.6577 39.1815 44.7931 37.0462 44.7931 34.4216C44.7931 34.4047 44.792 34.3882 44.7918 34.3715H47.2483C47.4476 34.3715 47.6388 34.2923 47.7798 34.1514C47.9207 34.0104 47.9999 33.8193 47.9999 33.6199V25.6033C48 23.624 46.5397 21.9795 44.6398 21.6903ZM35.1733 13.5283H40.8351C41.7468 13.5283 42.4885 14.27 42.4885 15.1817V15.2318H35.1733V13.5283ZM35.1733 21.6451V16.7349H41.8516L43.0792 21.6451H35.1733ZM13.5783 37.6785C11.7825 37.6785 10.3215 36.2176 10.3215 34.4218C10.3215 32.6259 11.7825 31.165 13.5783 31.165C15.3741 31.165 16.8351 32.6259 16.8351 34.4218C16.8351 36.2176 15.3741 37.6785 13.5783 37.6785ZM40.0334 37.6785C38.2376 37.6785 36.7766 36.2176 36.7766 34.4218C36.7766 32.6259 38.2376 31.165 40.0334 31.165C41.8292 31.165 43.2902 32.6259 43.2902 34.4218C43.2902 36.2176 41.8292 37.6785 40.0334 37.6785ZM46.4969 28.0585H45.6451C45.1754 28.0585 44.7933 27.6764 44.7933 27.2067V26.3549H46.4968V28.0585H46.4969Z" fill="white"/>
<path d="M13.5782 32.8685C12.7217 32.8685 12.025 33.5653 12.025 34.4218C12.025 35.2783 12.7217 35.975 13.5782 35.975C14.4347 35.975 15.1315 35.2783 15.1315 34.4218C15.1315 33.5653 14.4347 32.8685 13.5782 32.8685ZM40.0334 32.8685C39.1769 32.8685 38.4801 33.5653 38.4801 34.4218C38.4801 35.2783 39.1769 35.975 40.0334 35.975C40.8899 35.975 41.5866 35.2783 41.5866 34.4218C41.5866 33.5653 40.8899 32.8685 40.0334 32.8685ZM31.215 29.6619H19.9916C19.7922 29.6619 19.6011 29.7411 19.4601 29.882C19.3192 30.023 19.24 30.2142 19.24 30.4135C19.24 30.6128 19.3192 30.804 19.4601 30.945C19.6011 31.0859 19.7922 31.1651 19.9916 31.1651H31.215C31.4143 31.1651 31.6055 31.0859 31.7464 30.945C31.8874 30.804 31.9666 30.6128 31.9666 30.4135C31.9666 30.2142 31.8874 30.023 31.7464 29.882C31.6055 29.7411 31.4143 29.6619 31.215 29.6619ZM11.9749 26.4552H2.35487C2.15553 26.4552 1.96436 26.5344 1.82341 26.6753C1.68246 26.8163 1.60327 27.0074 1.60327 27.2068C1.60327 27.4061 1.68246 27.5973 1.82341 27.7382C1.96436 27.8792 2.15553 27.9584 2.35487 27.9584H11.9749C12.1743 27.9584 12.3654 27.8792 12.5064 27.7382C12.6473 27.5973 12.7265 27.4061 12.7265 27.2068C12.7265 27.0074 12.6473 26.8163 12.5064 26.6753C12.3654 26.5344 12.1743 26.4552 11.9749 26.4552ZM26.1347 16.2535C25.9938 16.1126 25.8026 16.0334 25.6033 16.0334C25.404 16.0335 25.2128 16.1127 25.0719 16.2536L18.3883 22.9371L14.9114 19.4602C14.8416 19.3904 14.7587 19.3351 14.6675 19.2973C14.5764 19.2595 14.4786 19.2401 14.3799 19.2401C14.2812 19.2401 14.1835 19.2595 14.0923 19.2973C14.0012 19.3351 13.9183 19.3904 13.8485 19.4602C13.7787 19.53 13.7234 19.6129 13.6856 19.704C13.6478 19.7952 13.6284 19.8929 13.6284 19.9916C13.6284 20.0903 13.6478 20.1881 13.6856 20.2792C13.7234 20.3704 13.7787 20.4533 13.8485 20.5231L17.8569 24.5314C18.0036 24.6783 18.196 24.7516 18.3883 24.7516C18.5806 24.7516 18.773 24.6783 18.9196 24.5314L26.1346 17.3164C26.2756 17.1755 26.3548 16.9843 26.3548 16.785C26.3548 16.5857 26.2757 16.3945 26.1347 16.2535Z" fill="white"/>
</g>
<defs>
<clipPath id="clip0_139_32138">
<rect width="48" height="48" fill="white"/>
</clipPath>
</defs>
</svg>
