<svg width="161" height="160" viewBox="0 0 161 160" fill="none" xmlns="http://www.w3.org/2000/svg">
<path d="M0.864468 80.1307C0.882703 69.1967 3.13322 58.3815 7.47812 48.3478C11.823 38.3141 18.1708 29.2731 26.1326 21.7788C42.4154 6.49833 63.7078 -1.13343 86.0947 0.285421C126.319 2.83983 158.41 35.115 160.746 75.3633C163.146 116.917 134.026 152.993 92.9831 159.226C92.8237 159.25 92.6608 159.24 92.5058 159.195C92.3507 159.151 92.207 159.073 92.0847 158.968C91.9623 158.863 91.8642 158.733 91.7969 158.586C91.7296 158.44 91.6949 158.28 91.695 158.119L91.695 149.78C91.7152 148.515 91.4833 147.257 91.0128 146.082C90.5424 144.907 89.8429 143.837 88.9549 142.935C88.0669 142.033 87.0084 141.316 85.8408 140.827C84.6732 140.338 83.42 140.086 82.1541 140.086C80.8882 140.086 79.635 140.338 78.4674 140.827C77.2998 141.316 76.2412 142.033 75.3533 142.935C74.4653 143.837 73.7657 144.907 73.2953 146.082C72.8249 147.257 72.593 148.515 72.6132 149.78L72.6132 158.443C72.6128 158.602 72.5791 158.758 72.5142 158.902C72.4493 159.046 72.3547 159.175 72.2365 159.28C72.1183 159.386 71.9793 159.465 71.8285 159.512C71.6777 159.56 71.5185 159.575 71.3614 159.557C31.1736 154.795 0.864466 120.648 0.864468 80.1307ZM158.645 80.1623C158.645 78.6127 158.599 77.0631 158.507 75.4965C156.24 36.3765 125.048 5.00685 85.9518 2.52507C64.1921 1.14254 43.4905 8.56123 27.6652 23.4156C11.84 38.2699 3.10655 58.4219 3.10655 80.1307C3.10655 119.091 31.9363 151.991 70.3735 157.177L70.3735 149.783C70.3511 148.221 70.6393 146.671 71.2213 145.222C71.8033 143.773 72.6675 142.455 73.7636 141.343C74.8598 140.231 76.166 139.348 77.6064 138.745C79.0468 138.142 80.5927 137.832 82.1541 137.832C83.7155 137.832 85.2613 138.142 86.7018 138.745C88.1422 139.348 89.4484 140.231 90.5445 141.343C91.6407 142.455 92.5049 143.773 93.0869 145.222C93.6688 146.671 93.957 148.221 93.9346 149.783L93.9346 156.804C131.609 150.458 158.645 118.147 158.645 80.1623Z" fill="#1D9AD7"/>
</svg>
