<svg width="32" height="112" viewBox="0 0 32 112" fill="none" xmlns="http://www.w3.org/2000/svg">
<g opacity="0.7">
<path d="M2.51591 29.2982L28.9828 29.2982L28.9828 2.97414L2.36439 2.97413L2.36439 29.2982M0.394531 31.2463L0.394531 0.976135L31.0032 0.976136L31.0032 31.2463L0.394531 31.2463Z" fill="url(#paint0_linear_302_14199)"/>
</g>
<g opacity="0.5">
<path d="M2.51591 69.6534L28.9828 69.6534L28.9828 43.3293L2.36439 43.3293L2.36439 69.6534M0.394531 71.6014L0.394531 41.3313L31.0032 41.3313L31.0032 71.6014L0.394531 71.6014Z" fill="url(#paint1_linear_302_14199)"/>
</g>
<g opacity="0.3">
<path d="M2.51591 109.911L28.9828 109.911L28.9828 83.5871L2.36439 83.5871L2.36439 109.911M0.394531 111.909L0.394531 81.5891L31.0032 81.5891L31.0032 111.909L0.394531 111.909Z" fill="url(#paint2_linear_302_14199)"/>
</g>
<defs>
<linearGradient id="paint0_linear_302_14199" x1="1.20002" y1="0.689796" x2="14.7115" y2="37.4133" gradientUnits="userSpaceOnUse">
<stop stop-color="#28A9E1"/>
<stop offset="1" stop-color="#0173BD"/>
</linearGradient>
<linearGradient id="paint1_linear_302_14199" x1="1.20002" y1="41.045" x2="14.7115" y2="77.7684" gradientUnits="userSpaceOnUse">
<stop stop-color="#28A9E1"/>
<stop offset="1" stop-color="#0173BD"/>
</linearGradient>
<linearGradient id="paint2_linear_302_14199" x1="1.20002" y1="81.3023" x2="14.7508" y2="118.072" gradientUnits="userSpaceOnUse">
<stop stop-color="#28A9E1"/>
<stop offset="1" stop-color="#0173BD"/>
</linearGradient>
</defs>
</svg>
