<svg width="100" height="100" viewBox="0 0 100 100" fill="none" xmlns="http://www.w3.org/2000/svg">
<path fill-rule="evenodd" clip-rule="evenodd" d="M36.8402 39.9307C36.1285 40.423 35.2022 39.9961 34.3917 39.8858C33.6285 39.7003 32.9073 39.8844 32.2049 40.0763C28.6029 37.1187 28.8147 38.2375 25.361 38.2307C23.4653 35.4938 21.4233 39.0115 21.0009 37.3601C20.3724 35.5439 17.1504 34.2786 15.8466 33.8724C14.6343 33.4882 13.4933 34.314 12.4998 34.462C9.3091 34.6598 8.4301 34.5662 7.59353 37.4119C4.56906 34.6005 3.5542 37.7562 3.1539 40.3848C2.11643 42.5228 2.1889 42.8052 2.69533 44.7472C3.96013 49.2196 6.44443 46.6681 5.63756 51.0215C5.63066 51.4225 5.6618 51.8185 6.06273 52.0486C7.05393 52.4217 11.4072 50.4264 12.3784 50.8343C14.028 51.0118 15.7247 52.0593 16.2066 53.6133C16.312 54.3212 15.969 54.908 16.0083 55.6424C15.9032 57.4425 19.2436 60.0204 16.1154 59.3778C14.874 59.1994 16.4565 56.6268 11.9224 56.1762C10.6153 56.1428 10.0869 57.1265 9.23153 57.8108C8.49306 58.1786 7.71 58.5081 7.69863 59.3273C7.6394 59.9847 8.12596 60.7302 8.20663 61.1401C8.15873 63.0152 8.09116 63.3959 8.96763 64.5295C9.49353 65.2158 10.0854 65.7384 10.7358 66.3456C13.378 68.5023 11.0018 69.2578 12.5233 70.0791C14.635 70.2443 14.5785 66.9733 17.4154 70.1196C24.7068 78.6768 20.7888 65.3469 22.3865 61.6981C23.0156 60.0587 24.9667 60.4218 26.2367 59.9037C28.3338 59.1939 30.5097 59.9951 32.4217 61.2344C34.2292 62.5276 35.3498 65.157 37.3869 66.549C40.3831 68.7874 43.2604 66.2783 45.1906 67.6246C46.0848 68.4229 46.9292 69.3449 47.0801 70.5395C47.501 75.5323 48.6183 75.7141 49.5396 75.887C53.933 76.0722 54.2808 77.3541 57.0811 74.3124C57.507 73.8797 58.0283 73.5542 58.5672 73.2563C60.9555 72.1436 61.1418 70.5383 62.3736 70.1975C62.9148 70.0072 63.3825 70.0638 63.8815 70.1395C68.869 71.3112 67.9213 67.0126 69.6629 67.7753C72.4963 69.6519 72.6624 68.7092 75.0689 68.4159C80.9084 68.7188 78.9322 68.0383 81.3786 67.9946C82.9149 68.4661 83.4988 69.4828 85.3053 68.6236C87.2128 67.4646 86.0656 64.9701 86.1959 63.7961C86.2901 60.6751 85.7834 60.1532 84.0517 58.3929C86.0491 57.6096 89.0825 58.0477 89.3608 55.4687C89.9485 53.2053 90.0872 51.0497 91.3791 50.8361C97.8165 50.0624 94.616 46.6053 95.4559 45.1127C95.9389 44.0821 96.8277 43.6539 97.2537 42.769C97.9775 41.4784 97.6186 39.4349 96.349 38.9921C95.1045 38.4434 93.7631 39.1302 92.5561 38.5922C86.0964 35.9762 87.4044 36 84.1715 36.7356C81.4979 36.2385 81.5854 35.6043 79.2477 36.3264C78.5328 35.5165 77.8805 34.5488 77.2343 33.6359C74.6544 29.7468 72.9017 30.2748 71.489 27.7093C71.1742 27.2967 70.8419 26.9598 70.3491 26.6649C67.7336 25.2182 66.6158 29.6756 65.2394 29.2574C64.9286 29.2072 64.8402 29.0684 64.6237 28.8466C63.2886 27.0447 62.1832 27.2732 60.5137 27.4287C58.4057 27.7434 59.0368 25.4081 57.7301 24.6213C54.6539 22.4498 51.799 24.2534 50.61 24.6882C49.7599 25.0499 48.8367 25.0242 47.9997 25.3849C46.1166 26.2066 44.8139 28.5364 42.7575 28.0107C40.4682 27.1507 37.8293 26.8269 37.2352 29.5779C37.0976 30.4516 37.5799 31.3319 37.3158 32.1289C36.605 33.2334 36.3499 34.0073 36.0636 35.2466C35.297 38.3144 36.1435 38.0781 36.8402 39.9307ZM20.3753 70.9524C18.1083 68.9676 16.6049 65.8384 13.6353 67.8171C13.1097 65.4131 9.38696 64.0277 9.738 62.1554C9.93126 60.7595 9.5693 60.5099 9.28506 59.5371C10.6872 58.9572 10.7942 58.1808 11.6765 57.7614C15.5781 57.8616 12.7293 60.2857 15.9455 60.9287C21.7427 61.5387 17.5328 56.1458 17.625 55.9859C17.3923 55.2213 17.9207 54.2819 17.7551 53.4401C17.3467 51.2996 15.16 49.8452 13.1433 49.3891C11.1532 48.9327 9.44223 49.7914 7.25996 50.3494C7.94243 46.2519 4.58133 47.2588 4.12516 44.1344C3.98646 43.4549 3.84203 43.0884 3.93313 42.4966C5.33256 39.7303 4.8341 37.466 5.90836 37.9982C6.46816 38.3982 6.9069 39.0531 7.61703 39.1948C8.7222 39.3818 9.17853 37.6183 9.41116 36.9257C9.694 35.7038 12.2566 36.2291 12.8806 35.9801C13.5915 35.8889 14.3156 35.4262 15.1145 35.3303C16.1333 35.4353 17.5777 36.2099 18.6573 36.94C19.1765 37.2779 19.493 37.6168 19.7052 38.2832C21.0069 40.6116 23.0142 38.5723 23.7425 38.7299C25.0732 40.9011 27.3612 39.0449 29.1636 39.7744C30.608 40.4976 31.2717 42.1032 32.9072 41.5164C33.8895 41.1214 34.7504 41.6654 35.7765 41.7111C37.2639 41.8504 38.6557 40.9441 38.37 39.5956C38.2405 38.7686 37.5042 38.1055 37.3078 37.327C37.4363 35.8787 37.8215 34.1209 38.6508 32.9443C39.6135 31.1435 37.872 29.5691 39.5375 28.9933C39.9347 28.8568 40.2995 28.9232 40.7161 29.0244C44.8148 30.4719 45.3546 29.0488 48.2258 27.0234C48.5744 26.8008 49.0184 26.6634 49.4135 26.6014C51.6264 26.3213 52.7855 24.9853 54.6555 25.1505C58.3077 25.3131 56.6533 27.8939 58.8808 28.7546C62.4381 29.6303 61.4793 27.6319 64.0643 30.4345C67.2805 32.2938 68.4067 27.4264 69.5534 28.0087C70.4659 28.5813 70.6802 29.532 71.4649 30.2612C74.6106 32.6291 74.7001 32.6783 76.251 34.9252C79.1904 39.1273 78.4621 37.8285 81.012 37.5581C81.4467 37.5383 81.7493 37.6974 82.1903 37.8455C85.5902 39.0998 85.4673 37.1525 87.6427 38.2075C89.5637 38.8492 91.4738 40.1731 93.3777 40.3682C94.6926 40.4348 96.1012 39.9064 96.0489 41.1387C96.0407 42.7996 94.4483 43.1317 93.9857 44.5813C93.5459 45.592 93.8411 46.5638 93.9565 47.6075C94.2402 49.7022 90.4898 48.7633 89.6124 50.0786C88.3479 51.4686 88.2812 53.6286 87.811 55.3047C87.6735 56.5195 84.9229 56.3654 84.3019 56.6513C83.3692 56.8571 81.5674 57.8463 82.3172 58.9205C84.82 61.1821 84.6867 61.4659 84.6399 64.0504C84.5748 65.1277 85.1661 66.1255 84.6755 67.1771C83.5938 67.9064 82.3697 66.3006 81.3298 66.4224C80.8668 66.3874 80.3915 66.5026 79.9404 66.6161C77.6143 67.4413 75.748 66.421 73.761 67.0988C70.7344 68.2572 69.9825 64.2589 67.4292 67.1298C65.7584 70.419 63.9799 67.5956 61.5539 68.8404C60.0586 69.4697 59.7394 70.8128 58.5732 71.4776C55.5431 73.0182 55.0879 74.5496 54.0301 74.7366C52.988 74.9101 52.0151 74.3218 50.9529 74.4133C50.2837 74.3857 49.522 74.5081 49.3287 74.0476C48.9164 72.7247 48.6865 71.6303 48.6246 70.3234C48.1336 67.4871 45.5555 65.1284 42.7249 65.7104C36.5487 67.3035 36.5947 61.4082 32.3694 59.3878C29.256 57.7468 27.3464 57.8592 25.1057 58.6047C18.2224 59.0833 21.109 66.5901 20.3753 70.9524Z" fill="white"/>
<path d="M51.9106 54V53.52C52.5186 53.52 52.8226 53.4347 52.8226 53.264C52.8226 53.1253 52.684 52.864 52.4066 52.48L49.5266 48.768L48.8066 49.424C48.6893 49.5307 48.5826 49.6533 48.4866 49.792C48.4013 49.9307 48.3426 50.096 48.3106 50.288V52.416C48.3106 53.152 48.844 53.52 49.9106 53.52V54H45.2706V53.52C46.252 53.52 46.7426 53.152 46.7426 52.416V45.056C46.7426 44.2773 46.2146 43.888 45.1586 43.888V43.392H49.7186V43.888C48.78 43.888 48.3106 44.2773 48.3106 45.056V48.944L52.0386 45.408C52.284 45.184 52.444 45.008 52.5186 44.88C52.604 44.7413 52.6466 44.5547 52.6466 44.32C52.6466 44.032 52.2786 43.888 51.5426 43.888V43.392H55.6866V43.888C55.3666 43.92 55.1 43.968 54.8866 44.032C54.684 44.0853 54.492 44.1707 54.3106 44.288C54.1293 44.3947 53.9373 44.544 53.7346 44.736C53.532 44.9173 53.2706 45.1627 52.9506 45.472L50.6946 47.664L54.3426 52.416C54.492 52.576 54.6306 52.7253 54.7586 52.864C54.8866 53.0027 55.02 53.12 55.1586 53.216C55.308 53.312 55.468 53.3867 55.6386 53.44C55.82 53.4933 56.0386 53.52 56.2946 53.52V54H51.9106ZM56.3379 54L56.2899 53.632L62.2579 44.192C62.0339 44.1493 61.8045 44.1227 61.5699 44.112C61.3459 44.0907 61.1272 44.08 60.9139 44.08H60.1939C60.0445 44.08 59.8525 44.0907 59.6179 44.112C59.3832 44.1333 59.1432 44.176 58.8979 44.24C58.6525 44.2933 58.4179 44.3733 58.1939 44.48C57.9805 44.5867 57.8099 44.7307 57.6819 44.912C57.5965 45.0827 57.4952 45.3013 57.3779 45.568C57.2605 45.824 57.1592 46.1173 57.0739 46.448H56.5939L56.8979 43.28C57.1005 43.312 57.2979 43.3387 57.4899 43.36C57.6925 43.3813 57.9005 43.392 58.1139 43.392H64.2099V43.888L58.3059 53.264C58.4872 53.3067 58.6632 53.3387 58.8339 53.36C59.0152 53.3707 59.1805 53.376 59.3299 53.376H60.5619C61.1059 53.376 61.5699 53.2747 61.9539 53.072C62.3485 52.8693 62.6792 52.624 62.9459 52.336C63.2125 52.048 63.4259 51.7493 63.5859 51.44C63.7459 51.1307 63.8739 50.864 63.9699 50.64L64.4499 50.768L64.0339 54H56.3379Z" fill="white"/>
</svg>
