<svg width="100" height="100" viewBox="0 0 100 100" fill="none" xmlns="http://www.w3.org/2000/svg">
<path fill-rule="evenodd" clip-rule="evenodd" d="M67.9054 42.2858C67.2988 42.2443 66.6907 41.9868 66.1416 41.7202C61.5823 39.2715 61.6897 41.933 60.0947 40.9047C59.0925 39.8583 60.9592 37.5778 57.645 37.0153C56.9965 36.8565 56.4096 36.3655 55.6394 36.4413C53.6689 36.6193 53.2097 38.2622 51.8909 38.9375C48.1743 40.5626 49.8258 41.1688 47.4995 41.9833C45.2538 43.0435 45.3651 42.7357 44.1634 41.8513C41.2519 39.6697 40.013 43.1588 39.0755 43.8001C37.8008 42.5939 35.8497 42.8413 34.4037 43.6899C31.4364 41.7109 25.9087 44.6608 24.3985 41.1313C25.2638 42.6949 27.3394 41.8175 27.9178 40.7083C29.0541 38.5824 27.5871 34.8829 25.1288 34.6519C23.6754 34.4437 22.7262 36.0525 21.8994 36.9376C20.8244 38.0876 19.9326 39.2826 18.5425 40.1044C15.5832 40.2755 13.4807 40.5537 11.2299 42.5594C10.2355 43.5739 10.4983 44.2702 9.89688 45.3547C7.79815 48.599 8.10468 48.4377 8.19688 50.5167C7.32781 52.2119 7.32395 52.6513 7.79291 54.0238C9.31938 57.087 6.86921 57.2699 4.76838 57.4704C0.893948 56.7603 2.51728 60.6968 3.47775 62.5924C4.58881 64.5158 4.53208 65.9095 5.88535 67.0358C6.53808 67.6889 6.73508 68.5063 7.00228 69.3944C8.32945 73.6484 9.82011 67.586 10.8758 66.8494C11.6298 66.6911 12.7969 66.861 13.1808 66.131C13.9478 65.1551 13.2273 63.6343 13.9451 62.8087C14.9291 61.653 16.8741 61.3179 17.9695 61.8521C18.297 62.0141 18.4746 62.2089 18.646 62.4545C20.1067 65.777 21.1044 65.5146 23.5705 66.4373C24.1487 66.6756 25.0984 67.2845 25.7406 67.0487C25.9514 67.005 26.256 66.6657 26.3411 66.2523C26.6782 64.5898 27.5349 63.727 29.0311 64.3221C30.1679 64.5618 31.5541 64.65 32.86 64.9994C34.7938 65.4717 33.9959 66.1822 35.0807 66.9915C36.1736 67.8142 37.4719 67.8051 37.9284 68.7723C38.9044 71.7889 38.2402 73.2768 41.6153 73.8406C41.9329 73.9319 42.1893 74.1734 42.4151 74.4158C43.7501 75.9206 44.6537 75.0325 46.0774 75.9282C47.6267 76.4318 49.3696 74.8758 50.6187 75.31C51.3529 75.5181 52.4987 76.0435 53.4169 75.8752C55.4348 75.4234 53.9107 72.5236 55.9592 73.7347C59.2397 76.5051 58.5077 73.3961 60.9839 74.2922C66.1622 76.9905 65.3846 74.6954 68.6504 74.0644C71.4463 73.6718 71.822 72.8875 72.2266 70.8547C73.0436 68.8906 72.9968 69.1091 72.4608 67.6023C76.9042 65.6444 74.9056 69.8043 80.1062 70.4991C82.7803 71.4985 85.2513 68.737 84.2463 71.5786C83.7692 72.5276 83.0412 73.2542 83.0018 74.3334C82.981 75.3887 83.8041 76.0397 84.958 76.4996C86.7761 77.4431 87.5685 76.1566 88.3173 74.9145C89.3352 73.4885 89.7951 72.4378 89.9404 70.9847C90.1851 68.6407 89.4263 66.2355 88.7911 63.9309C88.1215 60.5278 85.5579 58.6469 84.504 58.5146C83.1176 58.3634 82.5515 59.4023 81.7297 59.0865C83.6235 54.926 80.1917 56.1587 83.5829 52.9123C84.968 51.5339 85.8626 50.861 87.2446 50.01C90.8044 47.2546 85.9593 45.7028 88.3431 43.5342C88.9237 42.8907 90.0167 44.3604 89.9345 44.7975C89.4243 47.2227 89.6108 50.583 92.2374 51.5354C96.8033 52.4651 95.7273 54.1653 97.1244 53.7136C98.3221 53.2586 97.0417 50.0135 97.0425 49.4186C95.7611 44.358 92.7291 42.65 92.5731 41.4619C92.9904 37.6193 93.9419 38.3594 93.4533 34.5019C93.0531 30.5092 92.871 31.024 90.1082 29.8946C90.4602 28.4546 91.7478 27.8783 92.4889 26.6362C93.3549 25.0571 90.1432 22.0704 88.9376 23.6193C88.4079 24.1003 88.1375 25.0729 87.6224 25.623C84.7947 27.6757 81.8184 28.5516 80.9268 31.9754C80.704 32.6188 80.4899 33.2748 79.8327 33.7054C76.5387 34.5872 77.0903 34.7578 75.2089 36.1053C74.6711 36.5031 74.0512 36.6246 73.3832 36.564C70.4222 36.316 69.5839 40.4874 67.9054 42.2858ZM90.0041 24.7716C90.4182 25.0394 90.757 25.5191 91.0504 25.9718C85.6035 31.6874 90.4563 31.2726 91.5205 32.1808C91.7852 33.1751 92.0824 35.6383 91.9943 36.8847C91.9234 38.0502 91.0413 39.5826 91.0039 40.9796C91.0143 44.2761 94.8751 44.7383 95.7888 51.1054C94.8617 50.3857 93.4921 50.4228 92.4607 49.9322C89.8823 47.9188 92.5722 44.5968 90.7676 42.9877C88.0875 39.7967 85.8708 43.7186 86.0375 45.1995C86.1268 46.3505 87.6206 47.7265 86.6957 48.4409C78.4881 54.0977 80.651 55.7024 80.702 56.4048C81.2039 57.917 79.0256 59.4358 80.6532 60.3124C83.3194 61.702 83.5652 58.9654 85.2112 60.6583C86.702 61.9874 86.9457 62.9652 87.3441 64.5517C88.8447 69.7414 89.1272 71.7678 86.1165 75.2572C84.1226 74.5475 84.3308 74.475 85.2075 73.0293C86.3512 71.4234 86.4688 69.4403 84.638 68.7125C82.9371 68.4266 81.9984 69.6791 80.4129 68.9934C79.4588 68.6639 78.4241 68.5934 77.924 67.9917C77.2022 67.1322 76.6675 66.1672 75.6379 65.7487C74.4713 65.1948 71.7907 65.7669 71.1581 66.7197C70.4649 67.652 71.2491 68.4252 71.2918 69.0908C70.1044 71.2703 71.0116 71.8854 69.4264 72.3444C66.4652 72.8682 66.8177 73.0599 65.2529 73.8382C62.6013 74.6504 61.3608 71.017 58.0312 73.3082C55.7132 71.4151 53.5554 71.0181 53.0411 74.344C52.4144 74.3258 51.2857 73.8897 50.7813 73.7481C49.0126 73.324 47.6154 74.6843 46.439 74.4141C44.46 73.3733 44.3802 74.134 43.8321 73.6259C42.1132 71.7085 41.2896 72.5291 40.4529 71.8238C38.8893 68.0801 40.4087 67.5904 36.2725 65.9105C36.0173 65.7676 35.8305 65.6256 35.7185 65.2934C35.072 63.3652 31.9715 63.272 30.5868 63.0004C29.4034 62.8909 28.2333 62.3623 27.3029 62.6161C26.0621 63.0538 25.1234 64.4528 24.9455 65.3602C23.7908 64.7716 23.1792 64.7102 22.0001 64.2265C20.2771 63.6117 20.4535 61.5258 19.1755 60.7478C17.0241 59.2136 13.4035 60.3799 12.3879 62.3507C11.8749 63.1909 12.1711 64.1706 11.9471 65.1751C9.47725 65.0956 9.17791 66.4354 8.23835 68.1932C7.68211 66.2082 6.96021 66.2124 6.21288 65.0144C5.28248 62.2694 3.89148 60.5112 3.90761 58.9889C6.71738 59.1849 10.379 58.3173 9.78261 55.0152C9.63528 54.1731 9.07071 53.4604 9.04541 52.4741C10.5657 49.4612 8.98948 49.5521 10.2013 47.7447C10.7243 46.863 11.344 46.2087 11.6513 45.2466C11.9505 43.0514 14.4047 42.2357 16.3415 41.8103C18.2873 41.6455 18.9672 42.0319 20.3366 40.7593C22.0139 39.3693 23.0757 37.8033 24.6038 36.2887C26.3583 35.5253 27.7744 40.2821 25.7921 40.42C25.1915 39.279 24.6857 39.3344 23.7224 39.6569C21.6719 40.6514 23.5141 43.4053 25.1518 44.0127C28.7407 45.3639 31.6475 43.7118 33.5237 45.0252C35.0775 45.7943 35.5809 44.4065 36.7637 44.5394C38.6546 44.5694 38.3207 46.3853 40.0653 44.9994C41.0891 44.2222 41.6493 42.603 42.558 42.7192C43.3173 43.0105 44.0372 43.8469 44.779 44.1007C46.1874 44.616 48.3744 43.2872 49.5844 42.6815C51.6944 40.1728 51.5429 41.1012 53.2625 39.9157C56.1235 37.2625 54.9434 37.878 58.1436 38.7912C58.3726 39.4308 58.1006 40.2305 58.287 40.8718C58.4574 41.9862 59.9954 42.8569 60.8871 42.7438C61.7023 42.7286 62.2981 42.0613 63.3036 42.247C65.4195 42.6697 67.9727 45.2866 69.5469 42.7626C73.4132 36.1145 71.9421 38.9552 75.2707 37.844C76.4139 37.3702 77.2146 36.3818 78.26 35.7855C82.3815 34.9577 81.6045 33.7278 83.0879 30.8855C85.8898 27.5826 88.3177 28.3317 90.0041 24.7716Z" fill="white"/>
<path d="M47.4251 54.208C47.7451 54.208 48.0544 54.1867 48.3531 54.144C48.6517 54.1013 48.9184 54.0053 49.1531 53.856C49.3877 53.7067 49.5744 53.4933 49.7131 53.216C49.8624 52.9387 49.9371 52.56 49.9371 52.08C49.9371 51.6747 49.8624 51.3387 49.7131 51.072C49.5744 50.8053 49.3877 50.5973 49.1531 50.448C48.9291 50.288 48.6784 50.176 48.4011 50.112C48.1237 50.048 47.8517 50.016 47.5851 50.016H46.8171C46.4117 50.016 46.2091 50.3147 46.2091 50.912V53.968C46.2517 54.128 46.3797 54.208 46.5931 54.208H47.4251ZM53.1691 58.608C53.1691 58.736 53.1371 58.8907 53.0731 59.072C53.0197 59.2533 52.9291 59.424 52.8011 59.584C52.6837 59.744 52.5344 59.8827 52.3531 60C52.1824 60.1173 51.9851 60.176 51.7611 60.176C51.1104 60.176 50.6304 60.0693 50.3211 59.856C50.0117 59.632 49.7824 59.2747 49.6331 58.784C49.5051 58.3787 49.3771 57.9467 49.2491 57.488C49.1211 57.0187 48.9664 56.592 48.7851 56.208C48.6144 55.8133 48.4011 55.488 48.1451 55.232C47.8891 54.9653 47.5691 54.832 47.1851 54.832H46.7051C46.4171 54.832 46.2517 54.8907 46.2091 55.008V58.48C46.2091 59.1733 46.6997 59.52 47.6811 59.52V60H43.1691V59.52C44.1077 59.52 44.5771 59.1733 44.5771 58.48V50.912C44.5771 50.2293 44.0704 49.888 43.0571 49.888V49.392H45.0571C45.4091 49.392 45.7077 49.392 45.9531 49.392C46.1984 49.3813 46.4331 49.3707 46.6571 49.36C46.8917 49.3493 47.1371 49.344 47.3931 49.344C47.6597 49.3333 47.9797 49.328 48.3531 49.328C48.8117 49.328 49.2437 49.3973 49.6491 49.536C50.0544 49.664 50.4011 49.8453 50.6891 50.08C50.9877 50.3147 51.2224 50.592 51.3931 50.912C51.5637 51.232 51.6491 51.5787 51.6491 51.952C51.6491 52.3253 51.5797 52.656 51.4411 52.944C51.3024 53.232 51.1051 53.4827 50.8491 53.696C50.6037 53.9093 50.3104 54.0907 49.9691 54.24C49.6277 54.3893 49.2491 54.5067 48.8331 54.592V54.64C49.3451 54.8853 49.7664 55.1947 50.0971 55.568C50.4384 55.9307 50.6677 56.2827 50.7851 56.624C50.8491 56.8373 50.9237 57.0933 51.0091 57.392C51.0944 57.6907 51.1904 57.9733 51.2971 58.24C51.4144 58.5067 51.5477 58.736 51.6971 58.928C51.8464 59.1093 52.0277 59.2 52.2411 59.2C52.4971 59.2 52.6837 58.96 52.8011 58.48L53.1691 58.608ZM62.5201 51.296C62.5201 50.3573 61.9707 49.888 60.8721 49.888V49.392H64.5841V49.888C63.6987 49.888 63.2561 50.3573 63.2561 51.296V56.16C63.2561 56.768 63.2027 57.3227 63.0961 57.824C62.9894 58.3253 62.7707 58.7573 62.4401 59.12C62.1201 59.472 61.6614 59.7493 61.0641 59.952C60.4667 60.144 59.6721 60.24 58.6801 60.24C58.0507 60.24 57.4961 60.1547 57.0161 59.984C56.5467 59.8133 56.1467 59.5733 55.8161 59.264C55.4961 58.9547 55.2507 58.5867 55.0801 58.16C54.9201 57.7333 54.8401 57.2693 54.8401 56.768V51.056C54.8401 50.2773 54.3334 49.888 53.3201 49.888V49.392H57.9441V49.888C56.9307 49.888 56.4241 50.2773 56.4241 51.056V56.352C56.4241 56.7147 56.4401 57.088 56.4721 57.472C56.5147 57.8453 56.6321 58.1867 56.8241 58.496C57.0161 58.7947 57.3094 59.04 57.7041 59.232C58.1094 59.424 58.6801 59.52 59.4161 59.52C60.0987 59.52 60.6427 59.4187 61.0481 59.216C61.4641 59.0027 61.7787 58.7413 61.9921 58.432C62.2054 58.1227 62.3441 57.7813 62.4081 57.408C62.4827 57.0347 62.5201 56.6827 62.5201 56.352V51.296Z" fill="white"/>
</svg>
